<?xml version="1.0" encoding="utf-8"?>
<!-- Generator: Adobe Illustrator 21.1.0, SVG Export Plug-In . SVG Version: 6.00 Build 0)  -->
<svg version="1.1" id="Layer_1" xmlns="http://www.w3.org/2000/svg" xmlns:xlink="http://www.w3.org/1999/xlink" x="0px" y="0px"
	 viewBox="0 0 595.3 841.9" style="enable-background:new 0 0 595.3 841.9;" xml:space="preserve">
<style type="text/css">
	.st0{fill:none;stroke:#0000FF;stroke-linejoin:bevel;}
	.st1{fill:none;stroke:#FF0000;stroke-linejoin:bevel;}
</style>
<g>
	<path class="st0" d="M158.4,594.2l-50-0.6 M151.3,209.8L118.8,256 M95,204.7l18.6-46.4 M213.2,425.8l-56.3-5.1 M108.4,593.6
		l31.4,47 M63.6,157.7l-25,50.7 M156.9,420.8l31.8-38.5 M156.9,420.8l23.8,51.3 M108.4,593.6l-25,50.7 M95,204.7l-31.4-47
		 M141.3,366.4L102,407 M139.8,640.6l18.6-46.4 M186.4,332.3l-45.1,34.1 M156.9,420.8l-15.6-54.3 M108.4,593.6l-49.5,7.1 M95,204.7
		l-56.4,3.7 M83.4,644.3l56.4-3.7 M119.5,453.9l37.4-33.2 M134.3,310.4l31.8-38.5 M186.4,332.3l-52.1-22 M156.9,420.8l-54.8-13.7
		 M166.2,271.8L118.8,256 M196.2,526.4l31.8-38.5 M141.3,366.4l47.4,15.8 M336,84.1l-41.4-28 M180.7,472l-39.3,40.6 M77,802.3
		l47.9,14.1 M182.2,249.1l49.3,8.3 M196.2,526.4L180.7,472 M245.9,84.6l3.6-49.8 M77,802.3l-9-55.8 M207.7,206.2l-56.4,3.7
		 M31.8,781L77,802.3 M151.3,209.8l30.9,39.3 M196.2,526.4l-54.8-13.7 M207.7,206.2l-25.5,43 M294.9,112.6L336,84.1 M251.3,624.7
		l18.6-46.4 M68,746.5L31.8,781 M77,802.3l43.8-35.7 M176.3,159.2l-25,50.7 M220,577.6l-25,50.7 M207.7,206.2l-31.4-47 M251.3,624.7
		l-31.4-47 M134.3,310.4l-54.8-13.7 M176.3,159.2l-38.2-41.6 M194.9,628.3l30.9,39.3 M251.3,624.7l-56.4,3.7 M138.1,117.5
		l-11.2,48.7 M180.7,472l50,0.6 M118.8,256l-39.3,40.6 M134.3,310.4L118.8,256 M180.7,472l-49.3-8.3 M193.2,105.2L138,117.5
		 M213.2,425.8L180.7,472 M193.2,105.2l-16.9,53.9 M193.2,105.2l-36.6-34.1 M193.2,105.2l8.4-55.9 M176.3,159.2l-49.5,7.1
		 M176.3,159.2l47.8-14.6 M249.5,34.7l-47.8,14.6 M201.7,49.3l-45,21.8 M196.2,526.4l23.7,51.3 M222.2,717.5l-52.6,20.7 M245.9,84.6
		l-52.6,20.7 M211,766.2l11.2-48.7 M63.6,157.7l-49.5,7.1 M252.5,531.4l-56.3-5.1 M196.2,526.4l-25.5,43 M169.6,738.1l41.4,28
		 M220,577.6l50,0.6 M139.8,640.6l38.2,41.6 M245.9,84.6l-44.2-35.2 M222.2,717.5L178,682.2 M134.3,310.4l-37.4,33.2 M234.6,133.3
		l11.2-48.7 M252.5,531.4L220,577.6 M118.8,256l-49.3-8.3 M250,134.4l45-21.8 M68,746.5l52.8,20.1 M222.2,717.5l3.6-49.8
		 M245.9,84.6l48.8-28.5 M251.3,624.7l38.2,41.6 M193.2,105.2l41.4,28 M120.8,766.6l48.8-28.5 M141.3,366.4l-7-56.1 M294.6,56.1
		l-45.2-21.3 M306.5,612.4l-55.2,12.3 M124.4,716.8l-3.6,49.8 M156.7,71.2l-18.6,46.4 M289.6,666.3l47.8-14.6 M169.6,738.1
		l-45.2-21.3 M109.1,718.1L68,746.5 M120.8,766.6l49.1,28 M95,204.7l-25.5,43 M264,211.2l-56.3-5.1 M306.5,612.4l-16.9,53.9
		 M251.3,624.7l-11.2,48.7 M169.9,794.6l-0.3-56.5 M194.9,628.3l-36.6-34.1 M124.9,816.4l45-21.8 M114.3,683.6l25.5-43 M151.3,209.8
		l-24.4-43.6 M294.9,112.6l-0.3-56.5 M120.8,766.6l4.1,49.8 M264,211.2l-32.5,46.2 M169.6,738.1l8.4-55.9 M95,204.7l23.7,51.3
		 M231.4,257.4l50,0.6 M194.9,628.3L178,682.2 M294.9,112.6l-49.1-28 M169.9,794.6l41.1-28.5 M151.3,209.8L95,204.7 M239.5,167.6
		l-31.8,38.5 M178,682.2L133,704 M178,682.2l47.8-14.6 M141.3,366.4L92,358.1 M207.7,206.2l23.7,51.3 M170.7,569.3l49.3,8.3
		 M194.9,628.3l-55.2,12.3"/>
	<path class="st1" d="M222.7,486.1l-42-14l47.4,15.8l24.4,43.6l17.4,46.8l36.6,34.1l30.9,39.3l-3.7,15.9L303,677l-13.4-10.7
		l-49.5,7.1l-11.4-10.6l22.6-38.1l-25.5,43l13.5,9.2l-2.3,32l-14.8,8.7l11.6,12.7l-7.2,31.3l-15.7,4.8l1.3,16.3l-26.2,18l-16.1-6.1
		l-2.6,17l-28.9,14l-13.5-9.2L113,827.7l-30.8-9.1L77,802.3L62.2,811l-29-13.7L31.8,781L28,765.1L51.2,743l16.8,3.6l-0.1-17.2
		l26.4-18.3l14.8,7l11.7,48.6l-10.4-43.1l14-6.8l12.8-8.9l32.4,30.2L133.1,704l1.1-15.5l43.8-6.3l-49.5,7.1l11.2-48.7l-10,43.2
		l-15.6-0.2l-30.9-39.3l-24.4-43.6l6.1-15.2l31.8-4.5l11.6,12.7l9.9-14.1l32.1,0.4l8,14.3l14.9-4.6l21.7,38.6l-24.4-43.6l49.5-7.1
		l-43.8,6.3l-5.4-14.6l-7.6-13.6l33.1-29.4l-37.4,33.2l-17.4-46.8l-10-49l25.5-43l-22.6,38.1l-14.8-4.9l-17.4-46.8l-10-49l9.9-12
		l39.4,20.3l-44.4-22.9l-17.4-46.8l-10-49l-30.9-39.3l-24.4-43.6l6.1-15.2l31.8-4.5l11.6,12.7l50,0.6l9.6,12.2L95,204.7l31.8-38.5
		l-12-11.2l7.2-31.3l16-6.3l-9.5-14.3l11.9-29.8l16.2-2.3l1.2-16.3l28.9-14l14.9,8.5l5.1-16.4l30.7-9.4l12,11.2l13.5-9.3l29,13.7
		l2.7,17l16-6.3l26.6,18L336,84.1l1.3,16.3L311,118.7l-16.1-6.1l-2.6,17l-28.9,14l-13.5-9.2l-4.1-49.8l3.7,44.1l-14.9,4.6l-14,6.8
		l-27.4-34.8l30.9,39.3l-3.5,15.2l-44.3-0.6l50,0.6l-18.6,46.4l16.5-41.1l15.4,2.6l24.4,43.6l17.4,46.8l-8.4,14.1l-32.1-0.4
		l-9.5-14.3l-11.9,12.4l-31.6-5.3l-5.7-15.3l-15.4,2.2L151.3,210l17.4,46.8l-50-0.6l44.3,0.6l3.1,15.3l5.4,14.6l-37.3,23.9l42.1-27
		l10,49l2.4,49.9l24.4,43.6l17.4,46.8L222.7,486.1z"/>
</g>
</svg>
