<?xml version="1.0" encoding="utf-8"?>
<!-- Generator: Adobe Illustrator 21.1.0, SVG Export Plug-In . SVG Version: 6.00 Build 0)  -->
<svg version="1.1" id="Layer_1" xmlns="http://www.w3.org/2000/svg" xmlns:xlink="http://www.w3.org/1999/xlink" x="0px" y="0px"
	 viewBox="0 0 595.3 841.9" style="enable-background:new 0 0 595.3 841.9;" xml:space="preserve">
<style type="text/css">
	.st0{fill:none;stroke:#0000FF;stroke-linejoin:bevel;}
	.st1{fill:none;stroke:#FF0000;stroke-linejoin:bevel;}
</style>
<g>
	<path class="st0" d="M262,554.5l-112.7-39 M284.5,671.6l22.5,117.1 M239.5,437.5l-22.5-117.1 M104.3,281.4l22.5,117.1 M216.9,320.4
		l112.7,39 M239.5,437.5l90.1-78 M171.9,632.6l90.1-78 M352.1,476.5l-112.7-39 M126.8,398.5l90.1-78 M284.5,671.6L262,554.5
		 M307.1,242.4l112.7,39 M262,554.5l-22.5-117.1 M307.1,242.4l22.5,117.1 M171.9,632.6l112.7,39 M194.4,749.7l90.1-78 M397.2,164.3
		l-90.1,78 M307.1,242.4l-90.1,78 M284.5,125.3l112.7,39 M307.1,788.7l90.1-78"/>
	<path class="st1" d="M397.2,164.3l22.5,117.1l-90.1,78l22.5,117.1l-90.1,78l112.7,39l-90.1,78l112.7,39l22.5,117.1l-112.7-39
		l-112.7-39l-22.5-117.1l-22.5-117.1l90.1-78l-112.7-39l-112.7-39l90.1-78l112.7,39l-22.5-117.1l112.7,39l-22.5-117.1l90.1-78
		L397.2,164.3z"/>
</g>
</svg>
