<?xml version="1.0" encoding="utf-8"?>
<!-- Generator: Adobe Illustrator 21.1.0, SVG Export Plug-In . SVG Version: 6.00 Build 0)  -->
<svg version="1.1" id="Layer_1" xmlns="http://www.w3.org/2000/svg" xmlns:xlink="http://www.w3.org/1999/xlink" x="0px" y="0px"
	 viewBox="0 0 595.3 841.9" style="enable-background:new 0 0 595.3 841.9;" xml:space="preserve">
<style type="text/css">
	.st0{fill:none;stroke:#0000FF;stroke-linejoin:bevel;}
	.st1{fill:none;stroke:#FF0000;stroke-linejoin:bevel;}
</style>
<g>
	<path class="st0" d="M104.3,281.4l22.5,117.1 M419.7,281.4l-22.5-117.1 M307.1,242.4l-90.1,78 M307.1,242.4l22.5,117.1
		 M397.2,164.3l-90.1,78 M284.5,671.6l90.1-78 M284.5,671.6L307,788.7 M374.7,593.6l-112.7-39 M262,554.5l-22.5-117.1 M374.7,47.2
		l-90.1,78 M307.1,788.7l90.1-78 M194.4,749.7l90.1-78 M149.4,515.5l22.5,117.1 M126.8,398.5l112.7,39 M284.5,125.3l112.7,39
		 M171.9,632.6l90.1-78 M329.6,359.4l90.1-78 M284.5,671.6L262,554.5 M194.4,203.3l22.5,117.1 M352.1,476.5l-112.7-39 M171.9,632.6
		l22.5,117.1 M126.8,398.5l90.1-78 M307.1,242.4l-112.7-39 M239.5,437.5L217,320.4 M171.9,632.6l112.7,39 M262,554.5l-112.7-39
		 M216.9,320.4l112.7,39 M307.1,242.4l112.7,39 M239.5,437.5l90.1-78 M419.7,827.7l-22.5-117.1"/>
	<path class="st1" d="M412.7,169.7l19.4,101l-12.4,10.7l3.1,16.1l-77.7,67.3l-15.5-5.4l22.5,117.1l-90.1,78l12.4-10.7l97.2,33.7
		l3.1,16.1l3.1,16.1L300,677l-15.5-5.4l112.7,39l15.5,5.4l19.4,101l-12.4,10.7l-112.7-39l-112.7-39l-15.5-5.4l-19.4-101l12.4-10.7
		l-15.5-5.4l-19.4-101l12.4-10.7l90.1-78L227,448.2l-97.2-33.7l-3.1-16.1L14,359.4l90.1-78l112.7,39l-15.5-5.4L182,214l12.4-10.7
		l12.4-10.7l97.2,33.7l3.1,16.1l-22.5-117.1l-3.1-16.1l77.8-67.3l15.5,5.4l22.5,117.1L412.7,169.7z"/>
</g>
</svg>
