<?xml version="1.0" encoding="utf-8"?>
<!-- Generator: Adobe Illustrator 21.1.0, SVG Export Plug-In . SVG Version: 6.00 Build 0)  -->
<svg version="1.1" id="Layer_1" xmlns="http://www.w3.org/2000/svg" xmlns:xlink="http://www.w3.org/1999/xlink" x="0px" y="0px"
	 viewBox="0 0 595.3 841.9" style="enable-background:new 0 0 595.3 841.9;" xml:space="preserve">
<style type="text/css">
	.st0{fill:none;stroke:#0000FF;stroke-linejoin:bevel;}
	.st1{fill:none;stroke:#FF0000;stroke-linejoin:bevel;}
</style>
<g>
	<path class="st0" d="M250.2,636.2l18.7-46.3 M119.4,777.9l48.9-28.4 M195.4,537.8l-15.4-54.4 M195.4,537.8l31.9-38.4 M119.4,777.9
		l49,28.1 M219,589.2l-25.1,50.6 M220.9,729l-44.1-35.3 M107.4,604.9l31.3,47.1 M193.4,116.7l-55.2,12.2 M168.4,806l-0.2-56.5
		 M168.2,749.5l41.3,28.1 M176.3,170.6l-25.1,50.6 M195.4,537.8L140.6,524 M295.1,124.3l-49-28.1 M220.9,729l-52.7,20.5
		 M119.4,777.9l4,49.8 M193.4,116.7l-17.1,53.9 M176.8,693.6l47.8-14.5 M156.3,432.1l31.9-38.4 M193.8,639.8l-17.1,53.9
		 M140.9,377.8l47.4,15.9 M140.9,377.8l-39.4,40.6 M179.9,483.5L140.6,524 M138.7,651.9l38.1,41.7 M193.4,116.7l8.5-55.9 M186,343.8
		l-52-22.1 M246,96.2l-52.7,20.5 M193.8,639.8l-55.2,12.2 M94.9,216l23.6,51.3 M207.6,217.6l-56.4,3.5 M295.1,124.3l-0.2-56.5
		 M151.2,221.2l-32.6,46.1 M75.5,813.5l-8.9-55.8 M207.6,217.6l-31.3-47.1 M246,96.2l48.9-28.4 M156.3,432.1l-15.4-54.4 M186,343.8
		l-45.1,34 M263.9,222.8L231.2,269 M156.3,432.1l23.6,51.3 M212.6,437.3l-56.3-5.2 M107.4,604.9l-25.1,50.6 M138.7,651.9l18.7-46.3
		 M151.2,221.2L94.9,216 M246,96.2l-44.1-35.3 M156.3,432.1l-54.8-13.8 M82.3,655.5l56.4-3.5 M176.3,170.6l-38.1-41.7 M94.9,216
		l-25.6,42.9 M219,589.2l50,0.7 M251.6,543L219,589.2 M118.5,267.3l-39.4,40.6 M134,321.7l-37.5,33.1 M195.4,537.8l23.6,51.3
		 M176.3,170.6l-49.5,7 M251.6,543l-56.3-5.2 M94.9,216l-56.4,3.5 M118.5,267.3l-49.3-8.4 M140.9,377.8l-6.9-56.1 M66.6,757.7
		l52.8,20.2 M134,321.7l-54.8-13.8 M75.5,813.5l43.9-35.6 M212.6,437.3l-32.6,46.1 M134,321.7l-15.4-54.4 M250.2,636.2l38.1,41.7
		 M250.2,636.2l-56.4,3.5 M246,96.2l3.7-49.8 M94.9,216l-31.3-47.1 M207.6,217.6l23.6,51.3 M305.4,624.1l-55.2,12.2 M179.9,483.5
		l-49.3-8.4 M263.9,222.8l-56.3-5.2 M193.4,116.7l-36.5-34.2 M305.4,624.1l-17.1,53.9 M63.7,168.9l-25.1,50.6 M250.2,636.2
		L219,589.2 M207.6,217.6L182,260.5 M151.2,221.2l-24.3-43.6 M193.8,639.8l30.8,39.4 M168.2,749.5l8.5-55.9"/>
	<path class="st1" d="M219,589.2l-49.3-8.4l25.6-42.9l-37.5,33.1L140.6,524l-9.9-49l25.6-42.9l-37.5,33.1l-17.3-46.9l-9.9-49
		l49.3,8.4l-44.4-23l-17.3-46.9l-9.9-49l-30.8-39.4l-24.3-43.6l49.5-7l50,0.7L94.9,216l31.9-38.4l11.4-48.7l18.7-46.3l45-21.7
		l47.8-14.5l45.1,21.4l41.3,28.1l-41.1,28.4L250,146l-4-49.8l-11.4,48.7l-41.3-28.1l30.8,39.4l-47.8,14.5l50,0.7l-18.7,46.3
		l31.9-38.4l24.3,43.6l17.3,46.9l-50-0.7l-49.3-8.4l-30.8-39.4l17.3,46.9l-50-0.7l47.4,15.9L134,321.7l42.1-26.9l9.9,49l2.2,49.9
		l24.3,43.6l17.3,46.9l-50-0.7l47.4,15.9l24.3,43.6l17.3,46.9l36.5,34.2l30.8,39.4l-47.8,14.5l-49.5,7l11.4-48.7l-25.6,42.9
		l-3.7,49.8l-11.4,48.7L168.4,806l-45,21.7l-47.9-14.2L30.3,792l36.3-34.4l41.1-28.4l11.6,48.6l3.7-49.8l45.1,21.4l-36.5-34.2
		l45-21.7l-49.5,7l11.4-48.7L113,694.8l-30.8-39.4l-24.3-43.6l49.5-7l50,0.7l36.5,34.2l-24.3-43.6L219,589.2z"/>
</g>
</svg>
