<?xml version='1.0' encoding='ascii'?>
<svg xmlns="http://www.w3.org/2000/svg" xmlns:inkscape="http://www.inkscape.org/namespaces/inkscape" height="540" version="1.1" width="960">
    <g id="RenderLayer_LineSet" inkscape:groupmode="lineset" inkscape:label="RenderLayer_LineSet">
        <g id="strokes" inkscape:groupmode="layer" inkscape:label="strokes">
            <path d=" M 369.496, 171.863 373.507, 181.024 377.518, 190.184 381.528, 199.345 385.539, 208.505 389.550, 217.666 393.560, 226.826 397.571, 235.987 401.581, 245.147 405.592, 254.308 409.603, 263.468 413.613, 272.629 417.624, 281.789 421.634, 290.950 425.645, 300.110 429.656, 309.271 432.113, 314.884 " fill="none" stroke="rgb(0, 0, 0)" stroke-linecap="round" stroke-linejoin="round" stroke-opacity="1.0" stroke-width="3.0" />
            <path d=" M 345.634, 386.806 353.323, 380.411 361.011, 374.017 368.700, 367.623 376.388, 361.229 384.077, 354.834 391.765, 348.440 399.454, 342.046 407.142, 335.651 414.831, 329.257 422.519, 322.863 430.208, 316.469 432.113, 314.884 442.112, 315.017 452.111, 315.150 462.111, 315.283 463.589, 315.302 " fill="none" stroke="rgb(0, 0, 0)" stroke-linecap="round" stroke-linejoin="round" stroke-opacity="1.0" stroke-width="3.0" />
            <path d=" M 463.589, 315.302 460.789, 305.702 457.989, 296.102 455.190, 286.502 452.390, 276.902 449.590, 267.302 446.790, 257.702 443.990, 248.102 441.190, 238.502 438.391, 228.902 435.591, 219.302 432.791, 209.702 432.366, 208.247 427.067, 199.766 421.767, 191.286 416.468, 182.806 411.169, 174.325 405.869, 165.845 400.570, 157.365 395.270, 148.884 389.971, 140.404 384.671, 131.924 380.101, 124.610 370.179, 123.358 360.258, 122.106 350.337, 120.854 340.415, 119.602 330.494, 118.350 320.573, 117.098 310.651, 115.846 300.730, 114.594 290.809, 113.342 280.887, 112.090 270.966, 110.838 268.611, 110.541 260.059, 115.725 251.508, 120.908 242.957, 126.092 234.405, 131.276 225.854, 136.460 217.302, 141.644 208.751, 146.828 200.199, 152.011 191.648, 157.195 183.096, 162.379 180.144, 164.169 173.632, 171.758 167.120, 179.347 160.608, 186.936 154.096, 194.525 147.584, 202.114 141.072, 209.703 134.560, 217.292 128.048, 224.881 121.536, 232.470 115.024, 240.059 110.400, 245.449 113.200, 255.049 115.999, 264.649 118.799, 274.249 121.599, 283.849 124.399, 293.449 127.199, 303.049 129.999, 312.649 132.798, 322.249 135.598, 331.849 138.398, 341.449 141.198, 351.049 141.622, 352.504 146.922, 360.985 152.221, 369.465 157.521, 377.945 162.820, 386.426 168.120, 394.906 173.419, 403.386 178.719, 411.867 184.018, 420.347 189.317, 428.827 193.888, 436.141 203.809, 437.393 213.731, 438.645 223.652, 439.897 233.573, 441.149 243.495, 442.401 253.416, 443.653 263.337, 444.905 273.259, 446.157 283.180, 447.409 293.101, 448.661 303.023, 449.913 305.378, 450.210 313.929, 445.026 322.481, 439.843 331.032, 434.659 339.584, 429.475 348.135, 424.291 356.687, 419.107 365.238, 413.923 373.790, 408.740 382.341, 403.556 390.893, 398.372 393.845, 396.582 400.357, 388.993 406.869, 381.404 413.381, 373.815 419.893, 366.226 426.405, 358.637 432.917, 351.048 439.429, 343.459 445.941, 335.870 452.453, 328.281 458.965, 320.692 463.589, 315.302 " fill="none" stroke="rgb(0, 0, 0)" stroke-linecap="round" stroke-linejoin="round" stroke-opacity="1.0" stroke-width="3.0" />
            <path d=" M 380.101, 124.610 377.911, 134.367 375.721, 144.124 373.532, 153.882 371.342, 163.639 369.496, 171.863 359.742, 174.066 349.988, 176.270 340.234, 178.473 330.480, 180.677 320.725, 182.880 310.971, 185.084 301.217, 187.287 291.463, 189.490 281.708, 191.694 271.954, 193.897 262.146, 196.113 " fill="none" stroke="rgb(0, 0, 0)" stroke-linecap="round" stroke-linejoin="round" stroke-opacity="1.0" stroke-width="3.0" />
            <path d=" M 255.433, 315.502 263.278, 321.704 271.123, 327.905 278.968, 334.106 286.813, 340.308 294.658, 346.509 302.502, 352.711 310.347, 358.912 318.192, 365.113 326.037, 371.315 333.882, 377.516 341.727, 383.717 345.634, 386.806 340.274, 395.248 334.914, 403.690 329.554, 412.132 324.194, 420.574 318.834, 429.017 313.474, 437.459 308.114, 445.901 305.378, 450.210 " fill="none" stroke="rgb(0, 0, 0)" stroke-linecap="round" stroke-linejoin="round" stroke-opacity="1.0" stroke-width="3.0" />
            <path d=" M 180.144, 164.169 189.462, 167.799 198.780, 171.428 208.098, 175.058 217.416, 178.688 226.734, 182.318 236.052, 185.948 245.370, 189.578 254.688, 193.208 262.146, 196.113 261.584, 206.097 261.023, 216.081 260.462, 226.066 259.900, 236.050 259.339, 246.034 258.777, 256.018 258.216, 266.003 257.655, 275.987 257.093, 285.971 256.532, 295.955 255.970, 305.939 255.433, 315.502 245.923, 318.594 236.413, 321.686 226.903, 324.778 217.393, 327.870 207.883, 330.962 198.373, 334.054 188.863, 337.146 179.353, 340.238 169.843, 343.329 160.333, 346.421 150.823, 349.513 141.622, 352.504 " fill="none" stroke="rgb(0, 0, 0)" stroke-linecap="round" stroke-linejoin="round" stroke-opacity="1.0" stroke-width="3.0" />
            <path d=" M 717.774, 440.033 727.510, 437.753 737.247, 435.474 746.984, 433.194 756.721, 430.915 766.457, 428.635 776.194, 426.356 785.931, 424.076 795.667, 421.797 805.404, 419.517 807.890, 418.935 812.372, 409.996 816.854, 401.056 821.336, 392.117 825.818, 383.178 830.300, 374.238 834.782, 365.299 839.264, 356.360 843.746, 347.420 845.149, 344.622 848.967, 335.380 852.785, 326.137 856.603, 316.895 860.421, 307.653 864.239, 298.410 868.057, 289.168 871.874, 279.925 875.692, 270.683 879.510, 261.440 881.978, 255.467 876.836, 246.890 871.695, 238.313 866.554, 229.736 861.413, 221.159 856.272, 212.582 851.130, 204.004 845.989, 195.427 840.848, 186.850 835.707, 178.273 830.566, 169.696 825.424, 161.118 822.928, 156.953 814.789, 151.142 806.651, 145.331 798.513, 139.520 790.375, 133.709 782.236, 127.898 774.098, 122.087 772.616, 121.029 762.627, 120.572 752.637, 120.116 742.648, 119.659 732.658, 119.202 722.669, 118.745 712.679, 118.289 702.689, 117.832 692.700, 117.375 682.710, 116.918 672.721, 116.462 670.337, 116.353 661.767, 121.506 653.197, 126.659 644.627, 131.812 636.056, 136.965 627.486, 142.118 618.916, 147.271 610.346, 152.424 601.776, 157.577 593.206, 162.730 584.636, 167.883 581.865, 169.550 576.646, 178.079 571.426, 186.609 566.207, 195.139 560.988, 203.669 555.768, 212.199 550.549, 220.729 545.330, 229.259 540.111, 237.789 534.891, 246.318 529.672, 254.848 524.833, 262.757 526.656, 272.589 528.479, 282.422 530.302, 292.254 532.125, 302.087 533.947, 311.919 535.740, 321.585 541.019, 330.078 546.298, 338.571 551.578, 347.064 556.857, 355.556 562.136, 364.049 567.416, 372.542 572.695, 381.035 577.975, 389.528 583.254, 398.021 587.887, 405.473 597.551, 408.045 607.215, 410.616 616.878, 413.187 626.542, 415.759 636.206, 418.330 645.870, 420.901 655.533, 423.472 665.197, 426.044 674.861, 428.615 684.525, 431.186 694.189, 433.757 703.852, 436.329 713.516, 438.900 717.774, 440.033 " fill="none" stroke="rgb(0, 0, 0)" stroke-linecap="round" stroke-linejoin="round" stroke-opacity="1.0" stroke-width="3.0" />
            <path d=" M 845.149, 344.622 835.392, 342.431 825.635, 340.239 815.878, 338.047 806.121, 335.855 796.365, 333.664 786.608, 331.472 776.851, 329.280 767.094, 327.088 764.015, 326.397 " fill="none" stroke="rgb(0, 0, 0)" stroke-linecap="round" stroke-linejoin="round" stroke-opacity="1.0" stroke-width="3.0" />
            <path d=" M 734.456, 210.150 736.920, 219.842 739.385, 229.533 741.849, 239.225 744.313, 248.916 746.778, 258.608 749.242, 268.299 751.707, 277.991 754.171, 287.683 756.635, 297.374 759.100, 307.066 761.564, 316.757 764.015, 326.397 756.011, 332.392 748.008, 338.387 740.004, 344.382 732.001, 350.377 723.997, 356.372 715.993, 362.368 708.922, 367.664 " fill="none" stroke="rgb(0, 0, 0)" stroke-linecap="round" stroke-linejoin="round" stroke-opacity="1.0" stroke-width="3.0" />
            <path d=" M 607.081, 305.561 615.619, 310.767 624.156, 315.973 632.694, 321.180 641.232, 326.386 649.770, 331.593 658.307, 336.799 666.845, 342.005 675.383, 347.212 683.921, 352.418 692.458, 357.625 700.996, 362.831 708.922, 367.664 710.136, 377.590 711.350, 387.516 712.564, 397.442 713.778, 407.368 714.992, 417.294 716.206, 427.220 717.421, 437.147 717.774, 440.033 " fill="none" stroke="rgb(0, 0, 0)" stroke-linecap="round" stroke-linejoin="round" stroke-opacity="1.0" stroke-width="3.0" />
            <path d=" M 632.176, 205.474 629.744, 215.173 627.312, 224.873 624.880, 234.573 622.448, 244.273 620.016, 253.972 617.584, 263.672 615.152, 273.372 612.720, 283.072 610.288, 292.771 607.856, 302.471 607.081, 305.561 597.324, 307.752 587.567, 309.944 577.810, 312.135 568.053, 314.327 558.296, 316.518 548.539, 318.710 538.783, 320.902 535.740, 321.585 " fill="none" stroke="rgb(0, 0, 0)" stroke-linecap="round" stroke-linejoin="round" stroke-opacity="1.0" stroke-width="3.0" />
            <path d=" M 822.928, 156.953 814.358, 162.106 805.788, 167.259 797.217, 172.412 788.647, 177.565 780.077, 182.718 771.507, 187.871 762.937, 193.025 754.367, 198.178 745.797, 203.331 737.227, 208.484 734.456, 210.150 724.466, 209.693 714.477, 209.236 704.487, 208.780 694.498, 208.323 684.508, 207.866 674.519, 207.410 664.529, 206.953 654.539, 206.496 644.550, 206.039 634.560, 205.583 632.176, 205.474 624.038, 199.663 615.900, 193.852 607.761, 188.041 599.623, 182.230 591.485, 176.418 583.346, 170.607 581.865, 169.550 " fill="none" stroke="rgb(0, 0, 0)" stroke-linecap="round" stroke-linejoin="round" stroke-opacity="1.0" stroke-width="3.0" />
        </g>
    </g>
    <g id="RenderLayer_LineSet 2" inkscape:groupmode="lineset" inkscape:label="RenderLayer_LineSet 2" xmlns:inkscape="http://www.inkscape.org/namespaces/inkscape">
        <g id="strokes" inkscape:groupmode="layer" inkscape:label="strokes" xmlns:inkscape="http://www.inkscape.org/namespaces/inkscape">
            <path d=" M 393.845, 396.582 384.527, 392.953 375.209, 389.323 365.891, 385.693 356.573, 382.063 347.255, 378.433 337.937, 374.803 328.619, 371.173 319.301, 367.543 311.843, 364.638 " fill="none" stroke="rgb(0, 0, 0)" stroke-dasharray="10,10" stroke-linecap="butt" stroke-linejoin="round" stroke-opacity="1.0" stroke-width="1.0" />
            <path d=" M 204.492, 388.888 214.247, 386.685 224.001, 384.481 233.755, 382.278 243.509, 380.074 253.263, 377.871 263.018, 375.667 272.772, 373.464 282.526, 371.261 292.280, 369.057 302.035, 366.854 311.843, 364.638 312.404, 354.654 312.966, 344.670 313.527, 334.685 314.089, 324.701 314.650, 314.717 315.211, 304.733 315.773, 294.749 316.334, 284.764 316.895, 274.780 317.457, 264.796 318.018, 254.812 318.556, 245.249 " fill="none" stroke="rgb(0, 0, 0)" stroke-dasharray="10,10" stroke-linecap="butt" stroke-linejoin="round" stroke-opacity="1.0" stroke-width="1.0" />
            <path d=" M 228.355, 173.945 236.199, 180.147 244.044, 186.348 251.889, 192.549 259.734, 198.751 267.579, 204.952 275.424, 211.153 283.269, 217.355 291.114, 223.556 298.959, 229.757 306.804, 235.959 314.649, 242.160 318.556, 245.249 328.066, 242.157 337.576, 239.065 347.086, 235.973 356.596, 232.881 366.106, 229.789 375.616, 226.697 385.126, 223.605 394.636, 220.513 404.146, 217.422 413.656, 214.330 423.166, 211.238 432.366, 208.247 " fill="none" stroke="rgb(0, 0, 0)" stroke-dasharray="10,10" stroke-linecap="butt" stroke-linejoin="round" stroke-opacity="1.0" stroke-width="1.0" />
            <path d=" M 141.876, 245.867 149.564, 239.473 157.253, 233.079 164.941, 226.684 172.630, 220.290 180.318, 213.896 188.007, 207.501 195.695, 201.107 203.384, 194.713 211.072, 188.319 218.761, 181.924 226.449, 175.530 228.355, 173.945 233.715, 165.503 239.075, 157.061 244.435, 148.619 249.795, 140.177 255.155, 131.734 260.515, 123.292 265.875, 114.850 268.611, 110.541 " fill="none" stroke="rgb(0, 0, 0)" stroke-dasharray="10,10" stroke-linecap="butt" stroke-linejoin="round" stroke-opacity="1.0" stroke-width="1.0" />
            <path d=" M 193.888, 436.141 196.078, 426.384 198.267, 416.627 200.457, 406.870 202.647, 397.112 204.492, 388.888 200.482, 379.727 196.471, 370.567 192.460, 361.406 188.450, 352.246 184.439, 343.085 180.429, 333.925 176.418, 324.764 172.407, 315.604 168.397, 306.443 164.386, 297.283 160.376, 288.122 156.365, 278.962 152.354, 269.801 148.344, 260.641 144.333, 251.480 141.876, 245.867 131.876, 245.734 121.877, 245.601 111.878, 245.468 110.400, 245.449 " fill="none" stroke="rgb(0, 0, 0)" stroke-dasharray="10,10" stroke-linecap="butt" stroke-linejoin="round" stroke-opacity="1.0" stroke-width="1.0" />
            <path d=" M 601.708, 364.076 611.444, 361.796 621.181, 359.516 630.918, 357.237 640.654, 354.957 650.391, 352.678 660.128, 350.398 669.865, 348.119 679.601, 345.839 689.338, 343.560 691.824, 342.978 " fill="none" stroke="rgb(0, 0, 0)" stroke-dasharray="10,10" stroke-linecap="butt" stroke-linejoin="round" stroke-opacity="1.0" stroke-width="1.0" />
            <path d=" M 698.658, 223.625 698.086, 233.609 697.514, 243.592 696.943, 253.576 696.371, 263.559 695.799, 273.543 695.228, 283.527 694.656, 293.510 694.084, 303.494 693.513, 313.478 692.941, 323.461 692.370, 333.445 691.824, 342.978 701.488, 345.549 711.151, 348.120 720.815, 350.692 730.479, 353.263 740.143, 355.834 749.806, 358.405 759.470, 360.977 769.134, 363.548 778.798, 366.119 788.462, 368.691 798.125, 371.262 807.789, 373.833 817.453, 376.404 821.710, 377.537 " fill="none" stroke="rgb(0, 0, 0)" stroke-dasharray="10,10" stroke-linecap="butt" stroke-linejoin="round" stroke-opacity="1.0" stroke-width="1.0" />
            <path d=" M 871.840, 269.704 867.624, 278.772 863.409, 287.840 859.193, 296.908 854.978, 305.976 850.762, 315.044 846.547, 324.112 842.331, 333.180 838.116, 342.248 833.900, 351.316 829.684, 360.384 825.469, 369.452 821.710, 377.537 818.544, 387.023 815.377, 396.508 812.210, 405.993 809.044, 415.479 807.890, 418.935 " fill="none" stroke="rgb(0, 0, 0)" stroke-dasharray="10,10" stroke-linecap="butt" stroke-linejoin="round" stroke-opacity="1.0" stroke-width="1.0" />
            <path d=" M 587.887, 405.473 591.054, 395.988 594.220, 386.503 597.387, 377.017 600.554, 367.532 601.708, 364.076 597.893, 354.831 594.079, 345.587 590.265, 336.343 586.451, 327.099 582.637, 317.855 578.823, 308.611 575.009, 299.367 571.195, 290.123 567.381, 280.879 563.567, 271.635 562.671, 269.463 " fill="none" stroke="rgb(0, 0, 0)" stroke-dasharray="10,10" stroke-linecap="butt" stroke-linejoin="round" stroke-opacity="1.0" stroke-width="1.0" />
            <path d=" M 642.795, 191.828 651.486, 196.774 660.177, 201.721 668.868, 206.668 677.558, 211.615 686.249, 216.562 694.940, 221.509 698.658, 223.625 708.140, 220.450 717.623, 217.276 727.106, 214.101 736.588, 210.926 746.071, 207.752 755.554, 204.577 765.036, 201.402 774.519, 198.228 784.002, 195.053 793.484, 191.878 799.490, 189.868 " fill="none" stroke="rgb(0, 0, 0)" stroke-dasharray="10,10" stroke-linecap="butt" stroke-linejoin="round" stroke-opacity="1.0" stroke-width="1.0" />
            <path d=" M 772.616, 121.029 776.253, 130.344 779.889, 139.660 783.526, 148.975 787.162, 158.290 790.799, 167.606 794.436, 176.921 798.072, 186.236 799.490, 189.868 806.205, 197.278 812.920, 204.688 819.635, 212.098 826.350, 219.508 833.065, 226.918 839.780, 234.327 846.496, 241.737 853.211, 249.147 859.926, 256.557 866.641, 263.967 871.840, 269.704 877.640, 261.558 881.978, 255.467 " fill="none" stroke="rgb(0, 0, 0)" stroke-dasharray="10,10" stroke-linecap="butt" stroke-linejoin="round" stroke-opacity="1.0" stroke-width="1.0" />
            <path d=" M 524.833, 262.757 534.680, 264.502 544.526, 266.247 554.373, 267.992 562.671, 269.463 569.852, 262.504 577.034, 255.545 584.216, 248.587 591.398, 241.628 598.580, 234.669 605.761, 227.711 612.943, 220.752 620.125, 213.794 627.307, 206.835 634.488, 199.876 641.670, 192.918 642.795, 191.828 646.223, 182.433 649.651, 173.039 653.079, 163.645 656.507, 154.251 659.935, 144.857 663.363, 135.463 666.791, 126.069 670.337, 116.353 " fill="none" stroke="rgb(0, 0, 0)" stroke-dasharray="10,10" stroke-linecap="butt" stroke-linejoin="round" stroke-opacity="1.0" stroke-width="1.0" />
        </g>
    </g>
</svg>
