<?xml version='1.0' encoding='ascii'?>
<svg xmlns="http://www.w3.org/2000/svg" height="540" version="1.1" width="960">
    <g id="RenderLayer_LineSet" inkscape:groupmode="lineset" inkscape:label="RenderLayer_LineSet" xmlns:inkscape="http://www.inkscape.org/namespaces/inkscape">
        <g id="strokes" inkscape:groupmode="layer" inkscape:label="strokes" xmlns:inkscape="http://www.inkscape.org/namespaces/inkscape">
            <path d=" M 951.113, 392.486 948.268, 382.900 945.423, 373.313 942.578, 363.726 939.733, 354.139 936.888, 344.553 934.043, 334.966 933.064, 331.668 " fill="none" stroke="rgb(0, 0, 0)" stroke-linecap="butt" stroke-linejoin="round" stroke-opacity="1.0" stroke-width="3.0" />
            <path d=" M 940.070, 398.804 948.750, 393.838 951.113, 392.486 961.081, 391.682 971.048, 390.878 981.016, 390.074 990.452, 389.312 " fill="none" stroke="rgb(0, 0, 0)" stroke-linecap="butt" stroke-linejoin="round" stroke-opacity="1.0" stroke-width="3.0" />
            <path d=" M 973.562, 115.203 966.167, 108.472 958.772, 101.740 951.377, 95.008 950.679, 94.373 947.673, 91.637 939.094, 86.500 930.514, 81.363 924.145, 77.549 915.565, 72.411 914.155, 71.567 913.096, 70.933 904.517, 65.796 904.138, 65.569 900.178, 66.837 890.654, 69.885 881.131, 72.934 871.607, 75.983 869.358, 76.703 860.278, 79.609 855.417, 81.166 845.893, 84.214 836.369, 87.263 826.845, 90.312 823.492, 91.385 813.968, 94.434 808.523, 96.177 808.416, 96.476 806.205, 102.640 802.957, 111.695 799.581, 121.108 798.672, 123.643 795.838, 131.541 792.879, 141.094 789.920, 150.646 789.405, 152.310 786.446, 161.862 784.618, 167.760 782.810, 173.596 782.282, 175.971 781.065, 181.442 " fill="none" stroke="rgb(0, 0, 0)" stroke-linecap="butt" stroke-linejoin="round" stroke-opacity="1.0" stroke-width="3.0" />
            <path d=" M 808.523, 96.177 808.429, 96.506 805.673, 106.118 802.917, 115.731 800.161, 125.344 797.405, 134.956 795.894, 140.225 " fill="none" stroke="rgb(0, 0, 0)" stroke-linecap="butt" stroke-linejoin="round" stroke-opacity="1.0" stroke-width="3.0" />
            <path d=" M 781.274, 184.679 782.112, 182.131 785.236, 172.631 788.360, 163.132 791.485, 153.632 794.609, 144.133 795.894, 140.225 804.474, 145.362 813.053, 150.499 821.633, 155.637 830.271, 160.809 " fill="none" stroke="rgb(0, 0, 0)" stroke-linecap="butt" stroke-linejoin="round" stroke-opacity="1.0" stroke-width="3.0" />
            <path d=" M 817.887, 253.174 827.026, 249.114 827.428, 248.935 " fill="none" stroke="rgb(0, 0, 0)" stroke-linecap="butt" stroke-linejoin="round" stroke-opacity="1.0" stroke-width="3.0" />
            <path d=" M 782.210, 199.170 787.722, 207.514 793.234, 215.858 793.503, 216.265 799.015, 224.609 804.527, 232.952 810.040, 241.296 810.443, 241.907 815.956, 250.251 817.887, 253.174 825.850, 259.223 830.793, 262.977 " fill="none" stroke="rgb(0, 0, 0)" stroke-linecap="butt" stroke-linejoin="round" stroke-opacity="1.0" stroke-width="3.0" />
            <path d=" M 768.105, 390.866 761.936, 382.995 757.947, 377.904 " fill="none" stroke="rgb(0, 0, 0)" stroke-linecap="butt" stroke-linejoin="round" stroke-opacity="1.0" stroke-width="3.0" />
            <path d=" M 872.086, 320.392 863.378, 318.675 853.567, 316.740 843.742, 314.803 836.312, 313.337 827.173, 317.398 818.747, 321.141 809.916, 325.065 802.904, 332.195 800.330, 334.812 793.317, 341.942 786.305, 349.071 779.293, 356.201 772.281, 363.330 765.269, 370.460 758.118, 377.730 757.947, 377.904 758.295, 379.359 760.328, 387.841 762.659, 397.566 765.015, 407.399 767.346, 417.124 769.676, 426.848 772.007, 436.573 774.337, 446.298 775.977, 453.140 779.389, 462.540 782.802, 471.940 786.214, 481.339 789.626, 490.739 793.039, 500.139 796.451, 509.539 796.725, 510.295 802.894, 518.166 806.883, 523.256 816.758, 524.829 826.634, 526.402 836.510, 527.975 846.385, 529.548 856.261, 531.121 866.136, 532.694 876.012, 534.267 882.400, 535.284 892.255, 533.585 902.110, 531.886 904.590, 531.459 911.524, 524.254 918.459, 517.049 925.393, 509.844 932.328, 502.638 939.262, 495.433 946.196, 488.228 953.131, 481.023 957.939, 476.028 956.871, 466.085 955.802, 456.142 955.074, 449.363 952.229, 439.776 952.042, 439.144 949.197, 429.558 946.352, 419.971 943.507, 410.384 940.661, 400.797 940.070, 398.804 937.225, 389.217 936.757, 387.641 932.724, 378.490 928.690, 369.340 927.636, 366.948 923.602, 357.797 919.569, 348.647 915.536, 339.496 912.806, 333.303 " fill="none" stroke="rgb(0, 0, 0)" stroke-linecap="butt" stroke-linejoin="round" stroke-opacity="1.0" stroke-width="3.0" />
            <path d=" M 806.883, 523.256 804.552, 513.531 802.222, 503.807 799.891, 494.082 797.561, 484.357 795.231, 474.633 792.900, 464.908 790.570, 455.183 788.853, 448.020 " fill="none" stroke="rgb(0, 0, 0)" stroke-linecap="butt" stroke-linejoin="round" stroke-opacity="1.0" stroke-width="3.0" />
            <path d=" M 858.360, 434.970 848.532, 436.815 838.704, 438.660 828.876, 440.506 819.047, 442.351 809.219, 444.196 799.391, 446.042 789.563, 447.887 788.853, 448.020 785.441, 438.620 782.028, 429.221 778.616, 419.821 775.204, 410.421 772.760, 403.691 769.348, 394.291 768.105, 390.866 775.960, 384.677 783.815, 378.489 791.670, 372.300 792.168, 371.907 800.023, 365.719 807.879, 359.530 815.734, 353.342 818.973, 350.789 " fill="none" stroke="rgb(0, 0, 0)" stroke-linecap="butt" stroke-linejoin="round" stroke-opacity="1.0" stroke-width="3.0" />
            <path d=" M 882.400, 535.284 886.733, 526.272 891.066, 517.259 895.399, 508.246 899.732, 499.234 904.065, 490.221 906.637, 484.871 " fill="none" stroke="rgb(0, 0, 0)" stroke-linecap="butt" stroke-linejoin="round" stroke-opacity="1.0" stroke-width="3.0" />
            <path d=" M 955.074, 449.363 947.009, 455.275 938.944, 461.188 930.879, 467.100 922.814, 473.012 914.749, 478.924 906.637, 484.871 899.684, 477.684 892.731, 470.497 885.778, 463.310 878.824, 456.123 871.871, 448.936 864.918, 441.749 858.360, 434.970 861.320, 425.418 861.641, 424.380 864.600, 414.828 867.559, 405.276 870.518, 395.724 871.388, 392.915 " fill="none" stroke="rgb(0, 0, 0)" stroke-linecap="butt" stroke-linejoin="round" stroke-opacity="1.0" stroke-width="3.0" />
            <path d=" M 936.757, 387.641 926.789, 388.445 916.822, 389.249 906.854, 390.053 896.887, 390.858 886.919, 391.662 876.951, 392.466 871.388, 392.915 863.594, 386.650 855.799, 380.386 848.004, 374.121 840.210, 367.857 832.415, 361.592 824.620, 355.328 821.742, 353.014 818.973, 350.789 821.019, 346.371 825.220, 337.296 829.421, 328.221 833.622, 319.146 836.312, 313.337 " fill="none" stroke="rgb(0, 0, 0)" stroke-linecap="butt" stroke-linejoin="round" stroke-opacity="1.0" stroke-width="3.0" />
            <path d=" M 951.029, 2.959 959.608, 8.096 968.188, 13.234 976.767, 18.371 985.347, 23.508 993.926, 28.646 994.564, 29.027 " fill="none" stroke="rgb(0, 0, 0)" stroke-linecap="butt" stroke-linejoin="round" stroke-opacity="1.0" stroke-width="3.0" />
            <path d=" M 949.976, -13.336 950.621, -3.357 951.029, 2.959 951.284, 3.294 953.741, 6.516 959.805, 14.468 965.868, 22.420 969.599, 27.312 " fill="none" stroke="rgb(0, 0, 0)" stroke-linecap="butt" stroke-linejoin="round" stroke-opacity="1.0" stroke-width="3.0" />
            <path d=" M 635.113, 337.543 634.031, 327.602 633.315, 321.022 " fill="none" stroke="rgb(0, 0, 0)" stroke-linecap="butt" stroke-linejoin="round" stroke-opacity="1.0" stroke-width="3.0" />
            <path d=" M 728.659, 424.807 726.329, 415.082 723.999, 405.358 721.668, 395.633 719.338, 385.908 717.007, 376.184 714.677, 366.459 712.346, 356.734 710.630, 349.571 " fill="none" stroke="rgb(0, 0, 0)" stroke-linecap="butt" stroke-linejoin="round" stroke-opacity="1.0" stroke-width="3.0" />
            <path d=" M 756.367, 303.068 749.355, 310.197 742.343, 317.327 735.331, 324.456 728.319, 331.586 721.307, 338.715 714.294, 345.845 710.630, 349.571 700.754, 347.998 690.878, 346.425 681.003, 344.852 671.127, 343.279 661.252, 341.706 651.376, 340.133 641.501, 338.561 635.113, 337.543 630.780, 346.556 626.447, 355.568 622.114, 364.581 617.781, 373.593 613.448, 382.606 611.257, 387.164 " fill="none" stroke="rgb(0, 0, 0)" stroke-linecap="butt" stroke-linejoin="round" stroke-opacity="1.0" stroke-width="3.0" />
            <path d=" M 713.333, 427.684 723.161, 425.839 728.659, 424.807 737.679, 420.488 746.698, 416.170 755.718, 411.851 765.015, 407.399 " fill="none" stroke="rgb(0, 0, 0)" stroke-linecap="butt" stroke-linejoin="round" stroke-opacity="1.0" stroke-width="3.0" />
            <path d=" M 802.106, 326.739 794.142, 320.691 786.179, 314.642 778.215, 308.594 770.252, 302.545 763.520, 297.432 " fill="none" stroke="rgb(0, 0, 0)" stroke-linecap="butt" stroke-linejoin="round" stroke-opacity="1.0" stroke-width="3.0" />
            <path d=" M 800.330, 334.812 802.106, 326.739 798.072, 317.589 794.039, 308.438 790.005, 299.288 785.972, 290.137 781.939, 280.987 778.225, 272.561 " fill="none" stroke="rgb(0, 0, 0)" stroke-linecap="butt" stroke-linejoin="round" stroke-opacity="1.0" stroke-width="3.0" />
            <path d=" M 893.401, 119.682 897.056, 127.974 901.089, 137.125 905.122, 146.275 909.156, 155.426 913.189, 164.576 917.223, 173.727 919.708, 179.365 " fill="none" stroke="rgb(0, 0, 0)" stroke-linecap="butt" stroke-linejoin="round" stroke-opacity="1.0" stroke-width="3.0" />
            <path d=" M 866.360, 234.797 873.294, 227.591 880.229, 220.386 887.163, 213.181 894.097, 205.976 901.032, 198.771 907.616, 191.929 914.551, 184.724 919.708, 179.365 929.519, 181.300 939.330, 183.235 949.141, 185.170 958.952, 187.105 968.763, 189.039 978.574, 190.974 988.385, 192.909 993.647, 193.947 " fill="none" stroke="rgb(0, 0, 0)" stroke-linecap="butt" stroke-linejoin="round" stroke-opacity="1.0" stroke-width="3.0" />
            <path d=" M 964.903, 119.339 958.769, 114.409 955.453, 114.676 945.486, 115.481 944.106, 115.592 940.727, 115.864 930.759, 116.669 920.792, 117.473 910.824, 118.277 900.857, 119.081 900.107, 119.141 897.445, 119.356 893.401, 119.682 888.676, 122.385 886.916, 123.392 878.236, 128.358 875.252, 130.065 866.572, 135.031 864.209, 136.383 855.529, 141.349 846.849, 146.315 838.169, 151.280 831.284, 155.220 830.614, 158.914 830.271, 160.809 828.488, 170.649 827.552, 175.816 826.986, 178.939 825.204, 188.778 824.316, 193.677 822.533, 203.517 820.833, 212.900 819.955, 217.750 822.285, 227.475 822.693, 229.179 825.024, 238.903 827.354, 248.628 827.428, 248.935 829.758, 258.660 830.793, 262.977 833.123, 272.701 835.454, 282.426 836.088, 285.072 837.985, 292.986 845.779, 299.250 853.071, 305.110 859.773, 310.496 867.568, 316.761 872.086, 320.392 879.881, 326.656 885.407, 331.098 890.400, 335.110 900.367, 334.306 910.335, 333.502 911.039, 333.445 912.806, 333.303 922.773, 332.498 932.741, 331.694 933.064, 331.668 943.032, 330.864 952.999, 330.060 955.768, 329.837 964.448, 324.871 970.872, 321.196 " fill="none" stroke="rgb(0, 0, 0)" stroke-linecap="butt" stroke-linejoin="round" stroke-opacity="1.0" stroke-width="3.0" />
            <path d=" M 819.955, 217.750 829.341, 221.198 830.104, 221.478 839.491, 224.927 848.878, 228.375 858.264, 231.823 866.360, 234.797 871.282, 243.501 874.081, 248.452 879.003, 257.156 883.925, 265.861 888.847, 274.566 893.574, 282.926 898.496, 291.631 903.084, 299.747 " fill="none" stroke="rgb(0, 0, 0)" stroke-linecap="butt" stroke-linejoin="round" stroke-opacity="1.0" stroke-width="3.0" />
            <path d=" M 890.400, 335.110 893.776, 325.697 894.120, 324.737 897.497, 315.324 900.873, 305.912 903.084, 299.747 912.608, 296.698 922.132, 293.649 931.656, 290.600 941.180, 287.552 950.704, 284.503 960.228, 281.454 969.752, 278.405 979.276, 275.356 988.800, 272.308 997.119, 269.644 " fill="none" stroke="rgb(0, 0, 0)" stroke-linecap="butt" stroke-linejoin="round" stroke-opacity="1.0" stroke-width="3.0" />
            <path d=" M 525.467, 528.745 522.622, 519.158 519.777, 509.571 516.932, 499.984 514.087, 490.398 511.242, 480.811 508.397, 471.224 507.418, 467.926 " fill="none" stroke="rgb(0, 0, 0)" stroke-linecap="butt" stroke-linejoin="round" stroke-opacity="1.0" stroke-width="3.0" />
            <path d=" M 514.424, 535.062 523.104, 530.097 525.467, 528.745 535.435, 527.940 545.402, 527.136 555.370, 526.332 564.806, 525.571 " fill="none" stroke="rgb(0, 0, 0)" stroke-linecap="butt" stroke-linejoin="round" stroke-opacity="1.0" stroke-width="3.0" />
            <path d=" M 561.860, 273.763 560.779, 263.821 560.700, 263.099 553.305, 256.368 547.916, 251.461 540.521, 244.730 533.126, 237.998 525.731, 231.267 525.033, 230.632 522.027, 227.895 513.448, 222.758 504.868, 217.621 498.499, 213.807 489.919, 208.670 488.509, 207.825 487.450, 207.191 478.871, 202.054 478.492, 201.827 474.532, 203.095 465.008, 206.144 455.485, 209.192 445.961, 212.241 443.712, 212.961 434.632, 215.868 429.771, 217.424 420.247, 220.473 410.723, 223.522 401.199, 226.570 397.846, 227.644 388.322, 230.692 382.877, 232.435 382.770, 232.734 380.559, 238.898 377.311, 247.953 373.935, 257.366 373.025, 259.901 370.192, 267.800 367.233, 277.352 364.274, 286.904 363.759, 288.568 360.800, 298.120 358.972, 304.019 357.164, 309.855 356.636, 312.229 355.419, 317.701 " fill="none" stroke="rgb(0, 0, 0)" stroke-linecap="butt" stroke-linejoin="round" stroke-opacity="1.0" stroke-width="3.0" />
            <path d=" M 382.877, 232.435 382.783, 232.764 380.027, 242.376 377.271, 251.989 374.515, 261.602 371.759, 271.215 370.248, 276.483 " fill="none" stroke="rgb(0, 0, 0)" stroke-linecap="butt" stroke-linejoin="round" stroke-opacity="1.0" stroke-width="3.0" />
            <path d=" M 355.628, 320.937 356.466, 318.389 359.590, 308.889 362.714, 299.390 365.839, 289.891 368.963, 280.391 370.248, 276.483 378.828, 281.620 387.407, 286.758 395.987, 291.895 404.625, 297.067 " fill="none" stroke="rgb(0, 0, 0)" stroke-linecap="butt" stroke-linejoin="round" stroke-opacity="1.0" stroke-width="3.0" />
            <path d=" M 392.241, 389.432 401.380, 385.372 401.782, 385.193 " fill="none" stroke="rgb(0, 0, 0)" stroke-linecap="butt" stroke-linejoin="round" stroke-opacity="1.0" stroke-width="3.0" />
            <path d=" M 356.564, 335.429 362.076, 343.772 367.588, 352.116 367.857, 352.523 373.369, 360.867 378.882, 369.210 384.394, 377.554 384.797, 378.165 390.310, 386.509 392.241, 389.432 400.204, 395.481 405.147, 399.235 " fill="none" stroke="rgb(0, 0, 0)" stroke-linecap="butt" stroke-linejoin="round" stroke-opacity="1.0" stroke-width="3.0" />
            <path d=" M 342.459, 527.124 336.290, 519.253 332.301, 514.163 " fill="none" stroke="rgb(0, 0, 0)" stroke-linecap="butt" stroke-linejoin="round" stroke-opacity="1.0" stroke-width="3.0" />
            <path d=" M 446.440, 456.650 437.732, 454.933 427.921, 452.998 418.096, 451.061 410.666, 449.595 401.527, 453.656 393.101, 457.400 384.270, 461.323 377.258, 468.453 374.684, 471.070 367.671, 478.200 360.659, 485.330 353.647, 492.459 346.635, 499.589 339.623, 506.718 332.472, 513.988 332.301, 514.163 332.649, 515.616 334.682, 524.099 337.013, 533.824 339.369, 543.657 " fill="none" stroke="rgb(0, 0, 0)" stroke-linecap="butt" stroke-linejoin="round" stroke-opacity="1.0" stroke-width="3.0" />
            <path d=" M 363.207, 584.278 359.795, 574.879 356.382, 565.479 352.970, 556.079 349.558, 546.679 347.114, 539.949 343.702, 530.549 342.459, 527.124 350.314, 520.935 358.169, 514.747 366.024, 508.558 366.522, 508.165 374.378, 501.977 382.233, 495.788 390.088, 489.600 393.327, 487.048 " fill="none" stroke="rgb(0, 0, 0)" stroke-linecap="butt" stroke-linejoin="round" stroke-opacity="1.0" stroke-width="3.0" />
            <path d=" M 445.742, 529.173 437.948, 522.909 430.153, 516.644 422.358, 510.380 414.564, 504.115 406.769, 497.851 398.975, 491.586 396.096, 489.273 393.327, 487.048 395.373, 482.629 399.574, 473.554 403.775, 464.480 407.976, 455.405 410.666, 449.595 " fill="none" stroke="rgb(0, 0, 0)" stroke-linecap="butt" stroke-linejoin="round" stroke-opacity="1.0" stroke-width="3.0" />
            <path d=" M 511.111, 523.899 501.143, 524.703 491.176, 525.507 481.208, 526.311 471.241, 527.116 461.273, 527.920 451.305, 528.724 445.742, 529.173 442.783, 538.725 439.824, 548.277 436.865, 557.829 435.995, 560.638 " fill="none" stroke="rgb(0, 0, 0)" stroke-linecap="butt" stroke-linejoin="round" stroke-opacity="1.0" stroke-width="3.0" />
            <path d=" M 526.396, 575.402 523.551, 565.816 520.706, 556.229 517.861, 546.642 515.016, 537.055 514.424, 535.062 511.579, 525.475 511.111, 523.899 507.078, 514.748 503.044, 505.598 501.990, 503.206 497.957, 494.055 493.923, 484.905 489.890, 475.754 487.160, 469.561 " fill="none" stroke="rgb(0, 0, 0)" stroke-linecap="butt" stroke-linejoin="round" stroke-opacity="1.0" stroke-width="3.0" />
            <path d=" M 572.155, 504.357 568.121, 495.207 564.088, 486.056 560.055, 476.906 556.021, 467.755 551.988, 458.605 550.221, 454.596 " fill="none" stroke="rgb(0, 0, 0)" stroke-linecap="butt" stroke-linejoin="round" stroke-opacity="1.0" stroke-width="3.0" />
            <path d=" M 547.105, 456.379 548.173, 466.322 548.712, 471.339 551.557, 480.925 554.402, 490.512 555.301, 493.543 558.146, 503.130 560.991, 512.716 563.836, 522.303 564.806, 525.571 567.029, 533.061 571.062, 542.212 575.096, 551.362 578.245, 558.506 " fill="none" stroke="rgb(0, 0, 0)" stroke-linecap="butt" stroke-linejoin="round" stroke-opacity="1.0" stroke-width="3.0" />
            <path d=" M 583.717, 543.317 580.872, 533.730 578.027, 524.144 575.182, 514.557 572.337, 504.970 572.155, 504.357 580.835, 499.392 589.515, 494.426 598.195, 489.460 602.056, 487.251 610.736, 482.286 619.416, 477.320 628.096, 472.354 634.273, 468.820 " fill="none" stroke="rgb(0, 0, 0)" stroke-linecap="butt" stroke-linejoin="round" stroke-opacity="1.0" stroke-width="3.0" />
            <path d=" M 669.830, 495.322 661.812, 489.346 653.794, 483.370 645.776, 477.394 637.758, 471.418 634.273, 468.820 636.055, 458.981 637.838, 449.141 639.621, 439.301 641.403, 429.461 642.922, 421.080 644.704, 411.240 645.601, 406.290 " fill="none" stroke="rgb(0, 0, 0)" stroke-linecap="butt" stroke-linejoin="round" stroke-opacity="1.0" stroke-width="3.0" />
            <path d=" M 707.061, 410.407 697.083, 409.739 687.105, 409.070 677.128, 408.402 667.150, 407.733 657.173, 407.065 647.195, 406.396 645.601, 406.290 636.214, 402.841 626.828, 399.393 619.247, 396.608 609.860, 393.160 600.474, 389.712 599.691, 389.425 " fill="none" stroke="rgb(0, 0, 0)" stroke-linecap="butt" stroke-linejoin="round" stroke-opacity="1.0" stroke-width="3.0" />
            <path d=" M 745.839, 542.797 743.509, 533.073 741.178, 523.348 738.848, 513.623 736.517, 503.899 734.187, 494.174 731.856, 484.449 729.526, 474.725 727.809, 467.562 724.397, 458.162 720.984, 448.762 717.572, 439.362 714.160, 429.963 713.333, 427.684 709.920, 418.285 707.061, 410.407 703.122, 405.381 696.903, 397.446 687.028, 395.873 677.152, 394.300 667.277, 392.727 657.401, 391.154 647.526, 389.581 644.429, 389.088 634.554, 387.515 624.678, 385.942 621.386, 385.418 611.531, 387.116 611.257, 387.164 610.578, 387.281 600.724, 388.979 599.741, 389.149 " fill="none" stroke="rgb(0, 0, 0)" stroke-linecap="butt" stroke-linejoin="round" stroke-opacity="1.0" stroke-width="3.0" />
            <path d=" M 654.363, 565.630 656.511, 555.863 658.660, 546.097 660.809, 536.330 662.957, 526.564 665.106, 516.797 667.254, 507.031 669.403, 497.264 669.830, 495.322 678.849, 491.004 687.869, 486.685 696.888, 482.367 705.908, 478.048 714.927, 473.730 723.947, 469.411 727.809, 467.562 " fill="none" stroke="rgb(0, 0, 0)" stroke-linecap="butt" stroke-linejoin="round" stroke-opacity="1.0" stroke-width="3.0" />
            <path d=" M 689.053, 214.122 681.198, 220.311 673.343, 226.499 673.108, 226.684 671.963, 227.586 664.108, 233.775 656.253, 239.963 648.398, 246.152 640.543, 252.340 638.184, 254.198 " fill="none" stroke="rgb(0, 0, 0)" stroke-linecap="butt" stroke-linejoin="round" stroke-opacity="1.0" stroke-width="3.0" />
            <path d=" M 585.769, 212.073 593.564, 218.337 601.359, 224.602 609.153, 230.866 616.948, 237.131 619.671, 239.319 626.880, 245.113 634.675, 251.377 638.184, 254.198 640.515, 263.923 642.845, 273.648 645.176, 283.372 647.506, 293.097 649.837, 302.821 652.167, 312.546 654.498, 322.271 656.214, 329.434 " fill="none" stroke="rgb(0, 0, 0)" stroke-linecap="butt" stroke-linejoin="round" stroke-opacity="1.0" stroke-width="3.0" />
            <path d=" M 656.214, 329.434 666.192, 330.102 676.170, 330.771 686.147, 331.439 696.125, 332.108 706.103, 332.776 716.080, 333.445 717.674, 333.551 725.529, 327.363 733.384, 321.174 740.354, 315.684 748.209, 309.495 756.064, 303.307 756.367, 303.068 759.776, 300.382 763.520, 297.432 768.543, 293.475 772.744, 284.400 776.945, 275.326 778.225, 272.561 780.839, 266.913 782.257, 263.851 785.881, 256.023 785.237, 246.044 784.592, 236.064 784.215, 230.225 783.571, 220.246 783.071, 212.511 782.427, 202.532 782.210, 199.170 781.565, 189.191 781.274, 184.679 781.069, 181.506 781.065, 181.442 781.028, 180.870 775.158, 173.172 769.094, 165.221 763.031, 157.269 761.841, 155.709 753.823, 149.733 751.404, 147.930 748.527, 145.785 740.509, 139.809 734.152, 135.071 726.284, 129.207 723.745, 128.319 717.584, 126.163 715.270, 125.353 708.510, 122.988 699.071, 119.686 698.820, 119.598 689.296, 122.647 679.772, 125.695 670.089, 128.795 665.973, 130.113 656.449, 133.162 654.158, 133.895 646.610, 136.311 637.086, 139.360 630.272, 141.541 620.749, 144.590 611.225, 147.639 608.970, 148.361 603.205, 150.206 600.081, 159.706 599.532, 161.373 597.851, 166.485 594.727, 175.984 592.218, 183.612 591.641, 185.368 591.488, 185.831 588.826, 193.924 585.714, 203.389 583.933, 209.599 582.242, 215.496 579.486, 225.109 576.730, 234.721 573.974, 244.334 573.084, 247.437 578.006, 256.142 582.928, 264.847 587.850, 273.551 592.772, 282.256 593.638, 283.788 594.155, 284.701 599.077, 293.406 604.049, 302.199 608.971, 310.904 609.809, 312.387 619.196, 315.835 628.583, 319.284 633.315, 321.022 642.702, 324.470 652.089, 327.918 653.447, 328.417 656.214, 329.434 " fill="none" stroke="rgb(0, 0, 0)" stroke-linecap="butt" stroke-linejoin="round" stroke-opacity="1.0" stroke-width="3.0" />
            <path d=" M 768.543, 293.475 766.212, 283.751 763.882, 274.026 762.722, 269.185 760.391, 259.461 758.061, 249.736 757.738, 248.388 755.407, 238.663 753.077, 228.939 750.746, 219.214 750.513, 218.240 " fill="none" stroke="rgb(0, 0, 0)" stroke-linecap="butt" stroke-linejoin="round" stroke-opacity="1.0" stroke-width="3.0" />
            <path d=" M 761.841, 155.709 760.059, 165.548 759.507, 168.595 757.724, 178.435 755.941, 188.275 754.159, 198.115 752.376, 207.954 750.513, 218.240 740.535, 217.571 730.558, 216.903 720.580, 216.234 710.602, 215.566 700.625, 214.897 690.647, 214.229 689.053, 214.122 685.641, 204.722 682.229, 195.323 678.816, 185.923 676.138, 178.546 672.726, 169.146 669.314, 159.746 668.305, 156.967 " fill="none" stroke="rgb(0, 0, 0)" stroke-linecap="butt" stroke-linejoin="round" stroke-opacity="1.0" stroke-width="3.0" />
            <path d=" M 598.797, 170.018 595.838, 179.570 592.879, 189.122 591.141, 194.734 588.182, 204.286 585.769, 212.073 582.393, 221.486 579.017, 230.898 575.640, 240.311 573.084, 247.437 " fill="none" stroke="rgb(0, 0, 0)" stroke-linecap="butt" stroke-linejoin="round" stroke-opacity="1.0" stroke-width="3.0" />
            <path d=" M 726.284, 129.207 717.264, 133.525 717.015, 133.645 714.770, 134.720 705.751, 139.038 696.731, 143.357 687.712, 147.675 678.692, 151.994 669.673, 156.312 668.305, 156.967 658.477, 158.813 652.281, 159.976 642.453, 161.821 632.624, 163.667 622.796, 165.512 612.968, 167.357 603.139, 169.203 599.112, 169.959 598.797, 170.018 598.925, 169.444 600.772, 161.140 602.944, 151.379 603.205, 150.206 " fill="none" stroke="rgb(0, 0, 0)" stroke-linecap="butt" stroke-linejoin="round" stroke-opacity="1.0" stroke-width="3.0" />
            <path d=" M 720.697, 116.698 713.302, 109.966 706.411, 103.693 699.016, 96.961 691.621, 90.230 684.226, 83.498 682.024, 81.494 " fill="none" stroke="rgb(0, 0, 0)" stroke-linecap="butt" stroke-linejoin="round" stroke-opacity="1.0" stroke-width="3.0" />
            <path d=" M 674.412, 11.525 675.493, 21.467 676.575, 31.408 677.656, 41.349 678.098, 45.405 679.179, 55.346 680.261, 65.287 680.931, 71.447 681.518, 76.845 682.024, 81.494 680.380, 82.020 670.856, 85.069 666.006, 86.622 656.482, 89.671 646.958, 92.719 637.434, 95.768 627.911, 98.817 618.387, 101.866 608.863, 104.915 599.339, 107.963 589.815, 111.012 586.409, 112.102 " fill="none" stroke="rgb(0, 0, 0)" stroke-linecap="butt" stroke-linejoin="round" stroke-opacity="1.0" stroke-width="3.0" />
            <path d=" M 546.925, 52.336 552.437, 60.680 555.173, 64.821 560.685, 73.164 566.197, 81.508 571.709, 89.851 577.221, 98.195 582.734, 106.539 586.409, 112.102 583.285, 121.602 580.161, 131.101 579.900, 131.895 576.776, 141.394 573.651, 150.893 570.527, 160.393 568.918, 165.286 " fill="none" stroke="rgb(0, 0, 0)" stroke-linecap="butt" stroke-linejoin="round" stroke-opacity="1.0" stroke-width="3.0" />
            <path d=" M 525.383, 139.217 533.962, 144.355 542.542, 149.492 551.121, 154.629 559.701, 159.767 568.280, 164.904 568.918, 165.286 570.589, 166.807 577.984, 173.538 585.379, 180.270 591.488, 185.831 " fill="none" stroke="rgb(0, 0, 0)" stroke-linecap="butt" stroke-linejoin="round" stroke-opacity="1.0" stroke-width="3.0" />
            <path d=" M 696.601, 7.700 686.747, 9.399 676.892, 11.098 674.412, 11.525 664.536, 9.952 662.315, 9.599 660.019, 9.233 650.144, 7.660 640.268, 6.087 630.393, 4.514 620.517, 2.941 610.642, 1.368 600.766, -0.205 598.894, -0.503 591.882, 6.627 584.870, 13.756 577.858, 20.886 570.846, 28.015 563.834, 35.145 556.822, 42.274 549.809, 49.404 546.925, 52.336 537.787, 56.397 529.330, 60.154 520.530, 64.064 " fill="none" stroke="rgb(0, 0, 0)" stroke-linecap="butt" stroke-linejoin="round" stroke-opacity="1.0" stroke-width="3.0" />
            <path d=" M 588.737, -13.464 580.882, -7.276 573.026, -1.087 565.171, 5.101 557.316, 11.290 552.939, 14.739 545.084, 20.927 537.868, 26.612 533.667, 35.687 532.818, 37.520 529.279, 45.164 525.078, 54.239 523.356, 57.959 520.530, 64.064 521.064, 72.341 521.422, 77.889 522.067, 87.868 522.711, 97.848 523.356, 107.827 524.000, 117.806 524.041, 118.439 524.330, 122.922 524.975, 132.902 525.383, 139.217 525.638, 139.552 528.095, 142.774 534.159, 150.726 540.222, 158.678 543.953, 163.570 544.570, 164.379 552.407, 170.220 560.425, 176.196 568.443, 182.172 576.461, 188.148 580.127, 190.881 588.826, 193.924 " fill="none" stroke="rgb(0, 0, 0)" stroke-linecap="butt" stroke-linejoin="round" stroke-opacity="1.0" stroke-width="3.0" />
            <path d=" M 717.584, 126.163 720.697, 116.698 723.453, 107.085 724.533, 103.320 727.289, 93.708 729.205, 87.023 731.961, 77.411 733.326, 72.650 728.404, 63.945 723.482, 55.241 722.030, 52.672 719.195, 47.658 719.191, 47.651 714.269, 38.946 711.729, 34.455 706.807, 25.750 701.885, 17.045 696.963, 8.340 696.601, 7.700 687.215, 4.252 677.828, 0.804 668.441, -2.644 665.943, -3.562 " fill="none" stroke="rgb(0, 0, 0)" stroke-linecap="butt" stroke-linejoin="round" stroke-opacity="1.0" stroke-width="3.0" />
            <path d=" M 209.467, 473.801 208.385, 463.860 207.669, 457.280 " fill="none" stroke="rgb(0, 0, 0)" stroke-linecap="butt" stroke-linejoin="round" stroke-opacity="1.0" stroke-width="3.0" />
            <path d=" M 303.014, 561.065 300.683, 551.340 298.353, 541.616 296.022, 531.891 293.692, 522.166 291.361, 512.442 289.031, 502.717 286.700, 492.993 284.984, 485.829 " fill="none" stroke="rgb(0, 0, 0)" stroke-linecap="butt" stroke-linejoin="round" stroke-opacity="1.0" stroke-width="3.0" />
            <path d=" M 330.721, 439.326 323.709, 446.455 316.697, 453.585 309.685, 460.714 302.673, 467.844 295.661, 474.974 288.648, 482.103 284.984, 485.829 275.108, 484.256 265.233, 482.684 255.357, 481.111 245.481, 479.538 235.606, 477.965 225.730, 476.392 215.855, 474.819 209.467, 473.801 205.134, 482.814 200.801, 491.826 196.468, 500.839 192.135, 509.851 187.802, 518.864 185.611, 523.422 " fill="none" stroke="rgb(0, 0, 0)" stroke-linecap="butt" stroke-linejoin="round" stroke-opacity="1.0" stroke-width="3.0" />
            <path d=" M 376.460, 462.997 368.496, 456.949 360.533, 450.901 352.569, 444.852 344.606, 438.804 337.874, 433.691 " fill="none" stroke="rgb(0, 0, 0)" stroke-linecap="butt" stroke-linejoin="round" stroke-opacity="1.0" stroke-width="3.0" />
            <path d=" M 374.684, 471.070 376.460, 462.997 372.426, 453.847 368.393, 444.696 364.359, 435.546 360.326, 426.395 356.293, 417.245 352.579, 408.819 " fill="none" stroke="rgb(0, 0, 0)" stroke-linecap="butt" stroke-linejoin="round" stroke-opacity="1.0" stroke-width="3.0" />
            <path d=" M 467.755, 255.940 471.410, 264.232 475.443, 273.383 479.476, 282.533 483.510, 291.684 487.543, 300.834 491.577, 309.985 494.062, 315.624 " fill="none" stroke="rgb(0, 0, 0)" stroke-linecap="butt" stroke-linejoin="round" stroke-opacity="1.0" stroke-width="3.0" />
            <path d=" M 440.714, 371.055 447.648, 363.850 454.583, 356.645 461.517, 349.439 468.451, 342.234 475.386, 335.029 481.970, 328.188 488.905, 320.982 494.062, 315.624 503.873, 317.558 513.684, 319.493 523.495, 321.428 533.306, 323.363 543.117, 325.298 552.928, 327.233 562.739, 329.167 568.001, 330.205 568.199, 330.244 " fill="none" stroke="rgb(0, 0, 0)" stroke-linecap="butt" stroke-linejoin="round" stroke-opacity="1.0" stroke-width="3.0" />
            <path d=" M 573.053, 405.397 572.409, 395.417 571.764, 385.438 571.120, 375.459 570.475, 365.480 569.831, 355.501 569.186, 345.521 568.541, 335.542 568.419, 333.652 568.199, 330.244 572.400, 321.169 576.602, 312.095 580.803, 303.020 585.004, 293.945 585.538, 292.792 " fill="none" stroke="rgb(0, 0, 0)" stroke-linecap="butt" stroke-linejoin="round" stroke-opacity="1.0" stroke-width="3.0" />
            <path d=" M 585.538, 292.792 583.891, 291.468 576.096, 285.203 568.301, 278.939 561.860, 273.763 554.066, 267.498 546.271, 261.234 545.842, 260.889 539.257, 255.597 533.123, 250.667 529.807, 250.935 519.840, 251.739 518.460, 251.850 515.081, 252.123 505.113, 252.927 495.146, 253.731 485.178, 254.535 475.211, 255.339 474.461, 255.399 471.799, 255.614 467.755, 255.940 463.030, 258.643 461.270, 259.650 452.590, 264.616 449.606, 266.323 440.926, 271.289 438.563, 272.641 429.883, 277.607 421.203, 282.573 412.523, 287.539 405.638, 291.478 404.968, 295.171 404.625, 297.067 402.842, 306.907 401.906, 312.074 401.340, 315.196 399.558, 325.036 398.670, 329.935 396.887, 339.775 395.187, 349.158 394.309, 354.008 396.639, 363.733 397.047, 365.437 399.378, 375.162 401.708, 384.886 401.782, 385.193 404.112, 394.918 405.147, 399.235 407.477, 408.959 409.808, 418.684 410.442, 421.330 412.338, 429.244 420.133, 435.508 427.425, 441.368 434.127, 446.755 441.922, 453.019 446.440, 456.650 454.235, 462.915 459.761, 467.356 464.754, 471.368 474.721, 470.564 484.689, 469.760 485.393, 469.703 487.160, 469.561 497.127, 468.757 507.095, 467.953 507.418, 467.926 517.386, 467.122 527.353, 466.318 530.122, 466.095 538.802, 461.129 545.226, 457.454 547.105, 456.379 550.221, 454.596 558.901, 449.630 567.581, 444.665 568.050, 444.396 576.730, 439.430 585.410, 434.464 588.989, 432.417 592.239, 430.557 594.022, 420.718 595.805, 410.878 597.587, 401.038 599.370, 391.198 599.691, 389.425 599.741, 389.149 601.524, 379.309 603.138, 370.401 603.568, 368.027 601.238, 358.303 598.907, 348.578 596.577, 338.853 596.149, 337.068 593.818, 327.343 591.488, 317.619 590.977, 315.489 589.102, 307.665 586.772, 297.940 585.538, 292.792 " fill="none" stroke="rgb(0, 0, 0)" stroke-linecap="butt" stroke-linejoin="round" stroke-opacity="1.0" stroke-width="3.0" />
            <path d=" M 394.309, 354.008 403.695, 357.456 404.458, 357.737 413.845, 361.185 423.232, 364.633 432.619, 368.081 440.714, 371.055 445.636, 379.760 448.435, 384.710 453.357, 393.415 458.279, 402.120 463.201, 410.824 467.928, 419.184 472.849, 427.889 477.438, 436.005 " fill="none" stroke="rgb(0, 0, 0)" stroke-linecap="butt" stroke-linejoin="round" stroke-opacity="1.0" stroke-width="3.0" />
            <path d=" M 464.754, 471.368 468.130, 461.955 468.474, 460.995 471.851, 451.583 475.227, 442.170 477.438, 436.005 486.962, 432.956 496.486, 429.907 506.010, 426.859 515.534, 423.810 525.058, 420.761 534.582, 417.712 544.106, 414.663 553.630, 411.615 563.154, 408.566 571.473, 405.903 573.053, 405.397 577.737, 411.540 583.801, 419.491 589.864, 427.443 592.239, 430.557 " fill="none" stroke="rgb(0, 0, 0)" stroke-linecap="butt" stroke-linejoin="round" stroke-opacity="1.0" stroke-width="3.0" />
            <path d=" M 136.215, 410.021 135.133, 400.079 135.054, 399.357 127.659, 392.626 122.270, 387.720 114.875, 380.988 107.480, 374.256 100.085, 367.525 99.387, 366.890 96.381, 364.154 87.802, 359.016 79.222, 353.879 72.853, 350.065 64.273, 344.928 62.863, 344.083 61.804, 343.449 53.225, 338.312 52.846, 338.085 48.886, 339.353 39.363, 342.402 29.839, 345.451 20.315, 348.499 18.066, 349.219 8.986, 352.126 4.125, 353.682 -5.399, 356.731 -14.923, 359.780 -24.447, 362.828 -27.800, 363.902 " fill="none" stroke="rgb(0, 0, 0)" stroke-linecap="butt" stroke-linejoin="round" stroke-opacity="1.0" stroke-width="3.0" />
            <path d=" M 219.955, 542.548 210.568, 539.100 201.182, 535.651 193.601, 532.867 184.214, 529.418 174.828, 525.970 174.045, 525.683 " fill="none" stroke="rgb(0, 0, 0)" stroke-linecap="butt" stroke-linejoin="round" stroke-opacity="1.0" stroke-width="3.0" />
            <path d=" M 277.476, 541.639 271.257, 533.704 261.382, 532.131 251.506, 530.558 241.631, 528.985 231.755, 527.412 221.880, 525.839 218.783, 525.346 208.908, 523.773 199.032, 522.200 195.740, 521.676 185.885, 523.375 185.611, 523.422 184.932, 523.539 175.078, 525.238 174.095, 525.407 " fill="none" stroke="rgb(0, 0, 0)" stroke-linecap="butt" stroke-linejoin="round" stroke-opacity="1.0" stroke-width="3.0" />
            <path d=" M 263.407, 350.380 255.552, 356.569 247.697, 362.757 247.462, 362.943 246.317, 363.844 238.462, 370.033 230.607, 376.221 222.752, 382.410 214.897, 388.598 212.538, 390.456 " fill="none" stroke="rgb(0, 0, 0)" stroke-linecap="butt" stroke-linejoin="round" stroke-opacity="1.0" stroke-width="3.0" />
            <path d=" M 160.123, 348.331 167.918, 354.596 175.713, 360.860 183.507, 367.124 191.302, 373.389 194.025, 375.578 201.234, 381.371 209.029, 387.636 212.538, 390.456 214.869, 400.181 217.199, 409.906 219.530, 419.630 221.860, 429.355 224.191, 439.080 226.521, 448.804 228.852, 458.529 230.568, 465.692 " fill="none" stroke="rgb(0, 0, 0)" stroke-linecap="butt" stroke-linejoin="round" stroke-opacity="1.0" stroke-width="3.0" />
            <path d=" M 230.568, 465.692 240.546, 466.361 250.524, 467.029 260.501, 467.697 270.479, 468.366 280.457, 469.034 290.434, 469.703 292.028, 469.810 299.883, 463.621 307.738, 457.433 314.708, 451.942 322.563, 445.753 330.418, 439.565 330.721, 439.326 334.130, 436.640 337.874, 433.691 342.897, 429.733 347.098, 420.659 351.299, 411.584 352.579, 408.819 355.193, 403.172 356.611, 400.109 360.235, 392.281 359.591, 382.302 358.946, 372.323 358.569, 366.484 357.925, 356.505 357.425, 348.769 356.781, 338.790 356.564, 335.429 355.919, 325.449 355.628, 320.937 355.423, 317.764 355.419, 317.701 355.382, 317.128 349.512, 309.431 343.449, 301.479 337.385, 293.527 336.195, 291.967 328.177, 285.991 325.758, 284.188 322.881, 282.043 314.863, 276.067 308.506, 271.329 300.638, 265.465 298.099, 264.577 291.938, 262.421 289.624, 261.612 282.864, 259.246 273.425, 255.944 273.174, 255.856 263.650, 258.905 254.126, 261.954 244.443, 265.053 240.327, 266.371 230.803, 269.420 228.512, 270.153 220.964, 272.570 211.440, 275.618 204.626, 277.800 195.103, 280.848 185.579, 283.897 183.324, 284.619 177.559, 286.464 174.435, 295.964 173.886, 297.631 172.205, 302.743 169.081, 312.243 166.572, 319.870 165.995, 321.626 165.842, 322.089 163.181, 330.182 160.068, 339.648 158.287, 345.857 156.596, 351.754 153.840, 361.367 151.084, 370.980 148.328, 380.592 147.438, 383.695 152.360, 392.400 157.282, 401.105 162.204, 409.810 167.126, 418.515 167.992, 420.046 168.509, 420.959 173.431, 429.664 178.403, 438.457 183.325, 447.162 184.163, 448.645 193.550, 452.094 202.937, 455.542 207.669, 457.280 217.056, 460.728 226.442, 464.176 227.801, 464.675 230.568, 465.692 " fill="none" stroke="rgb(0, 0, 0)" stroke-linecap="butt" stroke-linejoin="round" stroke-opacity="1.0" stroke-width="3.0" />
            <path d=" M 342.897, 429.733 340.566, 420.009 338.236, 410.284 337.076, 405.444 334.745, 395.719 332.415, 385.994 332.092, 384.646 329.761, 374.922 327.431, 365.197 325.100, 355.472 324.867, 354.498 " fill="none" stroke="rgb(0, 0, 0)" stroke-linecap="butt" stroke-linejoin="round" stroke-opacity="1.0" stroke-width="3.0" />
            <path d=" M 336.195, 291.967 334.413, 301.807 333.861, 304.853 332.078, 314.693 330.295, 324.533 328.513, 334.373 326.730, 344.213 324.867, 354.498 314.889, 353.829 304.912, 353.161 294.934, 352.492 284.956, 351.824 274.979, 351.156 265.001, 350.487 263.407, 350.380 259.995, 340.980 256.583, 331.581 253.170, 322.181 250.492, 314.804 247.080, 305.404 243.668, 296.005 242.659, 293.226 " fill="none" stroke="rgb(0, 0, 0)" stroke-linecap="butt" stroke-linejoin="round" stroke-opacity="1.0" stroke-width="3.0" />
            <path d=" M 173.151, 306.276 170.192, 315.828 167.233, 325.380 165.495, 330.992 162.536, 340.544 160.123, 348.331 156.747, 357.744 153.371, 367.157 149.994, 376.569 147.438, 383.695 " fill="none" stroke="rgb(0, 0, 0)" stroke-linecap="butt" stroke-linejoin="round" stroke-opacity="1.0" stroke-width="3.0" />
            <path d=" M 300.638, 265.465 291.618, 269.783 291.369, 269.903 289.124, 270.978 280.105, 275.296 271.085, 279.615 262.066, 283.933 253.046, 288.252 244.027, 292.571 242.659, 293.226 232.831, 295.071 226.635, 296.234 216.807, 298.079 206.978, 299.925 197.150, 301.770 187.322, 303.615 177.494, 305.461 173.466, 306.217 173.151, 306.276 173.279, 305.702 175.126, 297.398 177.298, 287.637 177.559, 286.464 " fill="none" stroke="rgb(0, 0, 0)" stroke-linecap="butt" stroke-linejoin="round" stroke-opacity="1.0" stroke-width="3.0" />
            <path d=" M 295.051, 252.956 287.656, 246.224 280.765, 239.951 273.370, 233.220 265.975, 226.488 258.580, 219.756 256.378, 217.752 " fill="none" stroke="rgb(0, 0, 0)" stroke-linecap="butt" stroke-linejoin="round" stroke-opacity="1.0" stroke-width="3.0" />
            <path d=" M 248.766, 147.783 249.847, 157.725 250.929, 167.666 252.010, 177.607 252.452, 181.663 253.533, 191.604 254.615, 201.545 255.285, 207.705 255.872, 213.104 256.378, 217.752 254.734, 218.279 245.210, 221.327 240.360, 222.880 230.836, 225.929 221.312, 228.978 211.789, 232.026 202.265, 235.075 192.741, 238.124 183.217, 241.173 173.693, 244.222 164.169, 247.270 160.763, 248.361 " fill="none" stroke="rgb(0, 0, 0)" stroke-linecap="butt" stroke-linejoin="round" stroke-opacity="1.0" stroke-width="3.0" />
            <path d=" M 121.279, 188.595 126.791, 196.938 129.527, 201.079 135.039, 209.422 140.551, 217.766 146.063, 226.110 151.575, 234.453 157.088, 242.797 160.763, 248.361 157.639, 257.860 154.515, 267.359 154.254, 268.153 151.130, 277.652 148.005, 287.152 144.881, 296.651 143.272, 301.544 " fill="none" stroke="rgb(0, 0, 0)" stroke-linecap="butt" stroke-linejoin="round" stroke-opacity="1.0" stroke-width="3.0" />
            <path d=" M 99.737, 275.476 108.316, 280.613 116.896, 285.750 125.475, 290.887 134.055, 296.025 142.634, 301.162 143.272, 301.544 144.943, 303.065 152.338, 309.796 159.733, 316.528 165.842, 322.089 " fill="none" stroke="rgb(0, 0, 0)" stroke-linecap="butt" stroke-linejoin="round" stroke-opacity="1.0" stroke-width="3.0" />
            <path d=" M 270.955, 143.958 261.101, 145.657 251.246, 147.356 248.766, 147.783 238.890, 146.211 236.669, 145.857 234.373, 145.491 224.498, 143.918 214.622, 142.345 204.747, 140.772 194.871, 139.199 184.996, 137.626 175.120, 136.053 173.248, 135.755 " fill="none" stroke="rgb(0, 0, 0)" stroke-linecap="butt" stroke-linejoin="round" stroke-opacity="1.0" stroke-width="3.0" />
            <path d=" M 163.091, 122.794 169.259, 130.665 173.248, 135.755 166.236, 142.885 159.224, 150.014 152.212, 157.144 145.200, 164.273 138.188, 171.403 131.176, 178.532 124.163, 185.662 121.279, 188.595 112.141, 192.655 103.684, 196.412 94.884, 200.323 " fill="none" stroke="rgb(0, 0, 0)" stroke-linecap="butt" stroke-linejoin="round" stroke-opacity="1.0" stroke-width="3.0" />
            <path d=" M 291.938, 262.421 295.051, 252.956 297.807, 243.343 298.887, 239.578 301.643, 229.966 303.559, 223.281 306.315, 213.669 307.680, 208.908 302.758, 200.204 297.836, 191.499 296.384, 188.930 293.549, 183.916 293.545, 183.909 288.623, 175.204 286.083, 170.713 281.161, 162.008 276.239, 153.303 271.317, 144.599 270.955, 143.958 261.569, 140.510 252.182, 137.062 242.795, 133.614 240.297, 132.696 234.323, 130.501 224.936, 127.053 224.550, 126.912 222.546, 126.777 216.761, 126.390 208.480, 125.835 198.502, 125.167 191.704, 124.711 181.726, 124.043 171.749, 123.374 163.091, 122.794 155.236, 128.983 147.380, 135.171 139.525, 141.360 131.670, 147.548 127.293, 150.997 119.438, 157.186 112.222, 162.870 108.021, 171.945 107.172, 173.779 103.633, 181.423 99.432, 190.497 97.710, 194.218 94.884, 200.323 95.418, 208.599 95.776, 214.147 96.421, 224.127 97.065, 234.106 97.710, 244.085 98.354, 254.064 98.395, 254.697 98.684, 259.180 99.329, 269.160 99.737, 275.476 99.992, 275.810 102.449, 279.033 108.513, 286.984 114.576, 294.936 118.307, 299.828 118.924, 300.637 126.761, 306.478 134.779, 312.454 142.797, 318.430 150.815, 324.406 154.481, 327.139 163.181, 330.182 " fill="none" stroke="rgb(0, 0, 0)" stroke-linecap="butt" stroke-linejoin="round" stroke-opacity="1.0" stroke-width="3.0" />
            <path d=" M 42.109, 392.199 45.764, 400.491 49.797, 409.641 53.830, 418.792 57.864, 427.942 61.897, 437.093 65.931, 446.243 68.416, 451.882 " fill="none" stroke="rgb(0, 0, 0)" stroke-linecap="butt" stroke-linejoin="round" stroke-opacity="1.0" stroke-width="3.0" />
            <path d=" M 15.068, 507.313 22.002, 500.108 28.937, 492.903 35.871, 485.698 42.806, 478.492 49.740, 471.287 56.324, 464.446 63.259, 457.241 68.416, 451.882 78.227, 453.817 88.038, 455.751 97.849, 457.686 107.660, 459.621 117.471, 461.556 127.282, 463.491 137.093, 465.426 142.355, 466.463 142.553, 466.502 " fill="none" stroke="rgb(0, 0, 0)" stroke-linecap="butt" stroke-linejoin="round" stroke-opacity="1.0" stroke-width="3.0" />
            <path d=" M 147.407, 541.655 146.763, 531.676 146.118, 521.696 145.474, 511.717 144.829, 501.738 144.185, 491.759 143.540, 481.780 142.896, 471.800 142.773, 469.910 142.553, 466.502 146.755, 457.428 150.956, 448.353 155.157, 439.278 159.358, 430.203 159.892, 429.050 " fill="none" stroke="rgb(0, 0, 0)" stroke-linecap="butt" stroke-linejoin="round" stroke-opacity="1.0" stroke-width="3.0" />
            <path d=" M 166.593, 566.816 168.376, 556.976 170.159, 547.136 171.941, 537.296 173.724, 527.456 174.045, 525.683 174.095, 525.407 175.878, 515.567 177.492, 506.659 177.922, 504.285 175.592, 494.561 173.261, 484.836 170.931, 475.111 170.503, 473.326 168.172, 463.602 165.842, 453.877 165.332, 451.747 163.456, 443.923 161.126, 434.198 159.892, 429.050 158.245, 427.726 150.450, 421.461 142.655, 415.197 136.215, 410.021 128.420, 403.756 120.625, 397.492 120.196, 397.147 113.611, 391.855 107.477, 386.925 104.161, 387.193 94.194, 387.997 92.814, 388.108 89.435, 388.381 79.467, 389.185 69.500, 389.989 59.532, 390.793 49.565, 391.597 48.815, 391.658 46.153, 391.872 42.109, 392.199 37.384, 394.901 35.624, 395.909 26.944, 400.874 23.960, 402.582 15.280, 407.547 12.917, 408.899 4.237, 413.865 -4.443, 418.831 -13.123, 423.797 -20.008, 427.736 " fill="none" stroke="rgb(0, 0, 0)" stroke-linecap="butt" stroke-linejoin="round" stroke-opacity="1.0" stroke-width="3.0" />
            <path d=" M -21.188, 493.995 -11.801, 497.443 -2.414, 500.891 6.973, 504.339 15.068, 507.313 19.990, 516.018 22.789, 520.968 27.711, 529.673 32.633, 538.378 37.555, 547.083 42.282, 555.443 " fill="none" stroke="rgb(0, 0, 0)" stroke-linecap="butt" stroke-linejoin="round" stroke-opacity="1.0" stroke-width="3.0" />
            <path d=" M 789.525, 219.181 783.071, 212.511 " fill="none" stroke="rgb(0, 0, 0)" stroke-linecap="butt" stroke-linejoin="round" stroke-opacity="1.0" stroke-width="3.0" />
            <path d=" M 754.276, 127.225 746.482, 120.960 738.687, 114.696 730.892, 108.431 724.533, 103.320 " fill="none" stroke="rgb(0, 0, 0)" stroke-linecap="butt" stroke-linejoin="round" stroke-opacity="1.0" stroke-width="3.0" />
            <path d=" M 754.974, 54.702 746.266, 52.985 736.455, 51.050 726.630, 49.113 719.200, 47.647 719.191, 47.651 " fill="none" stroke="rgb(0, 0, 0)" stroke-linecap="butt" stroke-linejoin="round" stroke-opacity="1.0" stroke-width="3.0" />
            <path d=" M 780.839, 266.913 787.478, 265.769 794.412, 258.564 801.347, 251.359 808.281, 244.154 810.443, 241.907 " fill="none" stroke="rgb(0, 0, 0)" stroke-linecap="butt" stroke-linejoin="round" stroke-opacity="1.0" stroke-width="3.0" />
            <path d=" M 855.639, 54.431 856.707, 64.374 857.246, 69.391 860.091, 78.977 860.278, 79.609 " fill="none" stroke="rgb(0, 0, 0)" stroke-linecap="butt" stroke-linejoin="round" stroke-opacity="1.0" stroke-width="3.0" />
            <path d=" M 942.807, 66.872 944.589, 57.032 946.372, 47.193 948.154, 37.353 949.937, 27.513 951.456, 19.132 953.238, 9.292 953.741, 6.516 " fill="none" stroke="rgb(0, 0, 0)" stroke-linecap="butt" stroke-linejoin="round" stroke-opacity="1.0" stroke-width="3.0" />
            <path d=" M 978.364, 93.374 970.346, 87.398 962.328, 81.422 954.310, 75.446 946.292, 69.470 942.807, 66.872 934.127, 71.838 925.447, 76.804 924.145, 77.549 " fill="none" stroke="rgb(0, 0, 0)" stroke-linecap="butt" stroke-linejoin="round" stroke-opacity="1.0" stroke-width="3.0" />
            <path d=" M 518.001, 71.853 516.919, 61.912 516.203, 55.332 " fill="none" stroke="rgb(0, 0, 0)" stroke-linecap="butt" stroke-linejoin="round" stroke-opacity="1.0" stroke-width="3.0" />
            <path d=" M 785.972, 34.057 795.496, 31.008 805.020, 27.959 814.544, 24.910 824.068, 21.862 833.592, 18.813 843.116, 15.764 852.640, 12.715 862.164, 9.666 871.688, 6.618 880.007, 3.955 881.587, 3.449 " fill="none" stroke="rgb(0, 0, 0)" stroke-linecap="butt" stroke-linejoin="round" stroke-opacity="1.0" stroke-width="3.0" />
            <path d=" M 900.773, 28.609 894.709, 20.657 888.646, 12.706 886.271, 9.591 881.587, 3.449 880.943, -6.531 880.298, -16.510 879.654, -26.489 879.009, -36.468 878.365, -46.447 877.720, -56.427 877.075, -66.406 876.733, -71.704 " fill="none" stroke="rgb(0, 0, 0)" stroke-linecap="butt" stroke-linejoin="round" stroke-opacity="1.0" stroke-width="3.0" />
            <path d=" M 713.681, -2.713 716.011, 7.011 718.342, 16.736 718.976, 19.382 720.872, 27.296 728.667, 33.560 735.959, 39.420 742.661, 44.806 750.456, 51.071 754.974, 54.702 762.769, 60.966 768.295, 65.408 773.288, 69.420 783.255, 68.616 793.223, 67.812 793.927, 67.755 795.694, 67.613 805.661, 66.809 815.629, 66.004 815.952, 65.978 825.920, 65.174 835.887, 64.370 838.656, 64.147 847.336, 59.181 853.760, 55.506 855.639, 54.431 858.755, 52.648 867.435, 47.682 876.115, 42.717 876.584, 42.448 885.264, 37.482 893.944, 32.516 897.523, 30.469 900.773, 28.609 902.556, 18.770 904.339, 8.930 906.121, -0.910 907.904, -10.750 908.225, -12.523 " fill="none" stroke="rgb(0, 0, 0)" stroke-linecap="butt" stroke-linejoin="round" stroke-opacity="1.0" stroke-width="3.0" />
            <path d=" M 773.288, 69.420 776.664, 60.007 777.008, 59.047 780.385, 49.635 783.761, 40.222 785.972, 34.057 781.050, 25.352 776.462, 17.236 771.540, 8.531 766.618, -0.173 761.696, -8.878 756.969, -17.238 " fill="none" stroke="rgb(0, 0, 0)" stroke-linecap="butt" stroke-linejoin="round" stroke-opacity="1.0" stroke-width="3.0" />
            <path d=" M 238.307, 52.011 240.052, 44.165 243.011, 34.612 245.971, 25.060 248.930, 15.508 251.889, 5.956 253.080, 2.110 256.457, -7.303 259.833, -16.716 263.209, -26.129 265.765, -33.255 263.009, -23.642 260.253, -14.029 257.497, -4.416 254.741, 5.196 253.136, 10.793 " fill="none" stroke="rgb(0, 0, 0)" stroke-linecap="butt" stroke-linejoin="round" stroke-opacity="1.0" stroke-width="3.0" />
            <path d=" M 238.516, 55.247 241.640, 45.747 244.764, 36.248 247.889, 26.749 251.013, 17.249 253.136, 10.793 261.716, 15.930 270.295, 21.068 278.875, 26.205 287.513, 31.377 " fill="none" stroke="rgb(0, 0, 0)" stroke-linecap="butt" stroke-linejoin="round" stroke-opacity="1.0" stroke-width="3.0" />
            <path d=" M 275.129, 123.742 284.268, 119.682 284.670, 119.503 " fill="none" stroke="rgb(0, 0, 0)" stroke-linecap="butt" stroke-linejoin="round" stroke-opacity="1.0" stroke-width="3.0" />
            <path d=" M 239.452, 69.739 244.964, 78.082 250.476, 86.426 255.988, 94.770 261.500, 103.113 267.013, 111.457 272.525, 119.800 275.129, 123.742 283.092, 129.791 288.035, 133.545 " fill="none" stroke="rgb(0, 0, 0)" stroke-linecap="butt" stroke-linejoin="round" stroke-opacity="1.0" stroke-width="3.0" />
            <path d=" M 363.879, 355.440 357.425, 348.769 " fill="none" stroke="rgb(0, 0, 0)" stroke-linecap="butt" stroke-linejoin="round" stroke-opacity="1.0" stroke-width="3.0" />
            <path d=" M 328.630, 263.483 320.836, 257.219 313.041, 250.954 305.246, 244.690 298.887, 239.578 " fill="none" stroke="rgb(0, 0, 0)" stroke-linecap="butt" stroke-linejoin="round" stroke-opacity="1.0" stroke-width="3.0" />
            <path d=" M 329.328, 190.960 320.620, 189.243 310.809, 187.308 300.984, 185.371 293.554, 183.905 293.545, 183.909 " fill="none" stroke="rgb(0, 0, 0)" stroke-linecap="butt" stroke-linejoin="round" stroke-opacity="1.0" stroke-width="3.0" />
            <path d=" M 355.193, 403.172 361.832, 402.027 368.766, 394.822 375.701, 387.617 382.635, 380.412 384.797, 378.165 " fill="none" stroke="rgb(0, 0, 0)" stroke-linecap="butt" stroke-linejoin="round" stroke-opacity="1.0" stroke-width="3.0" />
            <path d=" M 429.993, 190.689 431.061, 200.632 431.600, 205.649 434.445, 215.236 434.632, 215.868 " fill="none" stroke="rgb(0, 0, 0)" stroke-linecap="butt" stroke-linejoin="round" stroke-opacity="1.0" stroke-width="3.0" />
            <path d=" M 517.161, 203.131 518.943, 193.291 520.726, 183.451 522.509, 173.611 524.291, 163.771 525.810, 155.390 527.592, 145.550 528.095, 142.774 " fill="none" stroke="rgb(0, 0, 0)" stroke-linecap="butt" stroke-linejoin="round" stroke-opacity="1.0" stroke-width="3.0" />
            <path d=" M 524.330, 122.922 514.455, 121.349 504.579, 119.776 504.274, 119.728 494.419, 121.427 494.145, 121.474 493.466, 121.591 483.612, 123.290 482.629, 123.459 " fill="none" stroke="rgb(0, 0, 0)" stroke-linecap="butt" stroke-linejoin="round" stroke-opacity="1.0" stroke-width="3.0" />
            <path d=" M 552.718, 229.632 544.700, 223.656 536.682, 217.680 528.664, 211.704 520.646, 205.728 517.161, 203.131 508.481, 208.096 499.801, 213.062 498.499, 213.807 " fill="none" stroke="rgb(0, 0, 0)" stroke-linecap="butt" stroke-linejoin="round" stroke-opacity="1.0" stroke-width="3.0" />
            <path d=" M 547.916, 251.461 550.064, 241.695 552.213, 231.929 552.718, 229.632 561.737, 225.314 570.757, 220.995 579.776, 216.677 582.242, 215.496 " fill="none" stroke="rgb(0, 0, 0)" stroke-linecap="butt" stroke-linejoin="round" stroke-opacity="1.0" stroke-width="3.0" />
            <path d=" M 521.072, -11.492 523.403, -1.767 525.733, 7.958 528.064, 17.682 530.394, 27.407 532.818, 37.520 " fill="none" stroke="rgb(0, 0, 0)" stroke-linecap="butt" stroke-linejoin="round" stroke-opacity="1.0" stroke-width="3.0" />
            <path d=" M 455.972, -18.253 460.894, -9.548 465.816, -0.843 470.738, 7.862 475.660, 16.566 477.043, 19.011 481.965, 27.716 486.887, 36.420 491.809, 45.125 492.697, 46.697 502.084, 50.145 511.471, 53.594 516.203, 55.332 523.356, 57.959 " fill="none" stroke="rgb(0, 0, 0)" stroke-linecap="butt" stroke-linejoin="round" stroke-opacity="1.0" stroke-width="3.0" />
            <path d=" M 92.355, 208.111 91.273, 198.170 90.557, 191.590 " fill="none" stroke="rgb(0, 0, 0)" stroke-linecap="butt" stroke-linejoin="round" stroke-opacity="1.0" stroke-width="3.0" />
            <path d=" M 422.145, -10.093 429.940, -3.829 437.734, 2.436 444.748, 8.073 452.543, 14.337 460.338, 20.601 468.133, 26.866 468.426, 27.102 470.757, 36.826 471.990, 41.975 474.321, 51.699 476.651, 61.424 479.037, 71.378 481.367, 81.103 483.698, 90.827 486.028, 100.552 486.456, 102.337 486.026, 104.711 484.243, 114.551 482.629, 123.459 482.579, 123.735 480.797, 133.575 479.014, 143.414 477.231, 153.254 475.448, 163.094 475.127, 164.868 471.877, 166.727 463.197, 171.693 454.517, 176.658 450.938, 178.706 442.258, 183.672 433.578, 188.638 433.109, 188.906 429.993, 190.689 428.114, 191.764 419.434, 196.730 413.010, 200.405 403.042, 201.209 393.075, 202.013 390.306, 202.237 380.339, 203.041 370.371, 203.845 370.048, 203.871 368.281, 204.013 358.313, 204.817 348.346, 205.621 347.642, 205.678 342.649, 201.666 334.855, 195.402 329.328, 190.960 321.533, 184.696 317.015, 181.065 310.313, 175.678 302.518, 169.414 295.226, 163.554 293.330, 155.640 290.999, 145.915 288.669, 136.191 288.035, 133.545 285.704, 123.820 284.670, 119.503 282.339, 109.779 280.009, 100.054 277.678, 90.329 277.196, 88.318 278.075, 83.468 279.858, 73.628 281.641, 63.788 283.424, 53.948 285.206, 44.108 286.989, 34.269 287.513, 31.377 288.526, 25.788 297.205, 20.822 305.885, 15.856 314.565, 10.891 321.451, 6.951 330.131, 1.985 338.811, -2.980 347.491, -7.946 350.643, -9.749 354.676, -0.599 358.709, 8.552 362.743, 17.702 366.776, 26.853 370.810, 36.003 374.843, 45.154 376.950, 49.934 " fill="none" stroke="rgb(0, 0, 0)" stroke-linecap="butt" stroke-linejoin="round" stroke-opacity="1.0" stroke-width="3.0" />
            <path d=" M 323.602, 105.365 330.536, 98.160 337.471, 90.955 344.405, 83.749 351.339, 76.544 358.274, 69.339 365.208, 62.134 372.143, 54.929 376.950, 49.934 386.761, 51.868 396.572, 53.803 406.383, 55.738 416.194, 57.673 426.005, 59.608 435.816, 61.543 445.627, 63.477 450.889, 64.515 451.087, 64.554 " fill="none" stroke="rgb(0, 0, 0)" stroke-linecap="butt" stroke-linejoin="round" stroke-opacity="1.0" stroke-width="3.0" />
            <path d=" M 455.941, 139.707 455.297, 129.728 454.652, 119.748 454.007, 109.769 453.363, 99.790 452.718, 89.811 452.074, 79.832 451.429, 69.852 451.087, 64.554 455.288, 55.479 459.490, 46.405 463.691, 37.330 467.892, 28.255 468.426, 27.102 " fill="none" stroke="rgb(0, 0, 0)" stroke-linecap="butt" stroke-linejoin="round" stroke-opacity="1.0" stroke-width="3.0" />
            <path d=" M 277.196, 88.318 286.583, 91.766 295.970, 95.215 305.357, 98.663 314.743, 102.111 323.602, 105.365 328.524, 114.070 331.323, 119.020 336.245, 127.725 341.167, 136.430 346.089, 145.135 350.815, 153.494 355.737, 162.199 360.326, 170.315 " fill="none" stroke="rgb(0, 0, 0)" stroke-linecap="butt" stroke-linejoin="round" stroke-opacity="1.0" stroke-width="3.0" />
            <path d=" M 347.642, 205.678 351.018, 196.266 351.362, 195.305 354.739, 185.893 358.115, 176.480 360.326, 170.315 369.850, 167.266 379.374, 164.217 388.898, 161.169 398.422, 158.120 407.946, 155.071 417.470, 152.022 426.994, 148.973 436.518, 145.925 446.041, 142.876 454.361, 140.213 455.941, 139.707 460.625, 145.850 466.689, 153.802 472.752, 161.753 475.127, 164.868 " fill="none" stroke="rgb(0, 0, 0)" stroke-linecap="butt" stroke-linejoin="round" stroke-opacity="1.0" stroke-width="3.0" />
            <path d=" M 19.103, 144.331 18.021, 134.390 17.942, 133.667 10.547, 126.936 3.152, 120.204 -4.242, 113.473 -11.637, 106.741 -19.032, 100.009 -20.731, 98.464 " fill="none" stroke="rgb(0, 0, 0)" stroke-linecap="butt" stroke-linejoin="round" stroke-opacity="1.0" stroke-width="3.0" />
            <path d=" M 4.347, 326.947 5.415, 336.890 5.954, 341.907 8.799, 351.494 8.986, 352.126 " fill="none" stroke="rgb(0, 0, 0)" stroke-linecap="butt" stroke-linejoin="round" stroke-opacity="1.0" stroke-width="3.0" />
            <path d=" M 91.515, 339.389 93.297, 329.549 95.080, 319.709 96.863, 309.869 98.645, 300.029 100.164, 291.648 101.946, 281.808 102.449, 279.033 " fill="none" stroke="rgb(0, 0, 0)" stroke-linecap="butt" stroke-linejoin="round" stroke-opacity="1.0" stroke-width="3.0" />
            <path d=" M 98.684, 259.180 88.809, 257.608 78.933, 256.035 78.628, 255.986 68.773, 257.685 68.499, 257.732 67.820, 257.849 57.966, 259.548 56.983, 259.717 " fill="none" stroke="rgb(0, 0, 0)" stroke-linecap="butt" stroke-linejoin="round" stroke-opacity="1.0" stroke-width="3.0" />
            <path d=" M 127.072, 365.891 119.054, 359.915 111.036, 353.939 103.018, 347.963 95.000, 341.987 91.515, 339.389 82.835, 344.354 74.155, 349.320 72.853, 350.065 " fill="none" stroke="rgb(0, 0, 0)" stroke-linecap="butt" stroke-linejoin="round" stroke-opacity="1.0" stroke-width="3.0" />
            <path d=" M 122.270, 387.720 124.418, 377.953 126.567, 368.187 127.072, 365.891 136.091, 361.572 145.111, 357.254 154.130, 352.935 156.596, 351.754 " fill="none" stroke="rgb(0, 0, 0)" stroke-linecap="butt" stroke-linejoin="round" stroke-opacity="1.0" stroke-width="3.0" />
            <path d=" M 146.295, 84.690 138.440, 90.879 130.585, 97.067 129.205, 98.154 121.350, 104.343 113.495, 110.531 105.640, 116.720 97.785, 122.908 95.426, 124.766 " fill="none" stroke="rgb(0, 0, 0)" stroke-linecap="butt" stroke-linejoin="round" stroke-opacity="1.0" stroke-width="3.0" />
            <path d=" M 43.011, 82.641 50.806, 88.906 58.601, 95.170 66.395, 101.435 74.190, 107.699 81.985, 113.963 84.122, 115.681 91.916, 121.946 95.426, 124.766 97.757, 134.491 100.087, 144.216 102.418, 153.940 104.748, 163.665 107.172, 173.779 " fill="none" stroke="rgb(0, 0, 0)" stroke-linecap="butt" stroke-linejoin="round" stroke-opacity="1.0" stroke-width="3.0" />
            <path d=" M 207.755, 88.808 197.777, 88.139 187.800, 87.471 177.822, 86.802 167.844, 86.134 157.867, 85.466 147.889, 84.797 146.295, 84.690 142.883, 75.291 139.470, 65.891 136.058, 56.491 133.380, 49.114 129.968, 39.714 126.556, 30.315 125.547, 27.536 " fill="none" stroke="rgb(0, 0, 0)" stroke-linecap="butt" stroke-linejoin="round" stroke-opacity="1.0" stroke-width="3.0" />
            <path d=" M 56.039, 40.586 53.080, 50.138 50.121, 59.690 48.383, 65.302 45.424, 74.854 43.011, 82.641 39.635, 92.054 36.259, 101.467 32.882, 110.879 30.326, 118.005 " fill="none" stroke="rgb(0, 0, 0)" stroke-linecap="butt" stroke-linejoin="round" stroke-opacity="1.0" stroke-width="3.0" />
            <path d=" M 156.062, -9.834 146.538, -6.785 137.014, -3.736 127.490, -0.687 117.966, 2.361 108.442, 5.410 98.918, 8.459 89.394, 11.508 87.514, 12.110 77.990, 15.158 68.467, 18.207 60.447, 20.774 57.323, 30.274 54.198, 39.773 51.074, 49.273 48.883, 55.936 48.730, 56.399 46.068, 64.493 42.956, 73.958 40.199, 83.570 37.443, 93.183 34.687, 102.796 31.931, 112.408 30.326, 118.005 35.248, 126.710 40.170, 135.415 45.092, 144.120 50.014, 152.825 51.397, 155.269 56.319, 163.974 61.241, 172.679 66.163, 181.384 67.051, 182.955 76.438, 186.404 85.825, 189.852 90.557, 191.590 97.710, 194.218 " fill="none" stroke="rgb(0, 0, 0)" stroke-linecap="butt" stroke-linejoin="round" stroke-opacity="1.0" stroke-width="3.0" />
            <path d=" M 240.297, 132.696 243.123, 126.591 242.479, 116.612 241.834, 106.633 241.190, 96.654 240.545, 86.674 239.901, 76.695 239.452, 69.739 238.807, 59.759 238.516, 55.247 238.307, 52.011 238.270, 51.438 232.206, 43.486 226.143, 35.534 220.079, 27.583 219.083, 26.277 211.065, 20.301 203.047, 14.325 195.029, 8.349 187.011, 2.373 183.526, -0.225 " fill="none" stroke="rgb(0, 0, 0)" stroke-linecap="butt" stroke-linejoin="round" stroke-opacity="1.0" stroke-width="3.0" />
            <path d=" M 219.083, 26.277 217.300, 36.117 215.518, 45.956 213.735, 55.796 211.953, 65.636 210.170, 75.476 208.387, 85.316 207.755, 88.808 210.085, 98.532 212.416, 108.257 214.746, 117.982 214.980, 118.956 216.761, 126.390 " fill="none" stroke="rgb(0, 0, 0)" stroke-linecap="butt" stroke-linejoin="round" stroke-opacity="1.0" stroke-width="3.0" />
            <path d=" M 183.526, -0.225 174.506, 4.094 172.012, 5.288 162.992, 9.606 153.973, 13.925 144.954, 18.244 135.934, 22.562 126.915, 26.881 125.547, 27.536 115.718, 29.381 105.890, 31.226 96.062, 33.072 86.234, 34.917 76.405, 36.762 66.577, 38.608 56.749, 40.453 56.039, 40.586 58.211, 30.825 60.383, 21.063 60.447, 20.774 " fill="none" stroke="rgb(0, 0, 0)" stroke-linecap="butt" stroke-linejoin="round" stroke-opacity="1.0" stroke-width="3.0" />
            <path d=" M 43.651, -17.329 40.527, -7.830 37.403, 1.669 34.278, 11.169 31.154, 20.668 28.030, 30.168 26.160, 35.854 " fill="none" stroke="rgb(0, 0, 0)" stroke-linecap="butt" stroke-linejoin="round" stroke-opacity="1.0" stroke-width="3.0" />
            <path d=" M 46.068, 64.493 37.369, 61.449 29.351, 55.473 21.333, 49.497 13.315, 43.521 5.297, 37.545 1.812, 34.947 -4.252, 26.995 -10.316, 19.043 -16.380, 11.091 -17.375, 9.786 -8.796, 14.923 -0.216, 20.060 8.363, 25.197 16.943, 30.335 25.522, 35.472 26.160, 35.854 33.555, 42.585 40.950, 49.317 48.345, 56.049 48.730, 56.399 " fill="none" stroke="rgb(0, 0, 0)" stroke-linecap="butt" stroke-linejoin="round" stroke-opacity="1.0" stroke-width="3.0" />
            <path d=" M -48.696, 186.192 -38.885, 188.127 -29.074, 190.062 -19.263, 191.996 -9.452, 193.931 0.359, 195.866 10.170, 197.801 19.981, 199.736 25.243, 200.773 25.441, 200.812 " fill="none" stroke="rgb(0, 0, 0)" stroke-linecap="butt" stroke-linejoin="round" stroke-opacity="1.0" stroke-width="3.0" />
            <path d=" M 30.295, 275.965 29.651, 265.986 29.006, 256.007 28.362, 246.027 27.717, 236.048 27.073, 226.069 26.428, 216.090 25.784, 206.111 25.441, 200.812 29.642, 191.738 33.844, 182.663 38.045, 173.588 42.246, 164.514 42.780, 163.360 " fill="none" stroke="rgb(0, 0, 0)" stroke-linecap="butt" stroke-linejoin="round" stroke-opacity="1.0" stroke-width="3.0" />
            <path d=" M -12.636, 336.663 -3.956, 331.697 2.468, 328.022 4.347, 326.947 7.463, 325.165 16.143, 320.199 24.823, 315.233 25.292, 314.964 33.972, 309.999 42.652, 305.033 46.231, 302.985 49.481, 301.126 51.264, 291.286 53.047, 281.446 54.829, 271.606 56.612, 261.767 56.933, 259.993 56.983, 259.717 58.766, 249.877 60.380, 240.969 60.810, 238.595 58.480, 228.871 56.149, 219.146 53.819, 209.422 53.391, 207.636 51.060, 197.912 48.730, 188.187 46.344, 178.233 44.014, 168.508 42.780, 163.360 34.985, 157.095 27.191, 150.831 19.396, 144.567 19.103, 144.331 11.308, 138.066 3.513, 131.802 -3.501, 126.165 " fill="none" stroke="rgb(0, 0, 0)" stroke-linecap="butt" stroke-linejoin="round" stroke-opacity="1.0" stroke-width="3.0" />
            <path d=" M -65.320, 306.573 -55.796, 303.524 -46.272, 300.476 -36.748, 297.427 -27.224, 294.378 -17.700, 291.329 -8.176, 288.280 1.348, 285.232 10.872, 282.183 20.396, 279.134 28.715, 276.471 30.295, 275.965 34.979, 282.108 41.043, 290.060 47.106, 298.012 49.481, 301.126 " fill="none" stroke="rgb(0, 0, 0)" stroke-linecap="butt" stroke-linejoin="round" stroke-opacity="1.0" stroke-width="3.0" />
            <path d=" M 18.066, 349.219 14.033, 340.069 9.999, 330.918 7.463, 325.165 " fill="none" stroke="rgb(0, 0, 0)" stroke-linecap="butt" stroke-linejoin="round" stroke-opacity="1.0" stroke-width="3.0" />
            <path d=" M 51.397, 155.269 49.248, 165.036 47.099, 174.802 46.344, 178.233 " fill="none" stroke="rgb(0, 0, 0)" stroke-linecap="butt" stroke-linejoin="round" stroke-opacity="1.0" stroke-width="3.0" />
            <path d=" M 60.380, 240.969 64.413, 250.120 67.820, 257.849 " fill="none" stroke="rgb(0, 0, 0)" stroke-linecap="butt" stroke-linejoin="round" stroke-opacity="1.0" stroke-width="3.0" />
            <path d=" M 68.499, 257.732 72.832, 248.719 77.165, 239.707 81.498, 230.694 85.830, 221.682 90.163, 212.669 92.355, 208.111 95.418, 208.599 " fill="none" stroke="rgb(0, 0, 0)" stroke-linecap="butt" stroke-linejoin="round" stroke-opacity="1.0" stroke-width="3.0" />
            <path d=" M 89.435, 388.381 92.191, 378.768 94.947, 369.155 96.381, 364.154 " fill="none" stroke="rgb(0, 0, 0)" stroke-linecap="butt" stroke-linejoin="round" stroke-opacity="1.0" stroke-width="3.0" />
            <path d=" M 99.992, 275.810 90.605, 272.362 81.219, 268.914 76.489, 267.177 67.102, 263.729 57.716, 260.280 56.933, 259.993 " fill="none" stroke="rgb(0, 0, 0)" stroke-linecap="butt" stroke-linejoin="round" stroke-opacity="1.0" stroke-width="3.0" />
            <path d=" M 168.509, 420.959 166.360, 430.725 164.211, 440.492 163.456, 443.923 " fill="none" stroke="rgb(0, 0, 0)" stroke-linecap="butt" stroke-linejoin="round" stroke-opacity="1.0" stroke-width="3.0" />
            <path d=" M 177.492, 506.659 181.525, 515.810 184.932, 523.539 " fill="none" stroke="rgb(0, 0, 0)" stroke-linecap="butt" stroke-linejoin="round" stroke-opacity="1.0" stroke-width="3.0" />
            <path d=" M 293.549, 183.916 293.554, 183.905 " fill="none" stroke="rgb(0, 0, 0)" stroke-linecap="butt" stroke-linejoin="round" stroke-opacity="1.0" stroke-width="3.0" />
            <path d=" M 293.330, 155.640 288.997, 164.652 286.083, 170.713 " fill="none" stroke="rgb(0, 0, 0)" stroke-linecap="butt" stroke-linejoin="round" stroke-opacity="1.0" stroke-width="3.0" />
            <path d=" M 317.015, 181.065 320.620, 189.243 " fill="none" stroke="rgb(0, 0, 0)" stroke-linecap="butt" stroke-linejoin="round" stroke-opacity="1.0" stroke-width="3.0" />
            <path d=" M 322.881, 282.043 325.840, 272.491 328.630, 263.483 338.598, 262.679 348.566, 261.875 358.533, 261.070 368.501, 260.266 373.025, 259.901 " fill="none" stroke="rgb(0, 0, 0)" stroke-linecap="butt" stroke-linejoin="round" stroke-opacity="1.0" stroke-width="3.0" />
            <path d=" M 358.569, 366.484 362.902, 357.471 363.879, 355.440 367.857, 352.523 " fill="none" stroke="rgb(0, 0, 0)" stroke-linecap="butt" stroke-linejoin="round" stroke-opacity="1.0" stroke-width="3.0" />
            <path d=" M 382.770, 232.734 378.737, 223.584 374.703, 214.433 370.670, 205.283 370.048, 203.871 " fill="none" stroke="rgb(0, 0, 0)" stroke-linecap="butt" stroke-linejoin="round" stroke-opacity="1.0" stroke-width="3.0" />
            <path d=" M 397.846, 227.644 395.001, 218.057 392.156, 208.470 390.306, 202.237 " fill="none" stroke="rgb(0, 0, 0)" stroke-linecap="butt" stroke-linejoin="round" stroke-opacity="1.0" stroke-width="3.0" />
            <path d=" M 410.442, 421.330 406.109, 430.342 401.776, 439.355 397.443, 448.368 393.101, 457.400 " fill="none" stroke="rgb(0, 0, 0)" stroke-linecap="butt" stroke-linejoin="round" stroke-opacity="1.0" stroke-width="3.0" />
            <path d=" M 434.127, 446.755 437.732, 454.933 " fill="none" stroke="rgb(0, 0, 0)" stroke-linecap="butt" stroke-linejoin="round" stroke-opacity="1.0" stroke-width="3.0" />
            <path d=" M 444.748, 8.073 443.667, -1.869 443.588, -2.591 " fill="none" stroke="rgb(0, 0, 0)" stroke-linecap="butt" stroke-linejoin="round" stroke-opacity="1.0" stroke-width="3.0" />
            <path d=" M 443.712, 212.961 439.678, 203.811 435.645, 194.660 433.109, 188.906 " fill="none" stroke="rgb(0, 0, 0)" stroke-linecap="butt" stroke-linejoin="round" stroke-opacity="1.0" stroke-width="3.0" />
            <path d=" M 477.043, 19.011 474.894, 28.777 472.745, 38.544 471.990, 41.975 " fill="none" stroke="rgb(0, 0, 0)" stroke-linecap="butt" stroke-linejoin="round" stroke-opacity="1.0" stroke-width="3.0" />
            <path d=" M 486.026, 104.711 490.059, 113.861 493.466, 121.591 " fill="none" stroke="rgb(0, 0, 0)" stroke-linecap="butt" stroke-linejoin="round" stroke-opacity="1.0" stroke-width="3.0" />
            <path d=" M 494.145, 121.474 498.478, 112.461 502.811, 103.449 507.143, 94.436 511.476, 85.424 515.809, 76.411 518.001, 71.853 521.064, 72.341 " fill="none" stroke="rgb(0, 0, 0)" stroke-linecap="butt" stroke-linejoin="round" stroke-opacity="1.0" stroke-width="3.0" />
            <path d=" M 515.081, 252.123 517.837, 242.510 520.593, 232.897 522.027, 227.895 " fill="none" stroke="rgb(0, 0, 0)" stroke-linecap="butt" stroke-linejoin="round" stroke-opacity="1.0" stroke-width="3.0" />
            <path d=" M 525.638, 139.552 516.252, 136.104 506.865, 132.656 502.135, 130.919 492.748, 127.470 483.362, 124.022 482.579, 123.735 " fill="none" stroke="rgb(0, 0, 0)" stroke-linecap="butt" stroke-linejoin="round" stroke-opacity="1.0" stroke-width="3.0" />
            <path d=" M 594.155, 284.701 592.006, 294.467 589.857, 304.234 589.102, 307.665 " fill="none" stroke="rgb(0, 0, 0)" stroke-linecap="butt" stroke-linejoin="round" stroke-opacity="1.0" stroke-width="3.0" />
            <path d=" M 603.138, 370.401 607.171, 379.551 610.578, 387.281 " fill="none" stroke="rgb(0, 0, 0)" stroke-linecap="butt" stroke-linejoin="round" stroke-opacity="1.0" stroke-width="3.0" />
            <path d=" M 719.195, 47.658 719.200, 47.647 " fill="none" stroke="rgb(0, 0, 0)" stroke-linecap="butt" stroke-linejoin="round" stroke-opacity="1.0" stroke-width="3.0" />
            <path d=" M 718.976, 19.382 714.643, 28.394 711.729, 34.455 " fill="none" stroke="rgb(0, 0, 0)" stroke-linecap="butt" stroke-linejoin="round" stroke-opacity="1.0" stroke-width="3.0" />
            <path d=" M 742.661, 44.806 746.266, 52.985 " fill="none" stroke="rgb(0, 0, 0)" stroke-linecap="butt" stroke-linejoin="round" stroke-opacity="1.0" stroke-width="3.0" />
            <path d=" M 748.527, 145.785 751.486, 136.233 754.276, 127.225 764.244, 126.421 774.211, 125.616 784.179, 124.812 794.147, 124.008 798.672, 123.643 " fill="none" stroke="rgb(0, 0, 0)" stroke-linecap="butt" stroke-linejoin="round" stroke-opacity="1.0" stroke-width="3.0" />
            <path d=" M 784.215, 230.225 788.548, 221.213 789.525, 219.181 793.503, 216.265 " fill="none" stroke="rgb(0, 0, 0)" stroke-linecap="butt" stroke-linejoin="round" stroke-opacity="1.0" stroke-width="3.0" />
            <path d=" M 808.416, 96.476 804.383, 87.326 800.349, 78.175 796.316, 69.025 795.694, 67.613 " fill="none" stroke="rgb(0, 0, 0)" stroke-linecap="butt" stroke-linejoin="round" stroke-opacity="1.0" stroke-width="3.0" />
            <path d=" M 823.492, 91.385 820.647, 81.799 817.802, 72.212 815.952, 65.978 " fill="none" stroke="rgb(0, 0, 0)" stroke-linecap="butt" stroke-linejoin="round" stroke-opacity="1.0" stroke-width="3.0" />
            <path d=" M 836.088, 285.072 831.755, 294.084 827.422, 303.097 823.089, 312.109 818.747, 321.141 " fill="none" stroke="rgb(0, 0, 0)" stroke-linecap="butt" stroke-linejoin="round" stroke-opacity="1.0" stroke-width="3.0" />
            <path d=" M 859.773, 310.496 863.378, 318.675 " fill="none" stroke="rgb(0, 0, 0)" stroke-linecap="butt" stroke-linejoin="round" stroke-opacity="1.0" stroke-width="3.0" />
            <path d=" M 869.358, 76.703 865.324, 67.552 861.291, 58.402 858.755, 52.648 " fill="none" stroke="rgb(0, 0, 0)" stroke-linecap="butt" stroke-linejoin="round" stroke-opacity="1.0" stroke-width="3.0" />
            <path d=" M 940.727, 115.864 943.483, 106.252 946.239, 96.639 947.673, 91.637 " fill="none" stroke="rgb(0, 0, 0)" stroke-linecap="butt" stroke-linejoin="round" stroke-opacity="1.0" stroke-width="3.0" />
            <path d=" M 951.284, 3.294 941.897, -0.154 932.510, -3.602 927.781, -5.340 " fill="none" stroke="rgb(0, 0, 0)" stroke-linecap="butt" stroke-linejoin="round" stroke-opacity="1.0" stroke-width="3.0" />
            <path d=" M 952.042, 439.144 961.566, 436.095 971.089, 433.047 980.613, 429.998 990.137, 426.949 999.661, 423.900 1003.797, 422.576 " fill="none" stroke="rgb(0, 0, 0)" stroke-linecap="butt" stroke-linejoin="round" stroke-opacity="1.0" stroke-width="3.0" />
        </g>
    </g>
</svg>
