<svg id="Layer_1" data-name="Layer 1" xmlns="http://www.w3.org/2000/svg" viewBox="0 0 1700.75 1229.83"><defs><style>.cls-1,.cls-2{fill:none;stroke:#000;stroke-linejoin:round;stroke-width:3px;}.cls-2{stroke-linecap:round;stroke-dasharray:10 10;}</style></defs><title>final_label_4_30</title><path d="M217.13,499.47c0-8,10.44-13.94,11.15-13,8.73,12.79,25,23.47,46.11,23.51,21.3,0,33.38-8.7,33.41-23.84,0-17.28-18-21.33-38.29-26.1-23.66-5.48-48.25-13.81-48.2-44.81,0-26,22.56-44.45,55.22-44.4C310.6,370.89,329,387,329,398.13c0,8.76-10.91,14.18-11.38,13.47-8-11.61-23.16-20.63-40.91-20.66-19.17,0-31.73,9.17-31.75,23.37,0,16.8,14.88,19.43,36.17,24.44,26,6,51.09,16.18,51,45.76,0,28.16-21.85,45.64-57.59,45.58C237.67,530,217.11,512,217.13,499.47Z" transform="translate(-10.35 -37.5)"/><path d="M362.36,414.76c0-.71,3.79-2.6,8.52-2.59,6.86,0,14.43,3.81,14.64,19.91,8.78-13.48,21.81-21.5,40-21.47,30.53.05,53.21,23.52,53.15,59.73-.06,35.74-22.59,60.07-54.06,60-18.93,0-32.64-10-39-21.37l-.11,63.19-23.43,0ZM456,470.54c0-23.67-14.6-40.49-35-40.53-17.51,0-29.6,9.18-35.54,23.6l0,23.9c0,19.17,16,33.4,35,33.43C441.71,511,455.94,494.68,456,470.54Z" transform="translate(-10.35 -37.5)"/><path d="M501.13,497.59c0-26.27,25.15-37.59,76.51-38.44h3.08v-2.37c0-17.28-9.89-26.76-28.12-26.79-17.28,0-27.47,8.95-32.69,19.35,0,.24-14.44,0-14.42-11.38,0-10.89,16.61-27.19,48.8-27.13s49.67,16.65,49.62,45.53l-.12,71.24-23,0s.24-3.31,0-17c-8.78,12.29-23.7,19.6-41,19.57C515.51,530,501.1,517,501.13,497.59Zm79.54-15v-8.76l-6.39.23c-33.13,1.13-50.18,7.25-50.21,22.63,0,10.18,8,16.58,21.51,16.6C566,513.33,580.65,500.57,580.68,482.58Z" transform="translate(-10.35 -37.5)"/><path d="M631.82,470.6c.06-34.55,25.19-59.6,59.27-59.54,33.84.06,48.72,20.91,48.7,31.56,0,9.7-13.27,11.57-14,10.39-5.18-12.55-14.87-22.27-34.28-22.31-21.3,0-37.42,16.74-37.46,39.93,0,23.43,15.79,40.5,37.32,40.53,19.17,0,29.13-9.65,34.35-22.19.71-1.18,14,.5,13.95,10.67,0,10.41-15.2,31.21-48.81,31.16C656.57,530.76,631.76,505.63,631.82,470.6Z" transform="translate(-10.35 -37.5)"/><path d="M761,471.54c.06-34.55,24.72-60.31,58.32-60.25,32.9.06,54.63,23.29,54.57,57.37v1.89c0,5-1.67,6.86-7.11,6.85l-84-.15c1.62,21.07,17.22,35.29,38.75,35.33,19.88,0,29.83-8.7,35.77-18.87.47-.47,12.3,1.68,12.29,11.62S852,531.1,821,531C785.07,531,761,507,761,471.54Zm22-10.14,68.16.12c-1.15-19.64-13.2-32.45-32.13-32.48C800.4,429,785.94,442.47,783.06,461.4Z" transform="translate(-10.35 -37.5)"/><path d="M890.35,414.25l23.67,0v-8.52c0-28.64,13.56-41.87,36.28-41.83,17.51,0,25.55,7.38,25.53,15.43,0,6.63-5.22,10.64-5.7,10.17-3.31-3.32-9.93-6.64-17-6.66-11.36,0-16.34,7.07-16.37,23.16v8.28l29.35.05,0,19.17-28.87,0L937,528.17l-23.19,0,.16-94.66-23.67,0Zm95-37.23c0-8.52,5.23-13.24,14-13.23,9,0,14,4.76,13.94,13.28s-5.23,13-14,13S985.3,385.31,985.32,377Zm2,47.57c0-8.52,4.52-11.35,10.43-11.34h2.6c6.15,0,10.41,2.62,10.39,11.38l-.18,103.66-23.43,0Z" transform="translate(-10.35 -37.5)"/><path d="M1048.76,368.38c0-.71,4-2.6,8.52-2.59,7.34,0,14.9,3.81,14.88,20.14l-.25,142.47-23.43,0Z" transform="translate(-10.35 -37.5)"/><path d="M1110.29,368.48c0-.71,4-2.6,8.52-2.59,7.34,0,14.9,3.81,14.88,20.14l-.25,142.47-23.43,0Z" transform="translate(-10.35 -37.5)"/><path d="M1163.84,472.23c.06-34.55,24.72-60.31,58.32-60.25,32.9.06,54.63,23.29,54.57,57.37v1.89c0,5-1.67,6.86-7.11,6.85l-84-.15c1.62,21.06,17.22,35.29,38.75,35.33,19.88,0,29.83-8.7,35.77-18.87.47-.47,12.3,1.68,12.29,11.62s-17.56,25.77-48.56,25.71C1187.87,531.68,1163.78,507.73,1163.84,472.23Zm22-10.14,68.16.12c-1.15-19.64-13.2-32.45-32.13-32.48C1203.2,429.7,1188.74,443.17,1185.86,462.1Z" transform="translate(-10.35 -37.5)"/><path d="M1328.86,433.71c5-14,14.47-21.51,28.91-21.49,11.83,0,18.69,5.71,18.67,15.18,0,9-6.65,12.53-7.12,12.06a22.05,22.05,0,0,0-14.43-5c-18.46,0-25.83,17.94-25.87,44.21l-.09,50.17-23.43,0,.2-112.41c0-.71,3.79-2.6,8.52-2.59C1321.08,413.81,1328.65,417.61,1328.86,433.71Z" transform="translate(-10.35 -37.5)"/><path d="M1392.39,507.66c0-7.34,8.54-11.11,9.25-10.63,7.56,9.72,20.32,17.08,38.31,17.11,16.09,0,25.1-5.87,25.11-15.34,0-11.6-10.63-13.74-29.32-17.8-16.8-3.58-40-8.83-39.94-33,0-21.3,17.81-35.71,45.5-35.66,29.11.05,43.76,12.38,43.74,23,0,7.34-9,11.58-9.49,10.87-7.08-9.48-18.9-16.13-33.34-16.15-16.09,0-24.62,6.11-24.64,15.58,0,10.41,9.92,12.8,28.37,16.85,17.51,3.82,41.87,9.07,41.83,33.68,0,21.77-18,35.71-47.39,35.65C1408.68,531.82,1392.38,518.54,1392.39,507.66Z" transform="translate(-10.35 -37.5)"/><path class="cls-1" d="M1277.94,578.45,1263.74,566l-18.65,3.68-18.65,3.68-18.65,3.68-17.6,3.47-15.41,11.13-13.6,9.82-4,18.59-4,18.59-1.8,8.45,4.87,18.37,4.87,18.37.86,3.25,13.91,13,13.91,13,12.3,11.46,19-.09,19-.09h1.48l17.89-6.43,17.89-6.43,11.13-4,7.71-17.38,4.89-11,4.3-18.52,4.3-18.52,4.3-18.52.23-1-2.89-7-12.74-14.11L1286,587.33l-8-8.88" transform="translate(-10.35 -37.5)"/><path class="cls-1" d="M1161.19,601.49l14.2,12.43" transform="translate(-10.35 -37.5)"/><path class="cls-1" d="M1172.42,672.76l1-19,1-19,1-19,.1-1.89,18.65-3.68,18.65-3.68,18.65-3.68,17.6-3.47" transform="translate(-10.35 -37.5)"/><path class="cls-1" d="M1270.49,653.41l-7-17.65-7-17.66-7-17.66-.41-1,15.41-11.13,13.6-9.82" transform="translate(-10.35 -37.5)"/><path class="cls-1" d="M1162.08,687.12l10.34-14.36,18,6.2,18,6.2,17.74,6.13" transform="translate(-10.35 -37.5)"/><path class="cls-1" d="M1241.7,724.32l-8.12-17.19-7.48-15.83L1240.56,679,1255,666.61l14.46-12.34,1-.86,18.41,4.76,8.63,2.23" transform="translate(-10.35 -37.5)"/><path class="cls-1" d="M1288.6,707.45l3.54-18.68,3.54-18.68,1.84-9.7,5.63-18.16,5.63-18.15,2.65-8.53" transform="translate(-10.35 -37.5)"/><path class="cls-1" d="M1527.71,183.54l-17.9,6.4-17.9,6.4-11.14,4L1473,217.69l-4.91,11-4.33,18.51-4.33,18.51-4.33,18.51-.23,1,2.88,7,12.71,14.13,12.71,14.13,8,8.9,14.18,12.45,18.66-3.65,18.66-3.65,18.65-3.65,17.61-3.44,15.43-11.11,13.61-9.8,4-18.59,4-18.59,1.81-8.44L1613,242.51l-4.84-18.38-.86-3.25-13.89-13-13.89-13-12.28-11.48-19,.05-19,.05h-1.48" transform="translate(-10.35 -37.5)"/><path class="cls-1" d="M1468.13,228.72l19-.05,19-.05h1.48" transform="translate(-10.35 -37.5)"/><path class="cls-1" d="M1515.73,278.34l-3.06-18.76-3.06-18.76-2-12.21,17.9-6.4,17.9-6.4,11.14-4" transform="translate(-10.35 -37.5)"/><path class="cls-1" d="M1590.4,258.73l-11.54-15.11-11.54-15.11-11.54-15.11-1.22-1.59,7.74-17.36,4.91-11" transform="translate(-10.35 -37.5)"/><path class="cls-1" d="M1454.91,285.22l13.16,13.72,7.43,7.74" transform="translate(-10.35 -37.5)"/><path class="cls-1" d="M1505.39,341.8l-12.32-14.47-12.32-14.47-5.25-6.16L1491,295.74l15.54-10.95,9.15-6.45,18.78,3,18.77,3,18.78,3,1.54.24" transform="translate(-10.35 -37.5)"/><path class="cls-1" d="M1579,327.41l-2.53-18.84-2.54-18.84-.3-2.23,9.58-16.42,7.21-12.36,19,1.49,8.45.67" transform="translate(-10.35 -37.5)"/><path class="cls-1" d="M1128,199.66l8.39-17.06,8.39-17.06,5.22-10.62-6.54-17.85-4.16-11.34-9.78-16.3-9.78-16.3L1110,76.84l-.52-.86-6.91-3-19-1.29-19-1.29-11.94-.81-18.85.94L1023,86.15l-10.85,15.61-10.85,15.61L991.05,132.1l-3.34,18.71-2.95,16.51,10.08,16.12,10.08,16.12,4.58,7.32,16.28,9.82,16.28,9.82,2.88,1.74,19-.35,19-.35,16.81-.31,13.6-13.28L1127,200.7l1.06-1" transform="translate(-10.35 -37.5)"/><path class="cls-1" d="M1139.33,125.74,1125.72,139l-13.6,13.28-1.06,1" transform="translate(-10.35 -37.5)"/><path class="cls-1" d="M1070.61,123.28l15.26,11.34L1101.13,146l9.93,7.37-8.39,17.06-8.38,17.06-5.22,10.62" transform="translate(-10.35 -37.5)"/><path class="cls-1" d="M1030.68,189.35l18.8,2.8,18.8,2.81,18.8,2.81,2,.29,6.54,17.85,4.15,11.34" transform="translate(-10.35 -37.5)"/><path class="cls-1" d="M1109.46,76l-19-.68-10.72-.38" transform="translate(-10.35 -37.5)"/><path class="cls-1" d="M1033.83,70.54l18.92,1.81,18.92,1.81,8.06.77-3.53,18.68-3.53,18.68-2.08,11-15.55,10.94-15.54,10.94L1024,156.11l-1.27.9" transform="translate(-10.35 -37.5)"/><path class="cls-1" d="M991.05,132.1,1006,143.86l14.94,11.75,1.77,1.39,4.56,18.46,3.43,13.89L1016,201.48l-6.53,5.41" transform="translate(-10.35 -37.5)"/><path class="cls-1" d="M869.08,260.18l19,1.29,19,1.29,11.94.81" transform="translate(-10.35 -37.5)"/><path class="cls-1" d="M940.12,305.47l-8.57-17-8.57-17-4-8L929.8,248l10.85-15.61,10.85-15.61L961.73,202" transform="translate(-10.35 -37.5)"/><path class="cls-1" d="M997.16,223.39l-16.27-9.82-16.28-9.82L961.73,202l-10.08-16.12-10.08-16.12L937,162.45" transform="translate(-10.35 -37.5)"/><path class="cls-1" d="M955.84,161.51l-18.85.94-19-1.29-19-1.29-11.94-.81" transform="translate(-10.35 -37.5)"/><path class="cls-1" d="M880.21,156.07l6.91,3-10.85,15.61-10.85,15.61-10.85,15.61-10.24,14.73" transform="translate(-10.35 -37.5)"/><path class="cls-1" d="M823.17,238.16,837.81,226l6.53-5.41,10.08,16.12,10.08,16.12,4.58,7.32-3.34,18.71L862.8,295.4" transform="translate(-10.35 -37.5)"/><path class="cls-1" d="M940.12,305.47l16.36-9.67,16.37-9.67,9.94-5.88,4.66-18.43,4.66-18.43L996.77,225l.4-1.57-2.55-17.51L982.1,191.56l-12.51-14.31-12.51-14.31-1.24-1.42-18.92-1.81L918,157.9l-8.06-.77-19-.68-10.73-.38-11.83,14.88-11.83,14.88-11.87,14.93-9.47,16.48-9.47,16.48-2.55,4.44,4.56,18.46,3.43,13.89,14.94,11.75L861,294l1.77,1.39,17.34,7.79L897.47,311l17.34,7.79,1,.46,16.54-9.38,7.75-4.39" transform="translate(-10.35 -37.5)"/><path class="cls-1" d="M1203.91,259l17.78,6.72,16.38,6.18,17.23-8,17.23-8,17-7.93,8.81-16.85,8.91-17,2.6-18.83,2.6-18.83,1.27-9.24L1301.07,153l-12.26-13.71-16.48-9.48-16.48-9.48-16.48-9.48-14.08-8.11-12.37,6.41-16.44,9.55L1180,128.22l-10.91,6.33-10.8,7.16-1.81,18.92-1.81,18.92-1.81,18.92-.13,1.32,6.54,17.85,4.16,11.34,15.26,11.34L1194,251.67l9.93,7.37" transform="translate(-10.35 -37.5)"/><path class="cls-1" d="M1238.07,271.94l-6.54-17.85-4.16-11.34" transform="translate(-10.35 -37.5)"/><path class="cls-1" d="M1275.29,209,1259.74,220l-15.55,10.94-15.55,10.94-1.27.9-15.26-11.34-15.26-11.34-9.93-7.37" transform="translate(-10.35 -37.5)"/><path class="cls-1" d="M1208.92,168,1200.53,185l-8.39,17.06-5.22,10.62L1169.14,206l-16.38-6.19" transform="translate(-10.35 -37.5)"/><path class="cls-1" d="M1307.26,214.06l-18.78-3-13.2-2.08-4.55-18.46-3.43-13.89" transform="translate(-10.35 -37.5)"/><path class="cls-1" d="M1288.8,139.28l-9.47,16.48-9.47,16.48-2.55,4.44-18.8-2.8-18.8-2.81-18.8-2.81-2-.3-10.44-15.89L1188,136.2l-5.42-8.25" transform="translate(-10.35 -37.5)"/><path class="cls-1" d="M1225.29,102.72l-16.37,9.67-16.36,9.67-9.94,5.88-16.54,9.37-7.75,4.4" transform="translate(-10.35 -37.5)"/><path class="cls-1" d="M520.74,660.79l-16.74-9-16.74-9-10.42-5.61L458.76,643l-11.48,3.74L430.63,656,414,665.13l-16.65,9.18-.88.48-3.24,6.8-2,18.91-2,18.9L388,731.3l.24,18.87,15.2,11.42L418.64,773l15.2,11.41,14.35,10.77,18.58,4,16.39,3.55,16.48-9.48,16.48-9.48,7.48-4.31L534,763.59l10.41-15.9,1.84-2.81.35-19,.35-19,.16-8.72.15-8.09-.36-.4-1.75-1.93-12.77-14.08-11.65-12.86" transform="translate(-10.35 -37.5)"/><path class="cls-1" d="M447.28,646.78,460,660.86l12.77,14.08,1,1.1" transform="translate(-10.35 -37.5)"/><path class="cls-1" d="M442.3,715.36l11.89-14.83,11.89-14.83,7.74-9.65,16.74,9,16.74,9,10.42,5.61" transform="translate(-10.35 -37.5)"/><path class="cls-1" d="M506.85,757.69l3.5-18.69,3.49-18.69,3.5-18.69.37-2,18.08-5.88,8.35-2.72,3.13-1" transform="translate(-10.35 -37.5)"/><path class="cls-1" d="M396.46,674.79l-1.38,19-.78,10.7" transform="translate(-10.35 -37.5)"/><path class="cls-1" d="M388.24,750.17l2.5-18.84,2.5-18.84,1.06-8,18.54,4.21,18.54,4.21,10.92,2.48,10.36,15.94L463,747.24l10.36,15.94.85,1.31" transform="translate(-10.35 -37.5)"/><path class="cls-1" d="M448.18,795.19l12.3-14.5,12.3-14.5,1.46-1.71,18.61-3.87,14-2.91,11.58,15.08,5.17,6.72" transform="translate(-10.35 -37.5)"/><path class="cls-1" d="M707.57,671.47l-14.63,12.14-14.15,11.75" transform="translate(-10.35 -37.5)"/><path class="cls-1" d="M635.45,658.21l14.43,12.37L664.31,683l14.48,12.41L668.7,711.48,658.62,727.6l-10.08,16.12-8.62,13.78" transform="translate(-10.35 -37.5)"/><path class="cls-1" d="M583.62,741l18.25,5.33,18.25,5.33L638.36,757l1.56.46,5.95,12.6" transform="translate(-10.35 -37.5)"/><path class="cls-1" d="M547.12,698.14l7.39,17.52,7.39,17.51,4.12,9.77,16.51,9.42,16.7,9.53L618,765.18l18.72,3.29,9.18,1.61,14.63-12.14,14.15-11.75,10.08-16.12L694.81,714l10.08-16.12,8.62-13.78-5.95-12.6-8.94-16.78-8.94-16.78-5.93-11.13L677,615.72l-18.84-2.51-18.84-2.51-18.84-2.51-1.32-.18-18.08,5.88-11.48,3.74-11.89,14.83L565.83,647.3l-7.73,9.65-7.37,17.52-5.57,13.25" transform="translate(-10.35 -37.5)"/><path class="cls-1" d="M637.6,628.54l-1.38,19-.78,10.7-16.65,9.18-16.65,9.18-16.65,9.18-.88.48" transform="translate(-10.35 -37.5)"/><path class="cls-1" d="M558.09,656.95,570.86,671l12.77,14.08,1,1.1-.35,19-.35,19L583.62,741,566,742.94" transform="translate(-10.35 -37.5)"/><path class="cls-1" d="M683.77,626.78l-19,.72-19,.72-8.18.31-18.54-4.21-18.54-4.21-10.92-2.48" transform="translate(-10.35 -37.5)"/><path class="cls-1" d="M84.48,510.83,66.6,517.27,48.71,523.7l-11.13,4-7.71,17.38-4.89,11-4.3,18.52-4.3,18.52-4.3,18.52-.23,1,2.89,7,12.74,14.11,12.74,14.11,8,8.88,14.2,12.43,18.65-3.68,18.65-3.68,18.65-3.68,17.6-3.48,15.41-11.13,13.6-9.82,4-18.59,4-18.59,1.8-8.45-4.87-18.37L165,551.28,164.1,548l-13.91-13-13.91-13L124,510.65l-19,.09-19,.09H84.48" transform="translate(-10.35 -37.5)"/><path class="cls-1" d="M25,556.12,44,556,63,556h1.48" transform="translate(-10.35 -37.5)"/><path class="cls-1" d="M72.67,605.66,69.58,586.9l-3.09-18.76-2-12.2,17.89-6.43,17.89-6.43,11.13-4" transform="translate(-10.35 -37.5)"/><path class="cls-1" d="M147.29,585.92l-11.56-15.09-11.57-15.09L112.6,540.66l-1.22-1.59,7.71-17.38,4.9-11" transform="translate(-10.35 -37.5)"/><path class="cls-1" d="M11.85,612.65,25,626.34l7.44,7.73" transform="translate(-10.35 -37.5)"/><path class="cls-1" d="M62.44,669.14,50.09,654.68,37.74,640.23l-5.26-6.16L48,623.1l15.52-11,9.14-6.47,18.78,2.94,18.78,2.94L129,614.48l1.54.24" transform="translate(-10.35 -37.5)"/><path class="cls-1" d="M136,654.62l-2.57-18.83L130.85,617l-.3-2.23,9.55-16.43,7.19-12.37,19,1.46,8.45.65" transform="translate(-10.35 -37.5)"/><path class="cls-1" d="M558.57,153l-18.65,3.68-18.65,3.68-18.65,3.68L485,167.53l-5.63,18.16-5.63,18.16-2.65,8.53L467.56,231,464,249.72l-1.84,9.7,11.56,15.09,11.57,15.09,11.57,15.09,1.22,1.59,19,1.46,8.45.65,18.65-3.68L562.8,301l18.65-3.68,17.6-3.48,5.63-18.15,5.63-18.16L613,249l3.54-18.68L620,211.68l1.84-9.7-11.57-15.09L598.76,171.8l-11.57-15.09L586,155.12l-19-1.46-8.45-.65" transform="translate(-10.35 -37.5)"/><path class="cls-1" d="M558.57,153l4.87,18.37,4.87,18.37.86,3.25" transform="translate(-10.35 -37.5)"/><path class="cls-1" d="M519.31,223.9l16.16-10,16.16-10,16.16-10,1.38-.85,13.91,13,13.91,13,12.3,11.46" transform="translate(-10.35 -37.5)"/><path class="cls-1" d="M596.16,286.92l4.3-18.52,4.3-18.52,4.3-18.52.23-1L617,213l4.89-11" transform="translate(-10.35 -37.5)"/><path class="cls-1" d="M471.11,212.37l18.49,4.42,18.49,4.42,11.23,2.69,5.25,18.27,5.25,18.27,5.25,18.27,4.49,15.62" transform="translate(-10.35 -37.5)"/><path class="cls-1" d="M498.1,306.27,516.36,301l18.27-5.26,4.93-1.42,18.85-2.47,18.85-2.47,18.91-2.48,2.89,7" transform="translate(-10.35 -37.5)"/><path class="cls-1" d="M156.43,286.5,143.7,272.39,131,258.27l-8-8.88" transform="translate(-10.35 -37.5)"/><path class="cls-1" d="M136.85,204.55l-5.63,18.15-5.63,18.16-2.65,8.53-18.65,3.68-18.65,3.68L67,260.43l-17.6,3.47" transform="translate(-10.35 -37.5)"/><path class="cls-1" d="M38.78,223.9l4.87,18.38,4.87,18.37.86,3.25-4,18.59-4,18.59-1.8,8.45" transform="translate(-10.35 -37.5)"/><path class="cls-1" d="M25.48,297.11l14.2,12.43,12.74,14.11,12.74,14.11,8,8.89" transform="translate(-10.35 -37.5)"/><path class="cls-1" d="M76.06,353.6l-2.89-7L91.82,343l18.65-3.68,18.65-3.68,17.6-3.47" transform="translate(-10.35 -37.5)"/><path class="cls-1" d="M174.13,334.24l-19-1.46-8.45-.65,4-18.59,4-18.59,1.8-8.45,15.41-11.13,13.6-9.82" transform="translate(-10.35 -37.5)"/><path class="cls-1" d="M136.85,204.55l-18.49-4.42-18.49-4.42L88.65,193,72.48,203,56.32,213l-16.16,10-1.38.85L28.44,238.27l-1,19-1,19-1,19-.1,1.89,12.35,14.45L50.18,326l5.26,6.16,13.19,13.69,7.44,7.73,18.85-2.47,18.85-2.47,18.91-2.48,18.27-5.26,18.27-5.26,4.93-1.42,9.55-16.43,7.19-12.37-2.57-18.84-2.57-18.83-.3-2.23-7-17.66-7-17.66-7-17.65-.41-1-18.41-4.76-8.63-2.23" transform="translate(-10.35 -37.5)"/><path class="cls-1" d="M1676,503.14l-.74,19-.72,18.38" transform="translate(-10.35 -37.5)"/><path class="cls-1" d="M1617.95,547.92l18.85-2.47,18.85-2.47,18.91-2.48,5.25,18.27,5.25,18.27,5.25,18.27,4.49,15.62" transform="translate(-10.35 -37.5)"/><path class="cls-1" d="M1644.94,641.83l16.16-10,16.16-10,16.16-10,1.38-.85,13.35,4" transform="translate(-10.35 -37.5)"/><path class="cls-1" d="M1708.15,614.93l.74-19,.72-18.38-5.25-18.27L1699.1,541l-5.25-18.27-4.49-15.62-13.35-4-18.45-4.56L1639.11,494l-12.24-3-12.74-2.37L1599.66,501l-14.46,12.34-14.46,12.34-1,.86L1562,543.88l-4.9,11,3.09,18.76,3.09,18.76,2,12.2,8.12,17.19,7.48,15.83,18,6.2,18,6.2,17.74,6.13,18-6,18.25-6.06,15-11.73,15-11.73,7.34-5.75" transform="translate(-10.35 -37.5)"/><path class="cls-1" d="M1597.32,526.5l13.19,13.69,7.44,7.73-4.3,18.52-4.3,18.52-4.3,18.52-.23,1" transform="translate(-10.35 -37.5)"/><path class="cls-1" d="M1565.32,604.63l19-.09,19-.09h1.48l13.91,13,13.91,13,12.3,11.46-10.34,14.36" transform="translate(-10.35 -37.5)"/><path class="cls-1" d="M1626.86,491l-12.16,14.61-12.15,14.62-5.23,6.29-15.52,11-15.52,11-9.14,6.47" transform="translate(-10.35 -37.5)"/><circle class="cls-1" cx="274.15" cy="175.5" r="20.5"/><circle class="cls-1" cx="741.15" cy="190.5" r="20.5"/><circle class="cls-1" cx="383.15" cy="271.5" r="20.5"/><line class="cls-1" x1="382.65" y1="251" x2="382.65" y2="81"/><circle class="cls-1" cx="667.15" cy="223.5" r="20.5"/><line class="cls-1" x1="666.65" y1="203" x2="666.65"/><line class="cls-1" x1="741.65" y1="169.5" x2="741.65" y2="88"/><circle class="cls-1" cx="303.15" cy="615.5" r="20.5"/><path class="cls-1" d="M313,369.67" transform="translate(-10.35 -37.5)"/><line class="cls-1" x1="302.65" y1="403.5" x2="302.65" y2="378.83"/><line class="cls-1" x1="302.65" y1="595" x2="302.65" y2="494.36"/><circle class="cls-1" cx="45.15" cy="403.5" r="20.5"/><path class="cls-1" d="M55,200.75" transform="translate(-10.35 -37.5)"/><line class="cls-1" x1="44.65" y1="383" x2="44.65" y2="309.15"/><circle class="cls-1" cx="798.15" cy="537.5" r="20.5"/><path class="cls-1" d="M1715,29.5" transform="translate(-10.35 -37.5)"/><path class="cls-1" d="M808,401" transform="translate(-10.35 -37.5)"/><line class="cls-1" x1="797.65" y1="465.5" x2="797.65" y2="446.83"/><line class="cls-1" x1="797.65" y1="517" x2="797.65" y2="498.79"/><circle class="cls-1" cx="1670.32" cy="298.5" r="20.5"/><line class="cls-1" x1="1669.8" y1="278" x2="1669.8" y2="152"/><circle class="cls-1" cx="995.15" cy="578.5" r="20.5"/><path class="cls-1" d="M1005,93" transform="translate(-10.35 -37.5)"/><line class="cls-1" x1="994.65" y1="316.1" x2="994.65" y2="182.01"/><line class="cls-1" x1="994.65" y1="368.83" x2="994.65" y2="358.83"/><line class="cls-1" x1="994.65" y1="558" x2="994.65" y2="498.53"/><circle class="cls-1" cx="1367.15" cy="310.5" r="20.5"/><line class="cls-1" x1="1366.65" y1="290" x2="1366.65" y2="109"/><circle class="cls-1" cx="1536.15" cy="432.5" r="20.5"/><path class="cls-1" d="M1546,169.49" transform="translate(-10.35 -37.5)"/><line class="cls-1" x1="1535.65" y1="412" x2="1535.65" y2="310.5"/><circle class="cls-1" cx="1348.15" cy="634.5" r="20.5"/><path class="cls-1" d="M1358,406.33" transform="translate(-10.35 -37.5)"/><line class="cls-1" x1="1347.65" y1="614" x2="1347.65" y2="408.11"/><circle class="cls-1" cx="1111.15" cy="774.5" r="20.5"/><path class="cls-1" d="M1121,79.5" transform="translate(-10.35 -37.5)"/><line class="cls-1" x1="1110.65" y1="319.5" x2="1110.65" y2="183.58"/><line class="cls-1" x1="1110.65" y1="755.5" x2="1110.65" y2="498.79"/><circle class="cls-1" cx="865.15" cy="673.5" r="20.5"/><path class="cls-1" d="M875,146.5" transform="translate(-10.35 -37.5)"/><line class="cls-1" x1="864.65" y1="402.17" x2="864.65" y2="281.74"/><line class="cls-1" x1="864.65" y1="653" x2="864.65" y2="448.83"/><circle class="cls-1" cx="220.15" cy="557.5" r="20.5"/><path class="cls-1" d="M230,378.33" transform="translate(-10.35 -37.5)"/><line class="cls-1" x1="219.65" y1="444.17" x2="219.65" y2="412.83"/><line class="cls-1" x1="219.65" y1="537" x2="219.65" y2="489.57"/><path d="M1433.5,713.87a1.88,1.88,0,0,1,1.94-2h7.5c5,0,7.67,2.08,7.67,5.91,0,2.46-1.41,4.12-4,4.89,3.38.77,4.93,2.92,4.93,5.59,0,4.26-2.71,6.37-8.66,6.37h-9.36Zm9,7.88c2.67,0,4.36-1.41,4.36-3.59s-1.48-3.41-4.43-3.41h-5.31v7Zm.14,9.92c3.66,0,5.17-1.09,5.17-3.73q0-3.59-5.07-3.59h-5.63v7.32Z" transform="translate(-10.35 -37.5)"/><path d="M1458.94,740.5l2.82-6.86a1.46,1.46,0,0,1-1.48-1l-6.4-15h3.59l5.38,13.48,4.79-13.48h3.55l-8.27,21.85c-.56,1.51-1.34,1.94-2.15,1.94C1459.78,741.45,1458.87,740.68,1458.94,740.5Z" transform="translate(-10.35 -37.5)"/><path d="M1479.46,730.51a2.3,2.3,0,0,1,1.65-1.93,8.26,8.26,0,0,0,6.86,3.48c3.17,0,5-1.3,5-3.55,0-2.57-2.67-3.17-5.7-3.87-3.52-.81-7.18-2-7.18-6.65,0-3.87,3.34-6.62,8.2-6.62,5.07,0,7.81,2.39,7.81,4a2.39,2.39,0,0,1-1.69,2,7.46,7.46,0,0,0-6.09-3.06c-2.85,0-4.72,1.37-4.72,3.48,0,2.5,2.22,2.89,5.38,3.62,3.87.88,7.6,2.39,7.6,6.79,0,4.19-3.24,6.79-8.55,6.79C1482.52,735,1479.46,732.38,1479.46,730.51Z" transform="translate(-10.35 -37.5)"/><path d="M1501.31,713.87a1.88,1.88,0,0,1,1.94-2h5.88c5.63,0,8.83,2.57,8.83,7.25s-3.1,7.32-9,7.32h-4v8.2h-3.62Zm3.59,9.61H1509c3.48,0,5.28-1.51,5.28-4.33s-1.79-4.33-5.24-4.33h-4.19Z" transform="translate(-10.35 -37.5)"/><path d="M1535.51,727.91h-9.11l-2.57,6.69h-3.69l8.37-21.82c.28-.74.85-1.16,2.5-1.16s2.22.42,2.5,1.16l8.51,21.82h-3.91Zm-8.23-2.92h7.32l-3.66-9.64Z" transform="translate(-10.35 -37.5)"/><path d="M1544.59,723.26c0-7,4.75-11.89,11.58-11.89,5.7,0,8.59,3.24,8.59,4.82a2.12,2.12,0,0,1-2.11,2,7.35,7.35,0,0,0-6.44-3.52c-4.61,0-7.85,3.48-7.85,8.55s3.34,8.59,7.92,8.59c3.06,0,5.63-1.51,6.58-4,.07-.18,2.25.25,2.25,1.94s-3,5.31-9,5.31C1549.3,735,1544.59,730.19,1544.59,723.26Z" transform="translate(-10.35 -37.5)"/><path d="M1569.64,713.87a1.88,1.88,0,0,1,1.94-2h14.88v3.24h-13.2v6.37h10.59v3.06h-10.59v6.9h13.37v3.2h-17Z" transform="translate(-10.35 -37.5)"/><path d="M1591.36,713.87a1.88,1.88,0,0,1,1.94-2h14V715h-12.32v7.25h9.57v3.06H1595v9.25h-3.66Z" transform="translate(-10.35 -37.5)"/><path d="M1611.84,711.83h3.62v22.77h-3.62Z" transform="translate(-10.35 -37.5)"/><path d="M1621.69,713.34c0-1.13.53-1.65,1.51-1.65h.53c1.06,0,1.58.53,1.58,1.65v18h9.89c1.09,0,1.69.53,1.69,1.55V733a1.48,1.48,0,0,1-1.69,1.58h-13.51Z" transform="translate(-10.35 -37.5)"/><path d="M1641.33,713.34c0-1.13.53-1.65,1.51-1.65h.53c1.05,0,1.58.53,1.58,1.65v18h9.89c1.09,0,1.69.53,1.69,1.55V733a1.48,1.48,0,0,1-1.69,1.58h-13.51Z" transform="translate(-10.35 -37.5)"/><path d="M1661,713.87a1.88,1.88,0,0,1,1.94-2h14.88v3.24h-13.2v6.37h10.59v3.06h-10.59v6.9H1678v3.2h-17Z" transform="translate(-10.35 -37.5)"/><path d="M1695,733.33l-6.23-7.64h-2.5v8.9h-3.59V713.87a1.88,1.88,0,0,1,1.94-2h6.47c5.56,0,8.51,2.32,8.51,6.83,0,3.87-2.39,6.33-6.79,6.69l6.65,7.92c.18.21-.6,1.48-2.11,1.48A2.76,2.76,0,0,1,1695,733.33Zm-8.76-10.49H1691c3.34,0,4.93-1.55,4.93-4,0-2.64-1.69-4-5-4h-4.68Z" transform="translate(-10.35 -37.5)"/><path d="M1462.74,754.72c.25-.6.67-.88,1.79-.88s1.55.28,1.79.88l8.55,22.1h-2.67l-2.85-7.42h-9.75l-2.85,7.42h-2.57Zm5.84,12.56-4.08-10.73-4.12,10.73Z" transform="translate(-10.35 -37.5)"/><path d="M1478.86,753.1c0-.07.35-.25.77-.25.77,0,1.51.39,1.51,2.22v21.75h-2.29Z" transform="translate(-10.35 -37.5)"/><path d="M1486,768.52c0-5.1,3.59-8.87,8.45-8.87s7.81,3.34,7.81,8.44v.21c0,.63-.25.77-.95.77h-13a6.18,6.18,0,0,0,6.37,6.12c3.27,0,4.75-1.41,5.74-3a1.36,1.36,0,0,1,1.34,1.3,2.59,2.59,0,0,1-.92,1.58,9,9,0,0,1-6.16,2.15A8.31,8.31,0,0,1,1486,768.52Zm2.39-1.41h11.44c-.21-3.31-2.25-5.45-5.38-5.45A6.11,6.11,0,0,0,1488.36,767.11Z" transform="translate(-10.35 -37.5)"/><path d="M1504.79,776l5.95-7.49-5.84-7.57a1.12,1.12,0,0,1,1.16-1c.81,0,1.2.46,1.72,1.16l4.43,6,4.33-5.95c.63-.88,1.2-1.2,1.69-1.2a1.19,1.19,0,0,1,1.2,1l-5.91,7.57,5.81,7.49a1.12,1.12,0,0,1-1.16,1c-.81,0-1.2-.46-1.72-1.16l-4.43-5.95-4.29,5.91c-.56.77-1.06,1.2-1.72,1.2A1.19,1.19,0,0,1,1504.79,776Z" transform="translate(-10.35 -37.5)"/><path d="M1522.14,772.53c0-3.91,3.91-5.52,11.65-5.7h.35v-.6c0-2.89-1.69-4.47-4.71-4.47a5.74,5.74,0,0,0-5.35,3.1,1.35,1.35,0,0,1-1.3-1.34,2.89,2.89,0,0,1,.91-1.69,8.31,8.31,0,0,1,5.91-2.18c4.26,0,6.79,2.46,6.79,6.51v10.66h-2.22v-2.57a7.54,7.54,0,0,1-6.26,3C1524.25,777.21,1522.14,775.34,1522.14,772.53Zm12-2.36v-1.55h-.46c-6.26.21-9.22,1.27-9.22,3.91,0,1.69,1.37,2.78,3.66,2.78C1531.57,775.31,1534.14,772.95,1534.14,770.17Z" transform="translate(-10.35 -37.5)"/><path d="M1542,760.18c0-.07.35-.25.77-.25.77,0,1.48.39,1.48,2.22v.53a6.63,6.63,0,0,1,5.7-3c4.43,0,6.65,3,6.65,7.39v9.78h-2.29v-9.64c0-3.34-1.65-5.38-4.5-5.38a5.92,5.92,0,0,0-5.52,3.55v11.47H1542Z" transform="translate(-10.35 -37.5)"/><path d="M1561.13,768.48c0-5.28,3.41-8.83,8.06-8.83a7.19,7.19,0,0,1,6.09,2.78V753.1c0-.07.35-.25.77-.25.77,0,1.51.39,1.51,2.22v21.75h-2.25v-2.6a7.46,7.46,0,0,1-6.26,3C1564.61,777.24,1561.13,773.79,1561.13,768.48Zm14.18,1.13v-4a6.09,6.09,0,0,0-5.95-3.94c-3.55,0-5.91,2.74-5.91,6.79s2.46,6.79,5.84,6.79A5.89,5.89,0,0,0,1575.31,769.61Z" transform="translate(-10.35 -37.5)"/><path d="M1582.21,768.52c0-5.1,3.59-8.87,8.44-8.87s7.81,3.34,7.81,8.44v.21c0,.63-.25.77-1,.77h-13a6.18,6.18,0,0,0,6.37,6.12c3.27,0,4.75-1.41,5.74-3a1.36,1.36,0,0,1,1.34,1.3,2.59,2.59,0,0,1-.92,1.58,9,9,0,0,1-6.16,2.15A8.31,8.31,0,0,1,1582.21,768.52Zm2.39-1.41H1596c-.21-3.31-2.25-5.45-5.38-5.45A6.11,6.11,0,0,0,1584.6,767.11Z" transform="translate(-10.35 -37.5)"/><path d="M1603.08,760.18c0-.07.35-.25.77-.25.77,0,1.48.39,1.48,2.22v1c.74-2.32,2.18-3.52,4.43-3.52,1.55,0,2.43.63,2.43,1.72,0,.84-.56,1.27-.63,1.2a2.91,2.91,0,0,0-2-.7c-3,0-4.15,3.13-4.15,7.42v7.53h-2.29Z" transform="translate(-10.35 -37.5)"/><path d="M1622.36,755.53c0-.88.46-1.62,1.3-1.62h.6c.88,0,1.27.46,1.83,1.27l12.35,17.91v-19h2.25v21.29c0,1-.46,1.62-1.23,1.62h-.18c-.88,0-1.09-.28-1.55-.92l-13.12-19v19.74h-2.25Z" transform="translate(-10.35 -37.5)"/><path d="M1645.76,772.53c0-3.91,3.91-5.52,11.65-5.7h.35v-.6c0-2.89-1.69-4.47-4.72-4.47a5.74,5.74,0,0,0-5.35,3.1,1.35,1.35,0,0,1-1.3-1.34,2.89,2.89,0,0,1,.92-1.69,8.3,8.3,0,0,1,5.91-2.18c4.26,0,6.79,2.46,6.79,6.51v10.66h-2.22v-2.57a7.54,7.54,0,0,1-6.26,3C1647.87,777.21,1645.76,775.34,1645.76,772.53Zm12-2.36v-1.55h-.46c-6.26.21-9.22,1.27-9.22,3.91,0,1.69,1.37,2.78,3.66,2.78C1655.19,775.31,1657.76,772.95,1657.76,770.17Z" transform="translate(-10.35 -37.5)"/><path d="M1666.52,781.6a2.54,2.54,0,0,1-.92-1.69c0-1.2,1.27-1.58,1.34-1.44a6.37,6.37,0,0,0,6.09,3.34c3.8,0,5.66-2,5.66-5.84v-2.11a7.44,7.44,0,0,1-6.26,2.89c-4.64,0-7.92-3.34-7.92-8.48s3.55-8.62,8.06-8.62a7.38,7.38,0,0,1,6.12,2.71v-2.29H1681V776c0,5.28-3,7.88-8,7.88A9,9,0,0,1,1666.52,781.6Zm12.17-12.35v-3.66a6.09,6.09,0,0,0-5.95-3.94c-3.55,0-5.91,2.78-5.91,6.58,0,4,2.29,6.54,5.84,6.54C1675.81,774.78,1678.7,772.46,1678.7,769.25Z" transform="translate(-10.35 -37.5)"/><path d="M1689.61,783.15l2.81-7.18a1.25,1.25,0,0,1-1.41-.88l-6.33-15h2.39l6,14.46,5.21-14.46h2.43l-8.27,22.17c-.46,1.23-1,1.51-1.62,1.51S1689.57,783.26,1689.61,783.15Z" transform="translate(-10.35 -37.5)"/><path d="M1460.07,796.95c.25-.6.67-.88,1.79-.88s1.55.28,1.79.88l8.55,22.1h-2.67l-2.85-7.42h-9.75l-2.85,7.42h-2.57Zm5.84,12.56-4.08-10.73-4.12,10.73Z" transform="translate(-10.35 -37.5)"/><path d="M1476.18,795.33c0-.07.35-.25.78-.25.77,0,1.51.39,1.51,2.22V819h-2.29Z" transform="translate(-10.35 -37.5)"/><path d="M1483.29,810.74c0-5.1,3.59-8.87,8.44-8.87s7.81,3.34,7.81,8.44v.21c0,.63-.25.77-1,.77h-13a6.18,6.18,0,0,0,6.37,6.12c3.27,0,4.75-1.41,5.74-3a1.36,1.36,0,0,1,1.34,1.3,2.59,2.59,0,0,1-.92,1.58,9,9,0,0,1-6.16,2.15A8.31,8.31,0,0,1,1483.29,810.74Zm2.39-1.41h11.44c-.21-3.31-2.25-5.45-5.38-5.45A6.11,6.11,0,0,0,1485.68,809.33Z" transform="translate(-10.35 -37.5)"/><path d="M1502.12,818.2l5.95-7.49-5.84-7.57a1.12,1.12,0,0,1,1.16-1c.81,0,1.2.46,1.72,1.16l4.43,6,4.33-5.95c.63-.88,1.2-1.2,1.69-1.2a1.19,1.19,0,0,1,1.2,1l-5.91,7.57,5.8,7.49a1.12,1.12,0,0,1-1.16,1c-.81,0-1.2-.46-1.72-1.16l-4.43-5.95L1505,818c-.56.77-1.05,1.2-1.72,1.2A1.19,1.19,0,0,1,1502.12,818.2Z" transform="translate(-10.35 -37.5)"/><path d="M1519.46,814.75c0-3.91,3.91-5.52,11.65-5.7h.35v-.6c0-2.89-1.69-4.47-4.72-4.47a5.74,5.74,0,0,0-5.35,3.1,1.35,1.35,0,0,1-1.3-1.34,2.89,2.89,0,0,1,.92-1.69,8.31,8.31,0,0,1,5.91-2.18c4.26,0,6.79,2.46,6.79,6.51V819h-2.22v-2.57a7.54,7.54,0,0,1-6.26,3C1521.58,819.43,1519.46,817.57,1519.46,814.75Zm12-2.36v-1.55H1531c-6.26.21-9.22,1.27-9.22,3.91,0,1.69,1.37,2.78,3.66,2.78C1528.9,817.53,1531.46,815.18,1531.46,812.4Z" transform="translate(-10.35 -37.5)"/><path d="M1539.35,802.4c0-.07.35-.25.77-.25.77,0,1.48.39,1.48,2.22v.53a6.63,6.63,0,0,1,5.7-3c4.43,0,6.65,3,6.65,7.39V819h-2.29v-9.64c0-3.34-1.65-5.38-4.5-5.38a5.92,5.92,0,0,0-5.52,3.55V819h-2.29Z" transform="translate(-10.35 -37.5)"/><path d="M1558.46,810.71c0-5.28,3.41-8.83,8.06-8.83a7.19,7.19,0,0,1,6.09,2.78v-9.32c0-.07.35-.25.78-.25.77,0,1.51.39,1.51,2.22V819h-2.25v-2.6a7.45,7.45,0,0,1-6.26,3C1561.94,819.47,1558.46,816,1558.46,810.71Zm14.18,1.13v-4a6.09,6.09,0,0,0-5.95-3.94c-3.55,0-5.91,2.74-5.91,6.79s2.46,6.79,5.84,6.79A5.89,5.89,0,0,0,1572.63,811.83Z" transform="translate(-10.35 -37.5)"/><path d="M1579.53,810.74c0-5.1,3.59-8.87,8.45-8.87s7.81,3.34,7.81,8.44v.21c0,.63-.25.77-1,.77h-13a6.18,6.18,0,0,0,6.37,6.12c3.27,0,4.75-1.41,5.74-3a1.36,1.36,0,0,1,1.34,1.3,2.59,2.59,0,0,1-.91,1.58,9,9,0,0,1-6.16,2.15A8.31,8.31,0,0,1,1579.53,810.74Zm2.39-1.41h11.44c-.21-3.31-2.25-5.45-5.38-5.45A6.11,6.11,0,0,0,1581.93,809.33Z" transform="translate(-10.35 -37.5)"/><path d="M1600.4,802.4c0-.07.35-.25.77-.25.77,0,1.48.39,1.48,2.22v1c.74-2.32,2.18-3.52,4.43-3.52,1.55,0,2.43.63,2.43,1.72,0,.84-.56,1.27-.63,1.2a2.91,2.91,0,0,0-2-.7c-3,0-4.15,3.13-4.15,7.42V819h-2.29Z" transform="translate(-10.35 -37.5)"/><path d="M1619.69,797.65a1.56,1.56,0,0,1,1.72-1.51h.56c1.23,0,1.51.56,2.08,1.79l6,13.27,6-13.27c.53-1.23.84-1.79,2.08-1.79h.49a1.56,1.56,0,0,1,1.72,1.51V819h-2.29V798.88l-6,13a2.05,2.05,0,0,1-2.08,1.51,2,2,0,0,1-2.08-1.51l-5.95-13V819h-2.29Z" transform="translate(-10.35 -37.5)"/><path d="M1646.29,796.6a1.35,1.35,0,0,1,1.55-1.51,1.32,1.32,0,0,1,1.48,1.51,1.51,1.51,0,1,1-3,0Zm.35,6.65c0-.84.42-1.09,1-1.09h.25c.6,0,1,.25,1,1.09V819h-2.29Z" transform="translate(-10.35 -37.5)"/><path d="M1655.05,795.33c0-.07.35-.25.77-.25.77,0,1.51.39,1.51,2.22V819h-2.29Z" transform="translate(-10.35 -37.5)"/><path d="M1663.46,795.33c0-.07.35-.25.77-.25.77,0,1.51.39,1.51,2.22V819h-2.29Z" transform="translate(-10.35 -37.5)"/><path d="M1670.57,810.74c0-5.1,3.59-8.87,8.45-8.87s7.81,3.34,7.81,8.44v.21c0,.63-.25.77-1,.77h-13a6.18,6.18,0,0,0,6.37,6.12c3.27,0,4.75-1.41,5.74-3a1.36,1.36,0,0,1,1.34,1.3,2.59,2.59,0,0,1-.91,1.58,9,9,0,0,1-6.16,2.15A8.31,8.31,0,0,1,1670.57,810.74Zm2.39-1.41h11.44c-.21-3.31-2.25-5.45-5.38-5.45A6.11,6.11,0,0,0,1673,809.33Z" transform="translate(-10.35 -37.5)"/><path d="M1691.44,802.4c0-.07.35-.25.77-.25.77,0,1.48.39,1.48,2.22v1c.74-2.32,2.18-3.52,4.43-3.52,1.55,0,2.43.63,2.43,1.72,0,.84-.56,1.27-.63,1.2a2.91,2.91,0,0,0-2-.7c-3,0-4.15,3.13-4.15,7.42V819h-2.29Z" transform="translate(-10.35 -37.5)"/><path d="M1335.46,859.09a2.93,2.93,0,0,1-1-1.87,1.67,1.67,0,0,1,1.41-1.44,7.69,7.69,0,0,0,6.9,3.84c3.52,0,5.59-1.58,5.59-4.22,0-3-3-3.8-6.26-4.57-3.45-.81-7-1.94-7-6.47,0-3.59,3.27-6.26,7.64-6.26a9.52,9.52,0,0,1,6.65,2.29,2.48,2.48,0,0,1,.88,1.65,1.67,1.67,0,0,1-1.41,1.44,6.89,6.89,0,0,0-6.09-3.31c-3.17,0-5.35,1.65-5.35,4.12,0,2.92,2.39,3.52,5.84,4.33,3.62.84,7.46,2.18,7.46,6.69,0,3.87-3.13,6.4-7.92,6.4A10.45,10.45,0,0,1,1335.46,859.09Z" transform="translate(-10.35 -37.5)"/><path d="M1354.46,852.87a8.64,8.64,0,1,1,8.66,8.83A8.42,8.42,0,0,1,1354.46,852.87Zm15,.07c0-3.91-2.67-6.83-6.3-6.83s-6.33,2.85-6.33,6.76,2.71,6.83,6.33,6.83S1369.42,856.84,1369.42,852.94Z" transform="translate(-10.35 -37.5)"/><path d="M1376.28,854.31v-9.78h2.29v9.64c0,3.34,1.65,5.38,4.5,5.38a5.92,5.92,0,0,0,5.53-3.55V844.53h2.29v16.64c0,.07-.35.25-.78.25-.77,0-1.48-.39-1.48-2.22v-.53a6.63,6.63,0,0,1-5.7,3C1378.49,861.7,1376.28,858.74,1376.28,854.31Z" transform="translate(-10.35 -37.5)"/><path d="M1396.65,844.63c0-.07.35-.25.77-.25.77,0,1.48.39,1.48,2.22v.53a6.63,6.63,0,0,1,5.7-3c4.43,0,6.65,3,6.65,7.39v9.78H1409v-9.64c0-3.34-1.65-5.38-4.5-5.38a5.92,5.92,0,0,0-5.52,3.55v11.47h-2.29Z" transform="translate(-10.35 -37.5)"/><path d="M1415.76,852.94c0-5.28,3.41-8.83,8.06-8.83a7.19,7.19,0,0,1,6.09,2.78v-9.32c0-.07.35-.25.77-.25.77,0,1.51.39,1.51,2.22v21.75h-2.25v-2.6a7.46,7.46,0,0,1-6.26,3C1419.24,861.7,1415.76,858.25,1415.76,852.94Zm14.18,1.13v-4a6.09,6.09,0,0,0-5.95-3.94c-3.55,0-5.91,2.74-5.91,6.79s2.46,6.79,5.84,6.79A5.89,5.89,0,0,0,1429.94,854.06Z" transform="translate(-10.35 -37.5)"/><path d="M1446.2,858.64v2.64h-2.25V837.56c0-.07.35-.25.77-.25.77,0,1.51.39,1.51,2.22v7.6a7.44,7.44,0,0,1,6.23-3c4.43,0,7.92,3.45,7.92,8.76s-3.41,8.83-8.06,8.83A7.09,7.09,0,0,1,1446.2,858.64Zm11.86-5.74c0-3.94-2.46-6.79-5.84-6.79a6.25,6.25,0,0,0-6,4V854a5.84,5.84,0,0,0,5.95,5.67C1455.7,859.69,1458.06,856.95,1458.06,852.9Z" transform="translate(-10.35 -37.5)"/><path d="M1467.56,867.61l2.82-7.18a1.25,1.25,0,0,1-1.41-.88l-6.33-15H1465l6,14.46,5.21-14.46h2.43l-8.27,22.17c-.46,1.23-1,1.51-1.62,1.51S1467.52,867.71,1467.56,867.61Z" transform="translate(-10.35 -37.5)"/><path d="M1488.67,839.85a1.34,1.34,0,0,1,1.34-1.34h5.38c7.85,0,12.46,4.19,12.46,11.33s-4.72,11.44-12.63,11.44h-6.54Zm6.69,19.32c6.4,0,10-3.38,10-9.25s-3.73-9.29-10-9.29h-4.33v18.54Z" transform="translate(-10.35 -37.5)"/><path d="M1511.79,857c0-3.91,3.91-5.52,11.65-5.7h.35v-.6c0-2.89-1.69-4.47-4.72-4.47a5.74,5.74,0,0,0-5.35,3.1,1.35,1.35,0,0,1-1.3-1.34,2.89,2.89,0,0,1,.92-1.69,8.31,8.31,0,0,1,5.91-2.18c4.26,0,6.79,2.46,6.79,6.51v10.66h-2.22v-2.57a7.54,7.54,0,0,1-6.26,3C1513.9,861.66,1511.79,859.8,1511.79,857Zm12-2.36v-1.55h-.46c-6.26.21-9.22,1.27-9.22,3.91,0,1.69,1.37,2.78,3.66,2.78C1521.22,859.76,1523.79,857.41,1523.79,854.63Z" transform="translate(-10.35 -37.5)"/><path d="M1529.67,845.05c0-.42,1.87-1.62,2.78.81l5,13.34,5.07-13.34c.95-2.46,2.71-1.2,2.71-.81l-6.44,16.22h-2.67Z" transform="translate(-10.35 -37.5)"/><path d="M1549,838.83a1.35,1.35,0,0,1,1.55-1.51,1.32,1.32,0,0,1,1.48,1.51,1.51,1.51,0,0,1-3,0Zm.35,6.65c0-.84.42-1.09,1-1.09h.25c.6,0,1,.25,1,1.09v15.8h-2.29Z" transform="translate(-10.35 -37.5)"/><path d="M1556.48,852.94c0-5.28,3.41-8.83,8.06-8.83a7.19,7.19,0,0,1,6.09,2.78v-9.32c0-.07.35-.25.78-.25.77,0,1.51.39,1.51,2.22v21.75h-2.25v-2.6a7.45,7.45,0,0,1-6.26,3C1560,861.7,1556.48,858.25,1556.48,852.94Zm14.18,1.13v-4a6.09,6.09,0,0,0-5.95-3.94c-3.55,0-5.91,2.74-5.91,6.79s2.46,6.79,5.84,6.79A5.89,5.89,0,0,0,1570.66,854.06Z" transform="translate(-10.35 -37.5)"/><path d="M1585,839.46c0-.7.35-1.09,1-1.09h.32a1,1,0,0,1,1.06,1.09v9.32h13.69v-9.32c0-.7.35-1.09,1-1.09h.32a1,1,0,0,1,1.05,1.09v21.82h-2.39V851h-13.69v10.31H1585Z" transform="translate(-10.35 -37.5)"/><path d="M1609.62,844.63c0-.07.35-.25.77-.25.77,0,1.48.39,1.48,2.22v1c.74-2.32,2.18-3.52,4.43-3.52,1.55,0,2.43.63,2.43,1.72,0,.84-.56,1.27-.63,1.2a2.91,2.91,0,0,0-2-.7c-3,0-4.15,3.13-4.15,7.42v7.53h-2.29Z" transform="translate(-10.35 -37.5)"/><path d="M1622.39,838.83a1.35,1.35,0,0,1,1.55-1.51,1.32,1.32,0,0,1,1.48,1.51,1.51,1.51,0,0,1-3,0Zm.35,6.65c0-.84.42-1.09,1-1.09h.25c.6,0,1,.25,1,1.09v15.8h-2.29Z" transform="translate(-10.35 -37.5)"/><path d="M1629.15,845.05c0-.42,1.86-1.62,2.78.81l5,13.34,5.07-13.34c1-2.46,2.71-1.2,2.71-.81l-6.44,16.22h-2.67Z" transform="translate(-10.35 -37.5)"/><path d="M1648.68,844.63c0-.07.35-.25.77-.25.77,0,1.48.39,1.48,2.22v.53a6.63,6.63,0,0,1,5.7-3c4.43,0,6.65,3,6.65,7.39v9.78H1661v-9.64c0-3.34-1.65-5.38-4.5-5.38a5.92,5.92,0,0,0-5.52,3.55v11.47h-2.29Z" transform="translate(-10.35 -37.5)"/><path d="M1667.86,857c0-3.91,3.91-5.52,11.65-5.7h.35v-.6c0-2.89-1.69-4.47-4.72-4.47a5.74,5.74,0,0,0-5.35,3.1,1.35,1.35,0,0,1-1.3-1.34,2.89,2.89,0,0,1,.92-1.69,8.3,8.3,0,0,1,5.91-2.18c4.26,0,6.79,2.46,6.79,6.51v10.66h-2.22v-2.57a7.54,7.54,0,0,1-6.26,3C1670,861.66,1667.86,859.8,1667.86,857Zm12-2.36v-1.55h-.46c-6.26.21-9.22,1.27-9.22,3.91,0,1.69,1.37,2.78,3.66,2.78C1677.29,859.76,1679.86,857.41,1679.86,854.63Z" transform="translate(-10.35 -37.5)"/><path d="M1687.74,837.56c0-.07.35-.25.77-.25.77,0,1.51.39,1.51,2.22V852.2l6.76-6.9c1.9-1.94,2.78-.25,2.67.21l-6.93,6.86,8,7.85c0,.46-.77,2.25-2.71.32l-7.81-7.78v8.52h-2.29Z" transform="translate(-10.35 -37.5)"/><path class="cls-1" d="M1215.8,976.14l-35.08.15-35.09.15-21.83.09L1099.67,1002l-15.33,16.18-18.91,29.55-18.91,29.56-18.91,29.56-1,1.56.74,13.87,13.44,32.41,13.44,32.41,8.47,20.4,17,30.38,34.71,5.11,34.71,5.11,34.71,5.11,32.76,4.82,33.68-9.85,29.71-8.69,18.36-29.9,18.36-29.9,8.34-13.58,2.87-35,2.87-35,.51-6.19-16.19-31.13-16.19-31.13-14.32-27.52-33.12-11.58L1218.39,977l-2.59-.91" transform="translate(-10.35 -37.5)"/><path class="cls-1" d="M1084.34,1018.18l33.12,11.58,33.11,11.59,2.59.9" transform="translate(-10.35 -37.5)"/><path class="cls-1" d="M1136.71,1133.78l6.21-34.53,6.2-34.53,4-22.47,35.09-.15,35.08-.15,21.83-.09" transform="translate(-10.35 -37.5)"/><path class="cls-1" d="M1278.7,1145.52l-10.8-33.38-10.8-33.38-10.8-33.38-1.14-3.51,24.13-25.47,15.33-16.18" transform="translate(-10.35 -37.5)"/><path class="cls-1" d="M1026.62,1108.4l14.48,32,8.17,18" transform="translate(-10.35 -37.5)"/><path class="cls-1" d="M1079.73,1237.88l-12.56-32.76-12.55-32.76-5.35-14,33.77-9.51,33.77-9.51,19.9-5.6,30.85,16.71,30.85,16.71,30.85,16.71,2.53,1.37" transform="translate(-10.35 -37.5)"/><path class="cls-1" d="M1216.63,1258l7.16-34.35,7.16-34.35.85-4.07,26.76-22.69,20.14-17.07,32.07,14.24,14.3,6.35" transform="translate(-10.35 -37.5)"/><path class="cls-1" d="M1602.79,951.28l-34.71-5.11-34.71-5.11-34.71-5.11-32.76-4.83-21,28.1-21,28.1-9.87,13.2-17.69,30.3-17.69,30.3-9.19,15.74,10.8,33.38,10.8,33.38,10.8,33.38,1.14,3.51,32.07,14.24,14.3,6.35,34.71,5.11,34.71,5.11,34.71,5.11,32.76,4.82,21-28.1,21-28.1,9.87-13.2,17.69-30.3,17.69-30.3,9.19-15.74-10.8-33.38-10.8-33.38-10.8-33.38-1.14-3.51-32.07-14.24-14.3-6.35" transform="translate(-10.35 -37.5)"/><path class="cls-1" d="M1602.79,951.28l-2.87,35-2.87,35-.51,6.19" transform="translate(-10.35 -37.5)"/><path class="cls-1" d="M1490.74,1050.35l34.29-7.44,34.29-7.44,34.29-7.44,2.92-.63,16.19,31.13,16.19,31.13,14.32,27.52" transform="translate(-10.35 -37.5)"/><path class="cls-1" d="M1585.51,1207.4l18.91-29.55,18.91-29.55,18.91-29.56,1-1.56,24.13-25.47,15.33-16.18" transform="translate(-10.35 -37.5)"/><path class="cls-1" d="M1414,1000.53l29.43,19.1,29.43,19.11,17.88,11.61-2.15,35-2.14,35-2.15,35-1.83,29.94" transform="translate(-10.35 -37.5)"/><path class="cls-1" d="M1403,1180.52l35,2.13,35,2.12,9.44.57,34.31,7.34,34.31,7.34,34.42,7.37.74,13.88" transform="translate(-10.35 -37.5)"/><path class="cls-1" d="M925.88,1152.64l-13.44-32.41L899,1087.82l-8.47-20.4" transform="translate(-10.35 -37.5)"/><path class="cls-1" d="M942.41,998l-21,28.1-21,28.1-9.87,13.2-34.71-5.11-34.71-5.11-34.71-5.11-32.76-4.83" transform="translate(-10.35 -37.5)"/><path class="cls-1" d="M759.89,971.14l-2.87,35-2.87,35-.51,6.19-18.36,29.9-18.36,29.9-8.34,13.58" transform="translate(-10.35 -37.5)"/><path class="cls-1" d="M691.55,1090.26l17,30.38L722,1153l13.45,32.41,8.46,20.4" transform="translate(-10.35 -37.5)"/><path class="cls-1" d="M744.66,1219.74l-.74-13.87,34.71,5.11,34.71,5.11,34.71,5.11,32.76,4.83" transform="translate(-10.35 -37.5)"/><path class="cls-1" d="M927.19,1246.61l-32.07-14.24-14.3-6.35,18.36-29.9,18.36-29.9,8.34-13.58,33.68-9.85,29.71-8.69" transform="translate(-10.35 -37.5)"/><path class="cls-1" d="M942.41,998,913,978.91,883.56,959.8,865.68,948.2l-34.29,7.44-34.29,7.44-34.29,7.44-2.93.63L733,989.73l-13.38,32.44-13.38,32.43L692.88,1087l-1.33,3.22L704.1,1123l12.56,32.76,5.35,14,14.48,32,8.17,18,34.31,7.35,34.31,7.34,34.42,7.37,35,2.12,35,2.13,9.44.57L954,1223.93l20.14-17.07,7.16-34.35,7.16-34.35.85-4.06L987.91,1099,986.55,1064l-1.36-35.06-.08-2.06L956,1007.22,942.41,998" transform="translate(-10.35 -37.5)"/><path class="cls-1" d="M591.39,983.34,590,1018.4l-1.32,33.92" transform="translate(-10.35 -37.5)"/><path class="cls-1" d="M484.21,1066l34.79-4.55,34.79-4.55,34.9-4.57,9.69,33.72,9.69,33.72,9.69,33.72,8.28,28.83" transform="translate(-10.35 -37.5)"/><path class="cls-1" d="M534,1239.32l29.83-18.48,29.83-18.48,29.83-18.48,2.55-1.58,24.64,7.37" transform="translate(-10.35 -37.5)"/><path class="cls-1" d="M650.7,1189.68l1.36-35.06,1.32-33.93L643.69,1087,634,1053.26l-9.69-33.72L616,990.71l-24.63-7.37-34.06-8.42-34.06-8.43-22.6-5.59-23.52-4.37-26.69,22.78-26.68,22.78-26.69,22.78-1.87,1.59L381,1058.53l-9,20.37,5.7,34.62,5.7,34.62,3.71,22.52,15,31.73,13.8,29.22L449,1243.07l33.17,11.45,32.75,11.31,33.3-11.05,33.68-11.18L609.54,1222l27.61-21.65,13.54-10.62" transform="translate(-10.35 -37.5)"/><path class="cls-1" d="M446.14,1026.46l24.34,25.28L484.21,1066l-7.93,34.18-7.93,34.18-7.93,34.18-.42,1.8" transform="translate(-10.35 -37.5)"/><path class="cls-1" d="M387.09,1170.66l35.09-.16,35.08-.16H460l25.67,23.92,25.67,23.92,22.7,21.15-19.09,26.51" transform="translate(-10.35 -37.5)"/><path class="cls-1" d="M500.67,960.9l-22.44,27-22.43,27-9.66,11.61-28.65,20.26L388.85,1067,372,1078.9" transform="translate(-10.35 -37.5)"/><path class="cls-1" d="M321.8,1050.56l-15-31.72L293,989.61l-33.17-11.45-33.16-11.45L193.94,955.4l-33.3,11.05L127,977.63,99.35,999.28l-27.61,21.65-13.54,10.62-1.37,35.06-1.32,33.93,9.69,33.72L74.89,1168l9.69,33.72,8.28,28.83,24.64,7.37,34.06,8.43,34.06,8.42,22.6,5.59,23.51,4.37,26.69-22.78,26.69-22.78,26.69-22.78,1.87-1.59,14.22-32.07,9-20.37-5.7-34.62-5.71-34.62-3.71-22.52" transform="translate(-10.35 -37.5)"/><path class="cls-1" d="M293,989.61l-14.22,32.08-9,20.37" transform="translate(-10.35 -37.5)"/><path class="cls-1" d="M162.93,1025.33l34.66,5.43,34.67,5.43,34.67,5.43,2.84.44,5.71,34.62,5.7,34.62,3.71,22.52" transform="translate(-10.35 -37.5)"/><path class="cls-1" d="M198.3,1165l33-11.88,33-11.88,20.54-7.39,15,31.73,13.8,29.22" transform="translate(-10.35 -37.5)"/><path class="cls-1" d="M127,977.63l21.13,28,14.85,19.69-17.64,30.33L132,1078.48" transform="translate(-10.35 -37.5)"/><path class="cls-1" d="M55.5,1100.53l33.72-9.71,33.71-9.71,9.09-2.62,21.34,27.85,21.35,27.84L196.06,1162l2.25,2.93-6.53,34.47-6.54,34.47-3.4,17.9" transform="translate(-10.35 -37.5)"/><path class="cls-1" d="M92.86,1230.51l34.12,8.16,34.12,8.16,20.73,5,34,8.78,15.92,4.12" transform="translate(-10.35 -37.5)"/><path class="cls-2" d="M1123.8,976.53l-17.69,30.3-17.69,30.3-9.19,15.74" transform="translate(-10.35 -37.5)"/><path class="cls-2" d="M1121.94,1081.71l-29.08-19.64-13.63-9.2-21,28.1-21,28.1-9.87,13.2" transform="translate(-10.35 -37.5)"/><path class="cls-2" d="M1331.32,1090l-26.86,18.6" transform="translate(-10.35 -37.5)"/><path class="cls-2" d="M1263,1209.11l13.38-32.43,13.38-32.43,13.38-32.44,1.33-3.22L1277,1086.7l-27.42-21.89-27.08-21.61" transform="translate(-10.35 -37.5)"/><path class="cls-2" d="M1126.09,1189l-1.35-35.06-1.36-35.06-1.36-35.06-.08-2.06,32.77-12.54,32.77-12.54,32.77-12.54,2.29-.88L1219,1008.3l-3.23-32.16" transform="translate(-10.35 -37.5)"/><path class="cls-2" d="M1280,1239.49l-17-30.38-34.71-5.11-34.71-5.11-34.71-5.11-32.76-4.83-33.68,9.85-29.71,8.69" transform="translate(-10.35 -37.5)"/><path class="cls-2" d="M1649.15,971.88l-35-2.13-35-2.12-9.44-.57" transform="translate(-10.35 -37.5)"/><path class="cls-2" d="M1561.4,1102.05l2.15-35,2.14-35,2.15-35,1.83-29.94-34.31-7.34-34.31-7.34L1466.63,945" transform="translate(-10.35 -37.5)"/><path class="cls-2" d="M1408.91,1035.22l18.91-29.56,18.91-29.55,18.91-29.56,1-1.55-.74-13.88" transform="translate(-10.35 -37.5)"/><path class="cls-2" d="M1455.6,1125l-16.19-31.13-16.19-31.13-14.32-27.52-24.13,25.47-15.33,16.18" transform="translate(-10.35 -37.5)"/><path class="cls-2" d="M1638.13,1151.88l-29.43-19.11-29.43-19.11-17.88-11.61-34.29,7.44-34.29,7.44-34.29,7.44-2.93.63-2.87,35-2.87,35-.51,6.19" transform="translate(-10.35 -37.5)"/><path class="cls-2" d="M985.12,1026.86l-20.7-12" transform="translate(-10.35 -37.5)"/><path class="cls-2" d="M956.15,1149.87l2.15-35,2.14-35,2.15-35,1.83-29.94-29.28-19.33-29.28-19.33-19.42-12.83" transform="translate(-10.35 -37.5)"/><path class="cls-2" d="M803.59,991.19,836.86,980l33.26-11.17,16.32-5.48L865.68,948.2" transform="translate(-10.35 -37.5)"/><path class="cls-2" d="M795.33,1126.19l2.14-35,2.15-35,2.14-35,1.84-29.94-35.08-.72L733,989.73" transform="translate(-10.35 -37.5)"/><path class="cls-2" d="M873.31,1177.68,844,1158.35,814.75,1139l-19.42-12.83-30.17,17.92L735,1162l-13,7.71" transform="translate(-10.35 -37.5)"/><path class="cls-2" d="M974.09,1206.86l-10.54-33.47-7.41-23.52L922.89,1161l-33.26,11.17-16.31,5.48-13,32.58-12.59,31.53" transform="translate(-10.35 -37.5)"/><path class="cls-2" d="M581.93,1243.6l-21.13-28L546,1195.9" transform="translate(-10.35 -37.5)"/><path class="cls-2" d="M439.12,1179.17l34.67,5.43,34.67,5.43,34.66,5.43,2.84.45,17.63-30.33,13.27-22.83" transform="translate(-10.35 -37.5)"/><path class="cls-2" d="M510.58,1056.27l21.35,27.84L553.27,1112l21.34,27.84,2.25,2.93,33.71-9.71,33.71-9.71,9.09-2.62" transform="translate(-10.35 -37.5)"/><path class="cls-2" d="M424,1087.41l33-11.88,33-11.87,20.54-7.39,6.54-34.47,6.54-34.47,3.39-17.9" transform="translate(-10.35 -37.5)"/><path class="cls-2" d="M477.15,956.53l34,8.78L527,969.42l34.12,8.16,34.12,8.16,20.73,5" transform="translate(-10.35 -37.5)"/><path class="cls-2" d="M415.87,1231.62l14.22-32.07,9-20.37-5.7-34.62-5.7-34.62L424,1087.41l-15-31.73-13.8-29.22" transform="translate(-10.35 -37.5)"/><path class="cls-2" d="M208.22,1260.33l22.44-27,22.43-27,9.66-11.61" transform="translate(-10.35 -37.5)"/><path class="cls-2" d="M224.67,1155.22,249,1180.5l13.74,14.27,28.64-20.26L320,1154.25l16.88-11.93" transform="translate(-10.35 -37.5)"/><path class="cls-2" d="M120.19,1168.9l34.79-4.55,34.79-4.55,34.9-4.57L232.6,1121l7.94-34.18,7.93-34.18.42-1.8" transform="translate(-10.35 -37.5)"/><path class="cls-2" d="M174.86,981.91l25.67,23.92,25.67,23.92,22.7,21.15,35.09-.16,35.09-.16h2.74" transform="translate(-10.35 -37.5)"/><path class="cls-2" d="M82.83,1038.91l29.83-18.48L142.48,1002l29.83-18.48,2.55-1.58,19.09-26.51" transform="translate(-10.35 -37.5)"/><path class="cls-2" d="M117.5,1237.89l1.37-35.06,1.32-33.93-9.69-33.72-9.69-33.72-9.69-33.72-8.28-28.83-24.64-7.37" transform="translate(-10.35 -37.5)"/></svg>