<?xml version="1.0" encoding="utf-8"?>
<!-- Generator: Adobe Illustrator 21.1.0, SVG Export Plug-In . SVG Version: 6.00 Build 0)  -->
<svg version="1.1" id="Layer_1" xmlns="http://www.w3.org/2000/svg" xmlns:xlink="http://www.w3.org/1999/xlink" x="0px" y="0px"
	 viewBox="0 0 595.3 841.9" style="enable-background:new 0 0 595.3 841.9;" xml:space="preserve">
<style type="text/css">
	.st0{fill:none;stroke:#FF0000;stroke-width:0.1;stroke-linejoin:bevel;}
	.st1{fill:none;stroke:#000000;stroke-width:0.1;stroke-linejoin:bevel;}
</style>
<g>
	<g>
		<path class="st0" d="M112.9,351.3l-4.2-59.6 M212.7,321.5l-29.1-52.1 M183.6,269.4l-74.9,22.3 M171.1,364.3l-58.3-13 M171.1,364.3
			l41.6-42.8"/>
		<path class="st1" d="M212.8,217.3l58.1,13v78.2l-58.3,13l52.9,27.6l4.2,59.6l-55.9,21l-42.8-65.4l0,78.2l-58.3,13l-29.1-52.1
			l29.1-52.1l-55.9,21l-42.8-65.4l41.6-42.8l52.9,27.6l-29.1-52.1l41.6-42.9l58.3,13l4.2,59.6L212.8,217.3z"/>
	</g>
	<g>
		<path class="st0" d="M43.3,589.5l58.3,13 M114,775.6l29.1-52.1 M43.3,693.7l58.3-13 M143.2,559.7L114,507.6"/>
		<path class="st1" d="M143.2,827.7L114,775.6l-74.9-22.3l4.2-59.6l-29.1-52.1l29.1-52.1L39.1,530l74.9-22.3l29.1-52.1l58.3,13
			l0,78.2l-58.3,13l-41.6,42.8l0,78.2l41.6,42.8l58.3,13v78.2L143.2,827.7z"/>
	</g>
	<g>
		<path class="st0" d="M524.7,288.4L470.2,264 M478,372l54.5-24.4"/>
		<path class="st1" d="M478,372l-46.7-62.7l38.9-45.3l7.3-59.6l55-24l38.9,45.3l-46.7,62.7l7.8,59.2l38.9,45.3l-46.7,62.7
			l-54.5-24.4L478,372z"/>
	</g>
	<g>
		<path class="st0" d="M379.2,351.5l-42.8,41.6 M351.5,298.6l-59.6-4.2 M373.9,223.7l-52.1-29.1"/>
		<path class="st1" d="M279,236.1l42.8-41.6l13-58.3H413l13,58.3l-52.1,29.1l-22.3,74.9l27.6,52.9l52.1,29.1L409,455.5l-59.6-4.2
			l-13-58.3L271,350.3l21-55.9L279,236.1z"/>
	</g>
	<g>
		<path class="st0" d="M549.4,732.3l-59.7-0.2"/>
		<path class="st1" d="M498.2,827.7l-40-44.8l31.4-50.8l-16.8-76.3l54.1-25.3l39.7,44.6l-17.2,57.2l17.2,57.5L498.2,827.7z"/>
	</g>
	<g>
		<path class="st0" d="M300.1,673.3l58.3-13 M296,732.8l74.9,22.3 M370.9,755.1L400,703 M296,732.8l4.2-59.6 M400,703l-41.6-42.8"/>
		<path class="st1" d="M401.1,594.9l56,20.9l-4.2,59.6L400,703l58.3,13v78.2l-58.3,13l-29.1-52.1l-4.2,59.6l-58.3,13l-41.6-42.8
			l29.1-52.1L243,760.5l-41.6-42.8l42.8-65.4l55.9,21L271,621.1l29.1-52l58.3,13l0,78L401.1,594.9z"/>
	</g>
</g>
</svg>
