<?xml version="1.0" encoding="utf-8"?>
<!-- Generator: Adobe Illustrator 21.1.0, SVG Export Plug-In . SVG Version: 6.00 Build 0)  -->
<svg version="1.1" id="Layer_1" xmlns="http://www.w3.org/2000/svg" xmlns:xlink="http://www.w3.org/1999/xlink" x="0px" y="0px"
	 viewBox="0 0 595.3 841.9" style="enable-background:new 0 0 595.3 841.9;" xml:space="preserve">
<style type="text/css">
	.st0{fill:none;stroke:#FF0000;stroke-width:0.1;stroke-linejoin:bevel;}
	.st1{fill:none;stroke:#000000;stroke-width:0.1;stroke-linejoin:bevel;}
</style>
<g>
	<path class="st0" d="M85.2,436.4l28.8-52.3 M179.3,802.3l-0.5-78 M120.4,711.7l-28.8,52.2 M114,384.1l-29.5-51.9 M190.6,629.2
		l29.5,51.9 M190.6,629.2l-4.6-59.5 M114,384.1l75.1,21.8 M115.8,652.1l4.6,59.6 M127.6,557.1l-41.3,43.1 M91.6,763.8l29.5,51.9
		 M220,681.1l-41.3,43.1 M120.4,711.7l58.3,12.6 M127.1,478.9l58.2-13.4 M115.8,652.1l74.7-22.8 M185.3,465.5l3.8-59.6 M185.3,465.5
		l56,20.6 M121.1,815.7l58.2-13.4 M115.8,652.1l-53.2-27.2 M273.1,708.5L220,681.1 M221.8,789.3l55.8-21.3 M62.7,624.9l-41.2,43.2
		 M127.1,478.9l0.5,78.2 M21.4,668.1l43.4,65 M127.6,557.1l58.3,12.6 M186,569.7l28.8-52.3 M127.1,478.9l-41.9-42.5 M241.3,486.1
		l42.4-65.7 M277.6,768l-4.5-59.5 M241.7,377.9l-52.7,28 M26.8,423.8l58.3,12.6"/>
	<path class="st1" d="M175.9,311.1l41.9,42.5L189,405.9l12.5-22.7l26.4-14l13.9,8.7l41.9,42.5l7.5,14.6l-33.5,51.9l-16.3-0.8
		l-12.6,10.5l-32.6-12l-10.8-19.1l29.5,51.9l8.5,14l-20.9,38l-16.4,0.3l14.8,7.1l2.3,29.8l-12.5,22.7l28.8-52.3l58.3,12.6l0.5,78.2
		L220,681.1l21.4-4.9l30.9,15.9l0.8,16.3l14.7,7.1l3.3,43.2l-13.5,9.2l-2.6,16.2l-40.5,15.5l-12.7-10.3l-43.1-65.1l14.3,21.6
		l0.3,48.1l-14.1,8.3l-4.8,15.7l-42.2,9.7l-11.2-12l-16.4-0.1L83.3,778l8.3-14.1l-8.5-14l16.7-30.2l20.6-7.9l-55.6,21.4l-16.3,1.1
		l-34.3-51.4l7.2-14.7l-4.6-15.7L46.8,621l15.9,3.9l13.7-8.9l26.7,13.6l12.7,22.4l-29.5-51.9l-4.6-15.7l30-31.3l15.9,3.9l-14.2-8.1
		l-0.3-48.3l14-21.8l-42.4,65.7l-56-20.6l3.8-59.6l52.7-28l-19.4,10.3l-34-7.3l-5-15.6l-0.5-78.2l58.2-13.4l16.4,0.1l14.7,26
		l-1.6,25.8l3.8-59.6L175.9,311.1z"/>
</g>
</svg>
