<?xml version="1.0" encoding="utf-8"?>
<!-- Generator: Adobe Illustrator 21.1.0, SVG Export Plug-In . SVG Version: 6.00 Build 0)  -->
<svg version="1.1" id="Layer_1" xmlns="http://www.w3.org/2000/svg" xmlns:xlink="http://www.w3.org/1999/xlink" x="0px" y="0px"
	 viewBox="0 0 595.3 841.9" style="enable-background:new 0 0 595.3 841.9;" xml:space="preserve">
<style type="text/css">
	.st0{fill:none;stroke:#FF0000;stroke-width:0.1;stroke-linejoin:bevel;}
	.st1{fill:none;stroke:#000000;stroke-width:0.1;stroke-linejoin:bevel;}
</style>
<g>
	<path class="st0" d="M118.2,343l2.5,78.1 M178.3,665.1l-57.8,14.9 M185.3,491.7l-74.2,24.7 M102.8,248.5l-27.5,53 M178.3,665.1
		l-2.5-78.1 M117.2,575.8l-27.5,53 M206.8,379.3l-27.5,53 M175.9,586.9l-58.6-11.2 M176,328.1L118.2,343 M221.3,706.5l-27.5,53
		 M179.3,432.3l-58.6-11.2"/>
	<path class="st1" d="M233.7,572.1l30.8,51.2l-27.5,53l-58.6-11.2l42.9,41.5l58.6,11.2l2.5,78.1l-57.8,14.9l-30.8-51.2l-75.6-20
		l2.3-59.7l-30.8-51.2l-75.6-20l2.3-59.7l57.8-14.9l42.9,41.5l-6-59.4l-30.8-51.2l40.2-44.1L62.9,436l-30.8-51.2l27.5-53l58.6,11.2
		l-42.9-41.5l-58.6-11.2l-2.5-78.1L72,197.3l30.8,51.2l75.6,20l-2.3,59.7l30.8,51.2l75.6,20l-2.3,59.7l-57.8,14.9l-42.9-41.5l6,59.4
		l30.8,51.2l-40.2,44.1L233.7,572.1z"/>
</g>
</svg>
