<?xml version="1.0" encoding="utf-8"?>
<!-- Generator: Adobe Illustrator 21.1.0, SVG Export Plug-In . SVG Version: 6.00 Build 0)  -->
<svg version="1.1" id="Layer_1" xmlns="http://www.w3.org/2000/svg" xmlns:xlink="http://www.w3.org/1999/xlink" x="0px" y="0px"
	 viewBox="0 0 595.3 841.9" style="enable-background:new 0 0 595.3 841.9;" xml:space="preserve">
<style type="text/css">
	.st0{fill:none;stroke:#FF0000;stroke-width:0.1;stroke-linejoin:bevel;}
	.st1{fill:none;stroke:#000000;stroke-width:0.1;stroke-linejoin:bevel;}
</style>
<g>
	<path class="st0" d="M115.9,675.1l-25.4,54 M264.8,716.9l-25.4,54 M232.1,607.2l0,59.7 M213.4,339.9l-73.2,27.5 M232.1,607.2
		l-76.3-17.1 M213,513.4l-57.2,17.1 M207.6,435.5l-59-8.9 M174.9,684l5.4,78 M246.1,389.9l-38.5,45.6 M174.9,684l57.2-17.1
		 M107.6,317.5l32.7,50"/>
	<path class="st1" d="M140.3,367.4l-25.4,54l-59-8.9l-5.4-78l57.2-17.1l38.5-45.6l59,8.9l8.3,59.1l32.7,50l54.7,23.9l8.3,59.1
		l-54.3,24.8l-47.3-62.3l5.4,78l44.5,39.8l-25.4,54L283,576l44.5,39.8L289.3,684l-57.2-17.1l32.7,50l76.3,17.1v59.7l-57.2,17.1
		l-44.5-39.8l-59-8.9L123.1,779l-32.7-50L14.2,712v-59.7l57.2-17.1l44.5,39.8l59,8.9l-44.5-39.8l25.4-54l0-59.7l-32.7-50l25.4-54
		L140.3,367.4z"/>
</g>
</svg>
