<?xml version="1.0" encoding="utf-8"?>
<!-- Generator: Adobe Illustrator 21.1.0, SVG Export Plug-In . SVG Version: 6.00 Build 0)  -->
<svg version="1.1" id="Layer_1" xmlns="http://www.w3.org/2000/svg" xmlns:xlink="http://www.w3.org/1999/xlink" x="0px" y="0px"
	 viewBox="0 0 595.3 841.9" style="enable-background:new 0 0 595.3 841.9;" xml:space="preserve">
<style type="text/css">
	.st0{fill:none;stroke:#FF0000;stroke-width:0.1;stroke-linejoin:bevel;}
	.st1{fill:none;stroke:#000000;stroke-width:0.1;stroke-linejoin:bevel;}
</style>
<g>
	<path class="st0" d="M188.1,585.2l23.6-25 M266.5,370.3l-57.3-17.5 M106.8,553.2l30.2-42 M258.4,668.1l-4.9-60.6 M214.9,432
		l53.5-26.4 M101.7,473.8l-53.5,26.4 M184.2,343.6l-55-23.6 M48.2,500.3l1.8,34.4 M104.8,654.3l77.6-9.6 M26.8,635.6l10.1,60
		 M50,534.6l56.7,18.6 M182.4,644.7l28.4,42.7 M101.7,473.8l26.9-73.4 M193.7,735.8l-77.6,9.6 M210.8,687.4l47.6-19.3 M220.2,598.5
		l-37.8,46.2 M101.7,473.8l35.2,37.4 M104.9,345.7l23.8,54.8 M44.5,781.2l33.8,10.4 M137,511.2l51-5.8 M271.9,752.9l-10.3-58.4
		 M188,505.4l26.9-73.4 M210.8,687.4l-17.1,48.4 M214.9,432l-35.2-37.4 M179.7,394.7l-51,5.8 M179.7,394.7l4.6-51.1 M241.7,771.3
		l30.2-18.4 M193.7,735.8l48,35.5 M40.1,722l4.3,59.2 M78.3,791.6l37.8-46.2 M36.9,695.6l50.8,7.1 M132.8,562.8l55.3,22.5
		 M211.7,560.2L188,505.4 M87.7,702.7l28.4,42.7 M104.8,654.3l-48-35.5 M87.7,702.7l17.1-48.4"/>
	<path class="st1" d="M216.4,575.9L204.1,589l-15.9-3.8l-5.7,59.4l2.5-25.4l19.2-23.5l16.1,2.7l33.2,9l14.8,7l3.6,44.3l-13.5,9.3
		l-2.2,16.2l-17.3,7l-28-3.9l50.8,7.1l15.4,5.6l7.4,42.3l-12.5,10.5l0.4,16.4l-16.3,9.9l-14.4-7.9l-15,6.5l-24.4-18.1l-8.6-24
		l20.1,56.2l-48.1,35.7l-55.4-22.9l5.7-59.4l-2.5,25.4l-19.2,23.5l-16.1-2.7l-12,11.1l-18.2-5.6l-3.7-16l-14.7-7.1l-3.1-42.9
		l13.5-9.2l47.6-19.3l-26.2,10.7L43,710.8l-6.1-15.2l-15.3-5.7L14.2,646l12.6-10.4l30-16.8l15-6.5l24.4,18.1l8.6,24l-20.1-56.2
		l48.1-35.3l4.1-51.6l-2.2,27.4l-11.7,16.3l-16.3-1.6l-12.2,10.9l-41.2-13.5l-3.4-16l-14.6-7.4l-1-18l13.7-8.9l1.1-16.3l27.2-13.4
		l25.3,3.3L42.6,466l-9.8-60l45.7-37.8l50.2,32.3l-21.4-13.8l-12.1-27.8l9.7-13.1l24.3-25.7l13.1-9.8l40,17.2l1.9,16.3l13.4,9.4
		l-1.7,18.6l-16.3,23.1l29.6-42l12-11.2l41.6,12.8l3.7,15.9l1.9,35.3l-1.1,16.3l-27.2,13.4l-25.3-3.3l59.2,7.8l10.4,58.4l-46.3,39.4
		L188,505.4l21.4,13.8l12.1,27.8l-9.7,13.2L216.4,575.9z"/>
</g>
</svg>
