<?xml version="1.0" encoding="utf-8"?>
<!-- Generator: Adobe Illustrator 21.1.0, SVG Export Plug-In . SVG Version: 6.00 Build 0)  -->
<svg version="1.1" id="Layer_1" xmlns="http://www.w3.org/2000/svg" xmlns:xlink="http://www.w3.org/1999/xlink" x="0px" y="0px"
	 viewBox="0 0 595.3 841.9" style="enable-background:new 0 0 595.3 841.9;" xml:space="preserve">
<style type="text/css">
	.st0{fill:none;stroke:#00FF00;stroke-linejoin:bevel;}
	.st1{fill:none;stroke:#FF0000;stroke-linejoin:bevel;}
</style>
<g>
	<path class="st0" d="M337.3,367.7l-70.7-32.4 M137.6,407.9l-70.7-32.4 M328.3,445l9-77.3 M328.3,445L252,460.3 M52.3,500.5
		l76.3-15.3 M213.9,392.5l38.1,67.8 M413.6,747.6l38.1,67.8 M243,537.6l70.7,32.4 M413.6,352.4l38.1,67.8 M537,327.6l-70.7-32.4
		 M528,800.1l9-77.3 M399,477.5l52.7-57.2 M243,537.6l-52.7,57.2 M328.3,445l70.7,32.4 M451.7,420.2l76.3-15.3 M451.7,815.4
		l76.3-15.3 M366.4,512.8l-52.7,57.2 M413.6,352.4l-76.3,15.3 M528,404.9l9-77.3 M351.9,637.9l76.3-15.3 M181.3,427.9l-52.7,57.2
		 M351.9,637.9l-9,77.3 M166.7,552.9l-38.1-67.8 M313.7,570.1l38.1,67.8 M413.6,352.4l52.7-57.2 M66.9,375.4l-52.7,57.2 M243,537.6
		l9-77.3 M342.9,715.2l70.7,32.4 M413.6,747.6l52.7-57.2 M114,610.2l52.7-57.2"/>
	<path class="st1" d="M437.2,545.3l-9,77.3l38.1,67.8l70.7,32.4l13.1,9.8l-7.1,61l-15,6.5l-5.2,15.5l-60.2,12.1l-10.8-12.3
		l-16.4-0.2l-30.1-53.6l8.3-14.1l-13.3,9.5l-55.8-25.6l-1.5-16.3l-13.1-9.8l7.1-61l15-6.5l-16.4-0.2L310.9,594l2.8-24l-9,77.3
		l-76.3,15.3l-38.1-67.8l-4.9-15.6l34-36.9l23.6-4.7l-76.3,15.3l4.9,15.6L130,613.8l-16-3.6l-70.7-32.4l9-77.3l-38.1-67.8l2.8-24
		l34-36.9l16,3.6l13.3-9.5l55.8,25.6l1.5,16.3l-9,77.3l2.8-24l34-36.9l16,3.6l70.7,32.4l-21.9-10.1l-24.6-43.7l8.3-14.1l52.7-57.2
		l13.3-9.5l45.5,20.9l11.8,21l5.2-15.5l49.1-9.9l21.9,10.1L342.9,320l9-77.3l76.3-15.3l38.1,67.8l13.3-9.5l55.8,25.6l1.5,16.3
		l13.1,9.8l-7.1,61l-15,6.5l-5.2,15.5l-60.2,12.1l-10.8-12.3l-2.8,24l-34,36.9l-16-3.6l-13.3,9.5L340.1,466l-11.8-21l38.1,67.8
		L437.2,545.3z"/>
</g>
</svg>
