<?xml version="1.0" encoding="utf-8"?>
<!-- Generator: Adobe Illustrator 21.1.0, SVG Export Plug-In . SVG Version: 6.00 Build 0)  -->
<svg version="1.1" id="Layer_1" xmlns="http://www.w3.org/2000/svg" xmlns:xlink="http://www.w3.org/1999/xlink" x="0px" y="0px"
	 viewBox="0 0 595.3 841.9" style="enable-background:new 0 0 595.3 841.9;" xml:space="preserve">
<style type="text/css">
	.st0{fill:none;stroke:#0000FF;stroke-linejoin:bevel;}
	.st1{fill:none;stroke:#FF0000;stroke-linejoin:bevel;}
</style>
<g>
	<path class="st0" d="M54,292.3l335.3,168.3 M48.6,617.6l340.7-157.1 M389.3,460.6L160.2,163.5 M299.5,824.8l89.8-364.2 M14.2,454.3
		l375.1,6.3 M311.7,93.5l77.6,367 M150.4,749.9l238.9-289.3 M466.4,827.7l-77.1-367.1"/>
	<path class="st1" d="M14.2,454.3L54,292.3l106.2-128.8l151.5-70l166.9,2.7l-89.3,364.4l19.9,25.9l69.4,330.3l-12.2,10.9l-166.9-2.9
		l-149.1-75L48.6,617.6L14.2,454.3z"/>
</g>
</svg>
