<?xml version="1.0" encoding="utf-8"?>
<!-- Generator: Adobe Illustrator 21.1.0, SVG Export Plug-In . SVG Version: 6.00 Build 0)  -->
<svg version="1.1" id="Layer_1" xmlns="http://www.w3.org/2000/svg" xmlns:xlink="http://www.w3.org/1999/xlink" x="0px" y="0px"
	 viewBox="0 0 595.3 841.9" style="enable-background:new 0 0 595.3 841.9;" xml:space="preserve">
<style type="text/css">
	.st0{fill:none;stroke:#0000FF;stroke-width:0.2;stroke-linejoin:bevel;}
	.st1{fill:none;stroke:#FF0000;stroke-width:0.3;stroke-linejoin:bevel;}
</style>
<g>
	<path class="st0" d="M498.5,773.1l-176-253.2 M177.8,792.2l144.8-272.3 M57.1,676.9l265.4-157 M185.4,243.7l137.1,276.2
		 M322.5,519.9l-308.3-4.3 M340.8,827.7l-18.3-307.8 M349.4,212.7l-26.9,307.2 M61.6,355.6l261,164.3"/>
	<path class="st1" d="M14.2,515.6l47.4-160l123.8-111.9l164-31l156.1,59l-183,248.2l24.9,11l158.1,227.4l-7,14.8l-157.7,54.6
		l-163.1-35.5L57.1,676.9L14.2,515.6z"/>
</g>
</svg>
