<?xml version="1.0" encoding="utf-8"?>
<!-- Generator: Adobe Illustrator 21.1.0, SVG Export Plug-In . SVG Version: 6.00 Build 0)  -->
<svg version="1.1" id="Layer_1" xmlns="http://www.w3.org/2000/svg" xmlns:xlink="http://www.w3.org/1999/xlink" x="0px" y="0px"
	 viewBox="0 0 595.3 841.9" style="enable-background:new 0 0 595.3 841.9;" xml:space="preserve">
<style type="text/css">
	.st0{fill:none;stroke:#0000FF;stroke-width:0.2;stroke-linejoin:bevel;}
	.st1{fill:none;stroke:#FF0000;stroke-width:0.3;stroke-linejoin:bevel;}
</style>
<g>
	<path class="st0" d="M94.2,684.2l295.1-231.6 M475.2,817.8l-85.9-365.2 M55,282.4l334.3,170.2 M49.6,611.7l339.7-159.2
		 M390.7,827.7l-1.4-375.1 M101.9,211.4l287.4,241.2 M237,109.7l152.3,342.8 M389.3,452.6L163.6,152.9 M22.4,531.1l366.8-78.5
		 M306.1,818.4l83.2-365.8 M318.1,84.2l71.1,368.3 M225.8,790.2l163.4-337.7 M14.2,446.4l375.1,6.1 M403,77.7l-13.7,374.9
		 M25.2,362.1l364.1,90.5 M153.9,744.7l235.3-292.2"/>
	<path class="st1" d="M163.6,152.9l73.3-43.1l81.2-25.5l84.8-6.6l84.1,12.7l-97.8,362.2l27.8,56.4l70,297.6l-11.9,11.2l-84.5,10
		l-84.6-9.3l-80.3-28.1l-71.9-45.5l-59.8-60.5l-44.6-72.5l-27.1-80.6l-8.3-84.7l11-84.4L55,282.4l47-71L163.6,152.9z"/>
</g>
</svg>
