<?xml version="1.0" encoding="utf-8"?>
<!-- Generator: Adobe Illustrator 21.1.0, SVG Export Plug-In . SVG Version: 6.00 Build 0)  -->
<svg version="1.1" id="Layer_1" xmlns="http://www.w3.org/2000/svg" xmlns:xlink="http://www.w3.org/1999/xlink" x="0px" y="0px"
	 viewBox="0 0 595.3 841.9" style="enable-background:new 0 0 595.3 841.9;" xml:space="preserve">
<style type="text/css">
	.st0{fill:none;stroke:#0000FF;stroke-width:0.2;stroke-linejoin:bevel;}
	.st1{fill:none;stroke:#FF0000;stroke-width:0.3;stroke-linejoin:bevel;}
</style>
<g>
	<path class="st0" d="M67.1,414.1l213.2,159.3 M500.8,722.4L280.3,573.4 M280.3,573.4l-76.5-254.9 M65.9,731l214.5-157.6
		 M368.7,824.4l-88.4-251.1 M370.7,323l-90.4,250.4 M14.2,572.3l266.2,1 M201.9,827.7l78.4-254.3"/>
	<path class="st1" d="M14.2,572.3l52.9-158.3l136.8-95.6l166.8,4.6L502,426L280.3,573.4l23.8-1L502,706.1l-1.2,16.3l-132.1,102
		l-166.9,3.3L65.9,731L14.2,572.3z"/>
</g>
</svg>
