<?xml version="1.0" encoding="utf-8"?>
<!-- Generator: Adobe Illustrator 21.1.0, SVG Export Plug-In . SVG Version: 6.00 Build 0)  -->
<svg version="1.1" id="Layer_1" xmlns="http://www.w3.org/2000/svg" xmlns:xlink="http://www.w3.org/1999/xlink" x="0px" y="0px"
	 viewBox="0 0 595.3 841.9" style="enable-background:new 0 0 595.3 841.9;" xml:space="preserve">
<style type="text/css">
	.st0{fill:none;stroke:#0000FF;stroke-width:0.2;stroke-linejoin:bevel;}
	.st1{fill:none;stroke:#FF0000;stroke-width:0.3;stroke-linejoin:bevel;}
</style>
<g>
	<path class="st0" d="M14.2,515.8l308.3,4.1 M270.3,216l52.2,303.9 M397.6,220.8l-75.1,299.1 M221,811l101.5-291.2 M17.7,473.2
		l304.8,46.7 M312.8,211.7l9.7,308.2 M438.2,234L322.5,519.9 M181.7,794.2l140.8-274.3 M322.5,519.9l33-306.6 M27.1,431.5
		l295.4,88.4 M476.7,252.8L322.5,519.9 M145.1,772.1l177.4-252.2 M42.2,391.5l280.4,128.4 M505.6,768l-183-248.2 M111.9,745.1
		l210.6-225.3 M62.6,353.9l259.9,165.9 M469.5,791l-147-271.1 M82.8,713.8l239.7-194 M88.1,319.6l234.5,200.3 M430.6,808.7
		L322.5,519.9 M58.3,678.8l264.2-159 M118,289.1l204.5,230.8 M389.6,820.8l-67.1-301 M38.8,640.8l283.7-120.9 M151.9,263
		l170.6,256.9 M347.3,827.2l-24.8-307.4 M24.8,600.4l297.7-80.5 M189,241.9l133.5,278 M304.6,827.7l17.9-307.8 M16.6,558.4
		l305.9-38.6 M228.8,226.1l93.8,293.8 M262.2,822.3l60.3-302.4"/>
	<path class="st1" d="M397.6,220.8l40.6,13.3l38.4,18.8l35.5,23.9L322.5,519.9l71.7,73.3L512.1,753l-6.5,15L469.5,791l-38.9,17.7
		l-41,12.2l-42.3,6.4l-42.7,0.5l-42.4-5.4L221,811l-39.3-16.8l-36.6-22.1l-33.2-27l-29.1-31.3l-24.5-35l-19.4-38.1l-14-40.4
		l-8.3-41.9l-2.4-42.7l3.5-42.6l9.4-41.7l15.1-40l20.5-37.5l25.4-34.3l30-30.5l33.9-26.1l37.2-21.1l39.7-15.8l41.5-10.1l42.5-4.3
		l42.7,1.6L397.6,220.8z"/>
</g>
</svg>
