<?xml version="1.0" encoding="utf-8"?>
<!-- Generator: Adobe Illustrator 21.1.0, SVG Export Plug-In . SVG Version: 6.00 Build 0)  -->
<svg version="1.1" id="Layer_1" xmlns="http://www.w3.org/2000/svg" xmlns:xlink="http://www.w3.org/1999/xlink" x="0px" y="0px"
	 viewBox="0 0 595.3 841.9" style="enable-background:new 0 0 595.3 841.9;" xml:space="preserve">
<style type="text/css">
	.st0{fill:none;stroke:#0000FF;stroke-width:0.2;stroke-linejoin:bevel;}
	.st1{fill:none;stroke:#FF0000;stroke-width:0.3;stroke-linejoin:bevel;}
</style>
<g>
	<path class="st0" d="M346.1,213.5L322.5,521 M117.6,751.4l205-230.4 M58,362.4L322.5,521 M429.2,231.7L322.5,521 M62.4,686.6
		L322.5,521 M27,609.2L322.5,521 M322.5,521l181.7-249.2 M188.3,798.6L322.5,521 M111.4,296.2L322.5,521 M180.9,247.1L322.5,521
		 M436.9,807.4L322.5,521 M269.3,824.7L322.5,521 M322.5,521l31.8,306.7 M261.2,218.8L322.5,521 M14.2,525.1l308.3-4.1 M24.8,440.7
		L322.5,521"/>
	<path class="st1" d="M117.6,751.4l-55.2-64.8L27,609.2l-12.9-84.1l10.6-84.4L58,362.4l53.4-66.2l69.5-49.1l80.2-28.3l84.9-5.3
		l83.1,18.1l75,40.2l6.6,15L363.4,489l-40.8,32l188.3,244.2l-73.9,42.2l-82.6,20.4l-85-3l-81-26.1L117.6,751.4z"/>
</g>
</svg>
