<?xml version="1.0" encoding="utf-8"?>
<!-- Generator: Adobe Illustrator 21.1.0, SVG Export Plug-In . SVG Version: 6.00 Build 0)  -->
<svg version="1.1" id="Layer_1" xmlns="http://www.w3.org/2000/svg" xmlns:xlink="http://www.w3.org/1999/xlink" x="0px" y="0px"
	 viewBox="0 0 595.3 841.9" style="enable-background:new 0 0 595.3 841.9;" xml:space="preserve">
<style type="text/css">
	.st0{fill:none;stroke:#0000FF;stroke-width:0.2;stroke-linejoin:bevel;}
	.st1{fill:none;stroke:#FF0000;stroke-width:0.3;stroke-linejoin:bevel;}
</style>
<g>
	<path class="st0" d="M14.2,561l266.2,0.7 M290.9,295.8l-10.6,266 M373,811.2l-92.7-249.5 M17.7,518.4l262.6,43.3 M333.3,300.9
		l-53,260.8 M331.9,822.8l-51.6-261.1 M28,476.9l252.3,84.8 M374.4,312.7l-94.1,249 M289.4,827.7l-9.1-266 M44.9,437.6l235.5,124.1
		 M413,331L280.3,561.7 M246.7,825.7l33.6-264 M67.8,401.5l212.6,160.2 M448.3,355.2L280.3,561.7 M204.9,817l75.4-255.2 M96.2,369.6
		l184.2,192.2 M479.2,384.8l-198.8,177 M66.9,720.7l213.4-159 M165,801.6l115.3-239.9 M129.3,342.5l151,219.2 M504.1,705.8
		L280.3,561.7 M44.2,684.5l236.1-122.8 M128.1,780l152.2-218.3 M280.3,561.7L95.1,752.8 M166.3,321.2l114,240.5 M478.2,739.8
		l-197.8-178 M27.6,645.1l252.8-83.4 M206.3,306l74,255.7 M447.1,769.1L280.3,561.7 M17.5,603.6l262.8-41.9 M248.2,297.5l32.2,264.2
		 M411.8,793.2L280.3,561.7"/>
	<path class="st1" d="M290.9,295.8l42.4,5.1l41.1,11.8L413,331l35.2,24.2l30.9,29.5l25.8,34.1L280.3,561.7l81.2,35.4l143.4,92.3
		l-0.8,16.3l-26,34l-31.1,29.4l-35.4,24L373,811.2l-41.1,11.6l-42.5,4.9l-42.7-2l-41.8-8.8L165,801.6L128.1,780l-33-27.2l-28.2-32.1
		l-22.7-36.2l-16.6-39.4l-10.1-41.5L14.2,561l3.5-42.6L28,476.9l16.8-39.3l22.9-36.1l28.4-32l33.1-27l37-21.4l40-15.1l41.9-8.6
		L290.9,295.8z"/>
</g>
</svg>
