<?xml version="1.0" encoding="utf-8"?>
<!-- Generator: Adobe Illustrator 21.1.0, SVG Export Plug-In . SVG Version: 6.00 Build 0)  -->
<svg version="1.1" id="Layer_1" xmlns="http://www.w3.org/2000/svg" xmlns:xlink="http://www.w3.org/1999/xlink" x="0px" y="0px"
	 viewBox="0 0 595.3 841.9" style="enable-background:new 0 0 595.3 841.9;" xml:space="preserve">
<style type="text/css">
	.st0{fill:none;stroke:#0000FF;stroke-width:0.2;stroke-linejoin:bevel;}
	.st1{fill:none;stroke:#FF0000;stroke-width:0.3;stroke-linejoin:bevel;}
</style>
<g>
	<path class="st0" d="M280.3,561.7l223.2-145.1 M204.3,306.7l76,255.1 M28,646.5l252.3-84.7 M288.7,295.7l-8.3,266 M27.5,478.5
		l252.8,83.2 M446.3,353.7l-166,208.1 M14.2,562.5l266.2-0.8 M447.6,768.8L280.3,561.7 M372.2,311.9l-91.9,249.8 M373.7,811
		l-93.4-249.3 M67.7,721.8l212.7-160 M66.7,403l213.6,158.8 M290.3,827.7l-9.9-266 M127.7,343.7l152.6,218.1 M280.3,561.7
		l-74.5,255.5 M129,780.7l151.3-219"/>
	<path class="st1" d="M127.7,343.7l76.6-37l84.4-11l83.5,16.2l74.1,41.7l57.2,63l0.9,16.3L323.8,550.4l-43.5,11.3l224,143.7
		l-56.8,63.3L373.7,811l-83.4,16.7l-84.4-10.5L129,780.7l-61.4-58.9L28,646.5l-13.8-83.9l13.3-84L66.7,403L127.7,343.7z"/>
</g>
</svg>
