<?xml version="1.0" encoding="utf-8"?>
<!-- Generator: Adobe Illustrator 21.1.0, SVG Export Plug-In . SVG Version: 6.00 Build 0)  -->
<svg version="1.1" id="Layer_1" xmlns="http://www.w3.org/2000/svg" xmlns:xlink="http://www.w3.org/1999/xlink" x="0px" y="0px"
	 viewBox="0 0 595.3 841.9" style="enable-background:new 0 0 595.3 841.9;" xml:space="preserve">
<style type="text/css">
	.st0{fill:none;stroke:#0000FF;stroke-linejoin:bevel;}
	.st1{fill:none;stroke:#00FF00;stroke-linejoin:bevel;}
	.st2{fill:none;stroke:#FF0000;stroke-linejoin:bevel;}
</style>
<g>
	<path class="st0" d="M161.6,508.3l-20.2-56.9 M189,128.3l3.6-60.3 M303.3,207.8l-46-55.8 M303.3,207.8l55.3-24.4 M284.8,345.7
		l28.6-66.4 M84.2,688L74,616.5 M74,616.5l-59.8-8 M284.8,345.7l46.9,38 M198.4,767.4l-68.3-23.7 M118.4,143.7L90.1,90.4
		 M130.1,743.8l-34.5,49.6 M321.3,702.1l-52.3,50 M269,752.1l28.3,53.3 M257.3,152L189,128.3 M257.3,152l34.5-49.6 M313.4,279.3
		l-10.2-71.5 M313.4,279.3l59.8,8 M225.8,387.5l-72.1,4.9 M225.8,387.5l59-41.7 M102.6,550.1l-46.9-38 M130.1,743.8l-46-55.8
		 M84.2,688l-55.3,24.4 M225.8,387.5l20.2,56.9 M269,752.1l-70.6,15.4 M198.4,767.4l-3.6,60.3 M246.1,444.3l-104.7,7.1"/>
	<path class="st1" d="M202,707.2l-3.6,60.3 M257.3,152l-34.5,49.6 M153.7,392.4l12.4-59.1 M313.4,279.3l-59.8-8 M89.6,359l41.3-44
		 M164.6,694.2l-34.5,49.6 M279.5,633.1l60.4-0.8 M225.8,387.5l-20.2-56.9 M240.7,698.7L269,752 M303.3,207.8L248,232.1
		 M284.8,345.7l-46.9-38 M269.3,671.4l52,30.7 M139.4,663.7L84.2,688 M268.3,595.2l51.1-32.2"/>
	<path class="st2" d="M118.4,143.7l-52.3,49.9l-52-30.7L90,90.4l102.5-22.3l99.2,34.4l66.7,81l14.8,103.9l-41.5,96.4L246,444.4
		l-12.4,59.1l-72.1,4.9l-59,41.7L74,616.5l59.8,8l5.6,39.2l25.2,30.6l37.4,13l38.7-8.4l28.6-27.3l10.2-38.3l-11.2-38l-29.4-26.5
		l26.9-54.1l53.6,48.5l20.5,69.3l-18.6,69.8l52,30.7l-75.9,72.5l-102.5,22.3l-99.2-34.4l-66.7-81L14.2,608.5l41.5-96.4l85.7-60.6
		l12.4-59.1L89.6,359l-37.3-61.9l58.2-16L131,315l35.1,18.3l39.5-2.7l32.3-22.9l15.7-36.4l-5.6-39.2l-25.2-30.6l-37.4-13l3.6-60.3
		L118.4,143.7z"/>
</g>
</svg>
