<?xml version="1.0" encoding="utf-8"?>
<!-- Generator: Adobe Illustrator 21.1.0, SVG Export Plug-In . SVG Version: 6.00 Build 0)  -->
<svg version="1.1" id="Layer_1" xmlns="http://www.w3.org/2000/svg" xmlns:xlink="http://www.w3.org/1999/xlink" x="0px" y="0px"
	 viewBox="0 0 595.3 841.9" style="enable-background:new 0 0 595.3 841.9;" xml:space="preserve">
<style type="text/css">
	.st0{fill:none;stroke:#0000FF;stroke-linejoin:bevel;}
	.st1{fill:none;stroke:#00FF00;stroke-linejoin:bevel;}
	.st2{fill:none;stroke:#FF0000;stroke-linejoin:bevel;}
</style>
<g>
	<path class="st0" d="M279.6,117.8l-79.9-33.9 M336.5,274.9l-6.4-86.5 M279.6,117.8l25.1-31.3 M222.7,397.3l74.1-45.2 M199.7,83.9
		l5.1-39.8 M222.7,474.5H136 M222.7,474.5l10.8-38.6 M296.8,352.1l39.7-77.2 M113.9,96.6l-66.7,55.5 M199.7,788l5.1,39.8
		 M296.8,352.1l29.4,27.3 M222.7,397.3H136 M336.5,596.9l-6.4,86.5 M199.7,788l-85.9-12.7 M233.6,435.9H125.1 M330.1,683.5
		l37.7,13.6 M336.5,596.9l39.3-8 M222.7,397.3l10.8,38.6 M330.1,188.4l-50.5-70.6 M330.1,188.4l37.7-13.6 M113.9,96.6L97.5,60
		 M199.7,83.9l-85.9,12.7 M279.6,754l-79.9,34 M222.7,474.5l74.1,45.2 M279.6,754l25.1,31.3 M336.5,274.9l39.3,8 M296.8,519.7
		l29.4-27.3 M296.8,519.7l39.7,77.2 M113.9,775.3l-16.4,36.6 M330.1,683.5L279.6,754 M113.9,775.3l-66.7-55.5"/>
	<path class="st1" d="M330.1,188.4L292.4,202 M211.9,513.1l10.8-38.6 M296.8,352.1l-29.4-27.3 M292.4,669.8l37.7,13.6 M194.6,748.2
		l5.1,39.8 M199.7,83.9l-5.1,39.8 M254.6,722.8l25.1,31.3 M336.5,274.9l-39.3-8 M279.6,117.8l-25.1,31.3 M222.7,397.3l-10.8-38.6
		 M297.2,604.9l39.3-8 M130.3,738.7l-16.4,36.6 M267.5,547l29.4-27.3 M113.9,96.6l16.4,36.6"/>
	<path class="st2" d="M47.2,719.7l33-22.7l50,41.7l64.4,9.5l59.9-25.4l37.9-52.9l4.8-64.9l-29.7-58l-55.6-33.9h-65.1L136,474.5
		l-10.8-38.6l10.8-38.6l10.8-38.6h65.1l55.6-33.9l29.8-57.9l-4.8-64.9l-37.9-52.9l-59.9-25.4l-64.4,9.5l-50,41.7l-33-22.7l-33-22.7
		L97.5,60l107.3-15.8l99.9,42.4l63.1,88.2l7.9,108.2l-49.6,96.5L233.5,436l92.6,56.5l49.6,96.5l-7.9,108.2l-63.1,88.2l-99.9,42.4
		L97.5,811.9l-83.3-69.4L47.2,719.7z"/>
</g>
</svg>
