<?xml version="1.0" encoding="utf-8"?>
<!-- Generator: Adobe Illustrator 21.1.0, SVG Export Plug-In . SVG Version: 6.00 Build 0)  -->
<svg version="1.1" id="Layer_1" xmlns="http://www.w3.org/2000/svg" xmlns:xlink="http://www.w3.org/1999/xlink" x="0px" y="0px"
	 viewBox="0 0 595.3 841.9" style="enable-background:new 0 0 595.3 841.9;" xml:space="preserve">
<style type="text/css">
	.st0{fill:#CCCCCC;}
	.st1{fill:none;stroke:#0000FF;stroke-linejoin:bevel;}
	.st2{fill:none;stroke:#00FF00;stroke-linejoin:bevel;}
	.st3{fill:none;stroke:#FF0000;stroke-linejoin:bevel;}
</style>
<g>
	<g>
		<path class="st0" d="M327.5,598.7l-16.3-1.5L290.8,553l9.4-13.4L327.5,598.7z M222.2,777.4l-14.8-7l-2-23.6l13.4-9.4L222.2,777.4z
			 M279.8,714.6l-6.1-15.2l30-38.4l16.2,2.3L279.8,714.6z M406.6,586.1l13.1,9.8L409,687.4l-15,6.5L406.6,586.1z M252.8,349.1
			l0.3-16.4l42.6-23.6l14,8.4L252.8,349.1z M319.9,663.3l-13.1-9.8l5.6-48.4l15-6.5L319.9,663.3z M187.8,346.3l8.8-13.8l48.7,2.1
			l7.6,14.5L187.8,346.3z M72.7,362l-16.3-1.5l-38.6-83.7l9.4-13.4L72.7,362z M245.6,113.5L233.1,103l4-23.4l15.4-5.7L245.6,113.5z
			 M327.2,779.3l-2.7,16.1l-86.3,32.3l-12.6-10.4L327.2,779.3z M225.6,817.3l-14.8-7l-2-23.6l13.4-9.4L225.6,817.3z M106.5,250.9
			l16.3,1.5l20.4,44.2l-9.4,13.4L106.5,250.9z M218.8,737.4l2.7-16.1l45.6-17.1l12.6,10.4L218.8,737.4z M271.2,427.1l14.7-7.2
			l76.5,51.3l-1.1,16.3L271.2,427.1z M67.9,475l0.3-16.4l80.6-44.6l14,8.4L67.9,475z M133.7,310l14.7-7.2l40.5,27.1l-1.1,16.3
			L133.7,310z M27.3,263.5l5.9-15.3l23.4-3.7l10.3,12.7L27.3,263.5z M361.2,487.6l16.3,1.5l38.6,83.7l-9.4,13.4L361.2,487.6z
			 M394.1,693.8l6.1,15.2l-56.8,72.5l-16.2-2.3L394.1,693.8z"/>
		<path class="st1" d="M262,388.1l9.2,39 M222.2,777.4l3.4,39.9 M172,461.5l-9.2-39 M103.2,336l-30.5,26 M303.5,746.9l-81.3,30.5
			 M162.8,422.5L67.9,475 M327.5,598.7l-7.5,64.6 M337.9,346.1l28.2,28.5 M367.1,592.4l-36.3-78.8 M175.3,384.4l-12.5,38.1
			 M225.6,817.3l101.6-38.1 M357,678.6l10.1-86.2 M330.7,513.6l-72.1-48.4 M252.8,349.1l-65-2.8 M187.8,346.3l-54-36.3 M361.2,487.6
			l-90.1-60.4 M406.6,586.1l-45.4-98.5 M309.8,317.6l-57,31.5 M300.2,539.6l27.2,59.1 M380.9,270.7L338,346.1 M367.1,592.4l39.6-6.3
			 M96,503.5L67.9,475 M330.8,111.3L252.4,74 M330.7,513.6l30.5-26 M378.2,184l38.2-12 M258.7,465.2l-86.7-3.7 M337.9,346.1
			l-75.9,42 M380.9,270.7l38.9,9.7 M262,388.1l-86.7-3.7 M279.8,714.6l-60.9,22.8 M327.2,779.3l66.9-85.4 M27.3,263.5L72.7,362
			 M96,503.5l-42.9,75.4 M103.2,336l-36.3-78.8 M303.5,746.9l23.7,32.3 M330.8,111.3l47.4,72.7 M175.3,384.4L103.2,336 M319.9,663.3
			l-40.1,51.2 M378.2,184l2.6,86.7 M271.2,427.1l-108.4-4.7 M330.8,111.3l26.4-30.2 M258.7,465.2l12.5-38.1 M394.1,693.8l12.6-107.7
			 M303.5,746.9l53.5-68.3 M66.9,257.2l-39.6,6.3 M357,678.6l37.1,15.2 M172,461.5l-75.9,42 M133.7,310l-27.2-59.1"/>
		<path class="st2" d="M303.5,746.9l-23.7-32.3 M342,261l38.9,9.7 M309.8,317.6l28.2,28.5 M330.7,513.6l-30.5,26 M258.7,465.2
			l-12.5,38.1 M252.8,349.1l9.2,39 M304.4,141.5l26.4-30.2 M218.8,737.4l3.4,39.9 M133.7,310l-30.5,26 M252.4,74l-6.8,39.5
			 M187.8,346.3l-12.5,38.1 M172,461.5l9.2,39 M367.1,592.4l-39.6,6.3 M340,196l38.2-12 M357,678.6l-37.1-15.2 M96,503.5l28.2,28.5"
			/>
		<path class="st3" d="M357.2,81.1l59.3,90.8l3.3,108.4l-53.7,94.3l-94.9,52.5l14.7-7.2l76.5,51.3l-1.1,16.3l16.3,1.5l38.6,83.7
			l-9.4,13.4l13.1,9.8l-10.7,91.5l-15,6.5l6.1,15.2l-56.8,72.5l-16.2-2.3l-2.7,16.1l-86.3,32.3l-12.6-10.4l-14.8-7l-2-23.6l13.4-9.4
			l-14.8-7l-2-23.6l13.4-9.4l2.7-16.1l45.6-17.1l12.6,10.4l-6.1-15.2l30-38.4l16.2,2.3l-13.1-9.8l5.6-48.4l15-6.5l-16.3-1.5
			l-20.4-44.2l9.4-13.4l-54-36.3l-65-2.8l-57,31.5L92,588.6l-38.9-9.7l-38.9-9.7L67.9,475l0.3-16.4l80.6-44.6l14,8.4L72.7,362
			l-16.3-1.5l-38.6-83.7l9.4-13.4l5.9-15.3l23.4-3.7l10.3,12.7l39.6-6.3l16.3,1.5l20.4,44.2l-9.4,13.4l14.7-7.2l40.5,27.1l-1.1,16.3
			l8.8-13.8l48.7,2.1l7.6,14.5l0.3-16.4l42.6-23.6l14,8.4L342,261l-2-65.1l-35.6-54.5l-58.8-28L233.1,103l4-23.4l15.4-5.7l6.8-39.5
			L357.2,81.1z"/>
	</g>
</g>
</svg>
