<?xml version="1.0" encoding="utf-8"?>
<!-- Generator: Adobe Illustrator 21.1.0, SVG Export Plug-In . SVG Version: 6.00 Build 0)  -->
<svg version="1.1" id="Layer_1" xmlns="http://www.w3.org/2000/svg" xmlns:xlink="http://www.w3.org/1999/xlink" x="0px" y="0px"
	 viewBox="0 0 595.3 841.9" style="enable-background:new 0 0 595.3 841.9;" xml:space="preserve">
<style type="text/css">
	.st0{fill:none;stroke:#0000FF;stroke-linejoin:bevel;}
	.st1{fill:none;stroke:#00FF00;stroke-linejoin:bevel;}
	.st2{fill:none;stroke:#FF0000;stroke-linejoin:bevel;}
</style>
<g>
	<path class="st0" d="M214.2,695l-37.3-13.3 M116.1,537.1l-46.6-38.4 M86.9,603.3l-59.8-8.5 M96.5,674.9L41,698.8 M146.4,302.2
		l-20.2-34.1 M210.1,755.3l-4.1,60.2 M67.9,283.7l36.8,62.2 M239.2,189.6l24.9,30.8 M201.9,176.4l37.3,13.3 M27.1,594.8l13.9,104
		 M41,698.8l66.1,81.6 M30.9,149.2l51.7,31.2 M280.8,740.5l-70.7,14.8 M274.1,140.4L309,91.1 M210.1,55.9L107.4,77.4 M329.1,268.1
		l59.8,8.5 M332.7,551.9L279.5,503 M333.5,691l-52.7,49.5 M206,116.1l4.1-60.2 M107.4,77.4l-76.5,71.8 M300,334.3l29.2-66.1
		 M96.5,674.9l-9.6-71.6 M385.2,722.2L333.5,691 M292.3,621.7l-10.5,38.2 M281.8,659.8l-28.9,27.1 M333.5,691l19.2-69.7
		 M210.1,755.3L142,731 M240.6,375.5l19.8,57.1 M280.8,740.5l27.9,53.6 M240.6,375.5l-72.1,4.3 M135.3,130.9l-27.9-53.6
		 M319.6,196.5l-45.5-56.2 M329.1,268.1l-9.6-71.6 M300,334.3l46.6,38.4 M104.7,345.9l63.8,33.9 M260.4,432.6l-104.8,6.2 M142,731
		l-34.9,49.3 M142,731l-45.5-56.2 M319.6,196.5l55.5-23.9 M269.4,259.6l-16,36.2 M274.1,140.4L206,116.1 M352.7,621.3l-19.9-69.5
		 M308.7,794l76.5-71.8 M240.6,375.5l59.3-41.3 M281.4,583.6l10.9,38.1 M107.1,780.3l98.9,35.2 M206,815.5L308.7,794 M175.4,495.9
		l-19.8-57.1"/>
	<path class="st1" d="M126.2,268.2l-58.3,15.5 M104.7,345.9l41.7-43.7 M240.6,375.5l-19.8-57.1 M281.8,659.8l51.7,31.2 M252.9,686.9
		l27.9,53.6 M279.5,503l-27.3,53.8 M281.4,583.6l51.4-31.7 M274.1,140.4l-34.9,49.3 M168.5,379.8l12.9-59 M214.2,695l-4.1,60.2
		 M292.3,621.7l60.4-0.3 M176.9,681.8L142,731 M319.6,196.5l-55.5,23.9 M300,334.3l-46.6-38.4 M151.9,651l-55.5,23.9 M329.1,268.1
		l-59.8-8.5"/>
	<path class="st2" d="M260.4,432.6l-12.9,59l-72.1,4.3l-59.3,41.3l-29.2,66.1l59.8,8.5l5.2,39.2l24.9,30.8l12.5-10.6l21.9,7.8
		l3,16.1L253,687l-3.7-15.9l16.9-15.9l15.7,4.7l-11.5-11.7l6.2-22.4l15.8-4.1l-15.9-4l-6.4-22.3l11.4-11.8l-29.1-26.8l-8.9-13.7
		l19.9-39.3l16.3-0.9l15.6-4.9l41.2,37.8l-3.6,16l15.9,4l15.4,53.7l-11.4,11.8l11.5,11.7l-14.8,53.9l-15.8,4.1l14.3-7.9l37.7,22.7
		l-0.3,16.4l3.7,15.9l-64.6,60.6l-15.7-4.7l-5.1,15.5L217,827.6l-11-12.1l-12.5,10.6L110,796.4l-3-16.1l-16.2,2.6L35,714.1l5.9-15.3
		l-15.1-6.2l-11.7-87.8l13-10l42.3-96l86.2-59.9l12.9-59l-13.9,8.7l-49.4-26.2l-0.6-16.4l-16.4,0.2L59.9,298l8-14.3l4.3-15.8
		l42.5-11.3l11.6,11.6l16.4-0.2l11.8,20l-8,14.3l35,18.6l39.5-2.4l32.5-22.6l-9.7-13.2l9.4-21.3l16.3-1.8l-5.2-39.2L248,223
		l-14.6-18l5.9-15.3l-12.5,10.6l-21.9-7.8l-3-16.1l4.1-60.2L135.3,131l-52.7,49.5l-14.3,7.9l-37.7-22.7l0.3-16.4l-3.7-15.9
		l64.6-60.6l15.7,4.7l5.1-15.5l86.7-18.1l10.9,12.2l98.8,35l66.1,81.6l13.9,104l-42.3,96L260.4,432.6z"/>
</g>
</svg>
