<?xml version="1.0" encoding="utf-8"?>
<!-- Generator: Adobe Illustrator 21.1.0, SVG Export Plug-In . SVG Version: 6.00 Build 0)  -->
<svg version="1.1" id="Layer_1" xmlns="http://www.w3.org/2000/svg" xmlns:xlink="http://www.w3.org/1999/xlink" x="0px" y="0px"
	 viewBox="0 0 595.3 841.9" style="enable-background:new 0 0 595.3 841.9;" xml:space="preserve">
<style type="text/css">
	.st0{fill:none;stroke:#00FF00;stroke-linejoin:bevel;}
	.st1{fill:none;stroke:#FF0000;stroke-linejoin:bevel;}
</style>
<g>
	<path class="st0" d="M335,709.2l18.6,108.5 M252.5,265.9l33,43 M281.2,601.4l48.7,98.7 M434.5,297.2l-80.8-74.7 M364.8,465h87.7
		 M381.6,356.2L364.8,465 M277.2,465v110.1 M364.8,575.1l87.7,0 M285.5,308.9l68.1-86.4 M252.5,265.9l101.1-43.4 M364.8,465l0,110.1
		 M329.9,339.9l-48.7,98.7 M252.5,265.9l-96.5,52.9 M389,326.7l-35.4-104.2 M364.8,575.1l16.7,108.8 M101.8,465l0,110.1
		 M285.5,731.2l68.1,86.4 M252.5,774.2l33-43 M435.8,356.2L452.5,465 M389,713.4l-35.4,104.2 M209.4,651.7l76.1,79.5 M156.1,721.3
		l96.5,52.9 M335,330.9l18.6-108.5 M189.5,465l0,110.1 M452.5,575.1l-16.7,108.8 M285.5,308.9l-76.1,79.5 M434.5,742.9l-80.8,74.7
		 M252.5,774.2l101.1,43.4 M452.5,465v110.1"/>
	<path class="st1" d="M234,825.1l-107.9-21.5l30-82.4l53.4-69.6l71.8-50.3l83.6-26.4h-87.7h-87.7l-87.7,0H14.2l0-110.1h87.7l87.7,0
		h87.7h87.7l-83.6-26.4l-71.8-50.3l-53.4-69.6l-30-82.4L234,215l18.5,50.9l-8.5-53.5l109.6,10.1l106.7,27.1l-25.9,47.6L389,326.7
		l-54,4.2l-49.5-22l44.4,31.1l51.7,16.3h54.2l51.7-16.3l48.7,98.7L452.5,465l87.7,0v110.1h-87.7l83.6,26.4l-48.7,98.7l-51.7-16.3
		h-54.2l-51.7,16.3l-44.4,31.1l49.5-22l54,4.2l45.4,29.5l25.9,47.6l-106.7,27.1l-109.6,10.1l8.5-53.5L234,825.1z"/>
</g>
</svg>
