<?xml version="1.0" encoding="utf-8"?>
<!-- Generator: Adobe Illustrator 21.1.0, SVG Export Plug-In . SVG Version: 6.00 Build 0)  -->
<svg version="1.1" id="Layer_1" xmlns="http://www.w3.org/2000/svg" xmlns:xlink="http://www.w3.org/1999/xlink" x="0px" y="0px"
	 viewBox="0 0 595.3 841.9" style="enable-background:new 0 0 595.3 841.9;" xml:space="preserve">
<style type="text/css">
	.st0{fill:none;stroke:#00FF00;stroke-linejoin:bevel;}
	.st1{fill:none;stroke:#FF0000;stroke-linejoin:bevel;}
</style>
<g>
	<path class="st0" d="M101.8,465l0,110.1 M364.8,575.1l87.7,0 M434.5,742.9l-80.8,74.7 M536.1,601.4l-83.6-26.4 M252.5,265.9
		l-96.5,52.9 M156.1,318.8l53.4,69.6 M460.3,790.5l-25.9-47.6 M252.5,774.2l33-43 M285.5,308.9l68.1-86.4 M156.1,721.3l96.5,52.9
		 M381.6,356.2L364.8,465 M452.5,465v110.1 M252.5,265.9l33,43 M364.8,465h87.7 M209.4,388.4l71.8,50.3 M452.5,465l83.6-26.4
		 M435.8,356.2L452.5,465 M252.5,774.2l-8.5,53.5 M434.5,297.2l-80.8-74.7 M285.5,308.9l49.5,22 M252.5,774.2l101.1,43.4
		 M209.4,651.7l-53.4,69.6 M389,326.7l45.4-29.5 M156.1,721.3l-30,82.4 M389,713.4l-54-4.2 M335,709.2l18.6,108.5 M364.8,575.1
		l-83.6,26.4 M281.2,601.4l48.7,98.7 M285.5,308.9l-76.1,79.5 M434.5,297.2l25.9-47.6 M335,330.9l18.6-108.5 M189.5,465l0,110.1
		 M389,713.4l-35.4,104.2 M277.2,465v110.1 M126.1,236.4l30,82.4 M364.8,575.1l16.7,108.8 M252.5,265.9l101.1-43.4 M329.9,339.9
		l-48.7,98.7 M244.1,212.4l8.5,53.5 M281.2,601.4l-71.8,50.3 M281.2,438.7l83.6,26.4 M434.5,742.9L389,713.4 M364.8,465l0,110.1
		 M285.5,731.2l68.1,86.4 M389,326.7l-35.4-104.2 M209.4,651.7l76.1,79.5 M452.5,575.1l-16.7,108.8 M335,709.2l-49.5,22 M335,330.9
		l54-4.2"/>
	<path class="st1" d="M284.8,585.5l32.9-10.4h47.1h-87.7h-87.7l-87.7,0H14.2l0-110.1h87.7l87.7,0h87.7h87.7l-47.1,0l-32.9-10.4
		l-3.5-16l-14.8,6.9L208,404.7l1.4-16.3l-16.2,2.1l-43.4-56.6l6.3-15.1l-16.1-2.8l-24.4-67l10.5-12.5L234,215l18.5,50.9l-17-46.6
		l8.5-6.9l109.6,10.1l106.7,27.1l8.6,14l-18,33.2l-16.4,0.4l0.9,16.3l-31.7,20.6l-14.6-7.4l-7,14.8l-37.7,3l-9.3-13.5l-8.8,6.4
		l-40.7-28.5l44.4,31.1l51.7,16.3h54.2l51.7-16.3l48.7,98.7l-3.5,16L499.6,465l-47.1,0l87.7,0v110.1h-87.7l47.1,0l32.9,10.4l3.5,16
		l-48.7,98.7l-51.7-16.3h-54.2l-51.7,16.3l-44.4,31.1l40.7-28.5l8.8,6.4l9.3-13.5l37.7,3l7,14.8l14.6-7.4l31.7,20.6l-0.9,16.3
		l16.4,0.4l18,33.2l-8.6,14l-106.7,27.1l-109.6,10.1l-8.5-6.9l0,0l17-46.6L234,825.1l-107.9-21.5l-10.5-12.5l24.4-67l16.1-2.8
		l-6.3-15.1l43.4-56.6l16.2,2.1l-1.4-16.3l58.4-40.9l14.8,6.9L284.8,585.5z"/>
</g>
</svg>
