<?xml version="1.0" encoding="utf-8"?>
<!-- Generator: Adobe Illustrator 21.1.0, SVG Export Plug-In . SVG Version: 6.00 Build 0)  -->
<svg version="1.1" id="Layer_1" xmlns="http://www.w3.org/2000/svg" xmlns:xlink="http://www.w3.org/1999/xlink" x="0px" y="0px"
	 viewBox="0 0 595.3 841.9" style="enable-background:new 0 0 595.3 841.9;" xml:space="preserve">
<style type="text/css">
	.st0{fill:none;stroke:#00FF00;stroke-linejoin:bevel;}
	.st1{fill:none;stroke:#FF0000;stroke-linejoin:bevel;}
</style>
<g>
	<path class="st0" d="M439.7,654.1l-174.1,71.8 M393.6,614.5l-123.1,50.8 M180.3,345.1l230.6,1.6 M496.1,663.2l0-230.6 M176.6,570.8
		L294,548 M251.5,723L118.8,589.4 M477.7,690.7l-213.2,87.9 M228.3,448l65.8,99.9 M393.6,614.5L294.2,548 M393.6,614.5l0-133.2
		 M201.1,393.7l188.3,1.3 M63.3,576l89.4-212.6 M270.5,665.3l-93.9-94.5 M228.3,448l133.2,0.9 M116,575.2l73-173.6 M447.8,642.1
		l0-188.3 M232.1,772.1L69.6,608.4 M176.6,570.8L228.3,448 M270.5,665.3L294.1,548"/>
	<path class="st1" d="M24.5,628l45-19.6l49.2-19.1l57.8-18.6l-60.6,4.4L63.3,576l-49.1-1.3l103.2-245.5l35.3,34.2l36.4,38.2
		l39.2,46.4l-27.2-54.3l-20.8-48.5l-17.5-45.9l266.3,1.9l-18.1,45.6L389.4,395l-27.9,53.9l-67.2,98.9l99.4-66.5l54.1-27.6l48.4-21.1
		l45.8-17.8l0,266.3l-45.8-17.8l-48.4-21.1l-54.1-27.6l46.1,39.5l38,36.7l33.9,35.5L265.5,827.7l-1-49.1l1.1-52.8l4.9-60.6l-19,57.7
		l-19.4,49.1L212.2,817L24.5,628z M294.2,548l0-0.1l-0.1,0l0,0.1l0.1,0.1L294.2,548z"/>
</g>
</svg>
