<?xml version="1.0" encoding="utf-8"?>
<!-- Generator: Adobe Illustrator 21.1.0, SVG Export Plug-In . SVG Version: 6.00 Build 0)  -->
<svg version="1.1" id="Layer_1" xmlns="http://www.w3.org/2000/svg" xmlns:xlink="http://www.w3.org/1999/xlink" x="0px" y="0px"
	 viewBox="0 0 595.3 841.9" style="enable-background:new 0 0 595.3 841.9;" xml:space="preserve">
<style type="text/css">
	.st0{fill:none;stroke:#00FF00;stroke-linejoin:bevel;}
	.st1{fill:none;stroke:#FF0000;stroke-linejoin:bevel;}
</style>
<g>
	<path class="st0" d="M270.5,665.3l-4.9,60.6 M180.3,345.1l20.8,48.5 M496.1,663.2l0-230.6 M180.3,345.1l230.6,1.6 M228.3,448
		l133.2,0.9 M439.7,654.1l-46.1-39.5 M201.1,393.7l188.3,1.3 M511.6,726.2l-33.9-35.5 M251.5,723L118.8,589.4 M410.9,346.8
		l18.1-45.6 M393.6,614.5l0-133.2 M176.6,570.8L294,548 M393.6,614.5L294.2,548 M447.8,453.8l-54.1,27.6 M63.3,576l89.4-212.6
		 M212.2,817l19.9-44.9 M393.6,481.3l-99.4,66.5 M270.5,665.3L294.1,548 M389.4,395l21.5-48.2 M63.3,576l52.8-0.8 M232.1,772.1
		L69.6,608.4 M393.6,614.5l-123.1,50.8 M116,575.2l73-173.6 M439.7,654.1l-174.1,71.8 M228.3,448l65.8,99.9 M152.6,363.4l-35.3-34.2
		 M116,575.2l60.6-4.4 M270.5,665.3l-93.9-94.5 M265.6,725.8l-1.1,52.8 M447.8,642.1l0-188.3 M176.6,570.8L228.3,448 M69.6,608.4
		l-45,19.6 M477.7,690.7l-38-36.7 M477.7,690.7l-213.2,87.9 M228.3,448L189,401.6"/>
	<path class="st1" d="M251.5,723l-19.4,49.1l9.6,13.2l-13.3,29.9l-16.3,1.7L24.5,628l1.8-16.3l30-13.1l13.2,9.7l49.2-19.1l57.8-18.6
		l-52.2,16.8l-8.4-12.4l-8,14.3L71.6,590L63.3,576l-49.1-1.3l103.2-245.5l15.7-4.5l23.5,22.8l-4,15.9l36.4,38.2l14.7-2.6l24.5,49
		l-27.2-54.3l-16.3-1.9l-14.4-33.5l9.8-13.1l-17.5-45.9l266.3,1.9l10.1,12.8l-12.1,30.4l-16.2,2.4l9.6,13.2l-14.8,33.3l-16.3,1.7
		l-27.9,53.9l-67.2,98.9l21.2-31.3l62.4-41.8l15.8,6.5l0.9-16.3l39.6-20.1l13.7,8.9l48.4-21.1l45.8-17.8l0,266.3l-45.8-17.8
		l-48.4-21.1l-54.1-27.6l48.9,24.9l-2.8,14.7l15.7-4.5l26.2,25.3l-4,15.9l15.9-3.9l22.6,23.7l-4.6,15.7L265.5,827.7l-1-49.1l-14-8.5
		l0.8-36.4l14.3-7.9l-12.3-8.5l17.1-52.1L251.5,723z M294.2,548l0-0.1l-0.1,0l0,0.1l0.1,0.1L294.2,548z"/>
</g>
</svg>
