<?xml version="1.0" encoding="utf-8"?>
<!-- Generator: Adobe Illustrator 21.1.0, SVG Export Plug-In . SVG Version: 6.00 Build 0)  -->
<svg version="1.1" id="Layer_1" xmlns="http://www.w3.org/2000/svg" xmlns:xlink="http://www.w3.org/1999/xlink" x="0px" y="0px"
	 viewBox="0 0 2383.9 3370.4" style="enable-background:new 0 0 2383.9 3370.4;" xml:space="preserve">
<style type="text/css">
	.st0{fill:none;stroke:#0000FF;stroke-width:2;stroke-linejoin:bevel;}
	.st1{fill:none;stroke:#FF0000;stroke-width:2;stroke-linejoin:bevel;}
</style>
<g>
	<path class="st0" d="M551.7,1919.9l161.3,0 M767.9,2099.2l-83.7,68.3 M767.9,1740.6l-83.7-68.3"/>
	<path class="st1" d="M519.4,2077.9l32.3-158l-32.3-158l164.7-89.7l54.9-179.3l161.3,0l32.3,158l-164.7,89.7L713,1919.9l54.9,179.3
		l164.7,89.7l-32.3,158l-161.3,0l-54.9-179.3L519.4,2077.9z"/>
</g>
<g>
	<path class="st0" d="M794,3039.3l144.2-72.1 M794,3039.3l0,245.5 M938.2,2967.2l144.2,72.1 M938.2,3357L794,3284.9 M1082.4,3284.9
		L938.2,3357"/>
	<path class="st1" d="M938.2,3357l-41.8,155.7l-187.4,6.5l-44.3-98.6L794,3284.9l-183,40.9l-91.5-163.7l91.5-163.7l183,40.9
		l-129.3-135.8l44.3-98.6l187.4,6.5l41.8,155.7l41.8-155.7l187.4-6.5l44.3,98.6l-129.3,135.8l0,245.5l129.3,135.8l-44.3,98.6
		l-187.4-6.5L938.2,3357z"/>
</g>
<g>
	<path class="st0" d="M40.8,2685.4l164.7,89.7 M40.8,3180.7l164.7-89.7 M256.3,2439l110.8,151.3 M12.1,2933.1h161.3 M256.3,3427.2
		l110.8-151.3"/>
	<path class="st1" d="M79.7,2502l176.6-63l56.6-92.1l185,30.5l21.5,159.8l-152.3,53l-161.6,184.8l-32.3,158l32.3,158l161.6,184.8
		l152.3,53l-21.5,159.8l-185,30.5l-56.6-92.1l-176.6-63l-38.9-183.5l-83.7-68.3l54.9-179.3l-54.9-179.3l83.7-68.3L79.7,2502z"/>
</g>
<g>
	<path class="st0" d="M437.1,992l72.1-144.2 M191.5,992l-72.1-144.2 M509.2,847.7l-72.1-144.2 M437.1,703.5l-245.5,0 M191.5,703.5
		l-72.1,144.2 M191.5,992l245.5,0"/>
	<path class="st1" d="M150.6,1175l40.9-183L55.7,1121.3l-98.6-44.3l6.5-187.4l155.7-41.8l-155.7-41.8l-6.5-187.4l98.6-44.3
		l135.8,129.3l-40.9-183L314.3,429L478,520.5l-40.9,183l135.8-129.3l98.6,44.3l-6.5,187.4l-155.7,41.8l155.7,41.8l6.5,187.4
		l-98.6,44.3L437.1,992l40.9,183l-163.7,91.5L150.6,1175z"/>
</g>
<g>
	<path class="st0" d="M683.1,271.4l163.7-91.5"/>
	<path class="st1" d="M805.9-3.1l40.9,183l84.5,67.4l-52.9,179.9L717.2,429l-34-157.6l-163.7-91.5l40.9-183H805.9z"/>
</g>
<g>
	<path class="st0" d="M603.9,2555.8l163.7,91.5"/>
	<path class="st1" d="M733.6,2804.9l-161.2-1.8l-52.9-179.9l84.5-67.4l40.9-183h245.5l40.9,183l-163.7,91.5L733.6,2804.9z"/>
</g>
<g>
	<path class="st0" d="M311.4,2069.6L190,2175.8 M231.7,1683.9l-183-40.9 M231.7,1929.5l-183,40.9 M311.4,1543.8L190,1437.6"/>
	<path class="st1" d="M439.7,2167.3l-65,175.9l-108,3.6L190,2175.8l-159.4-98.9l18-106.5l-91.5-163.7L48.7,1643l-18-106.5
		l159.4-98.9l76.7-171.1l108,3.6l65,175.9l-128.3,97.7l-79.7,140.2l0,245.5l79.7,140.2L439.7,2167.3z"/>
</g>
<g>
	<path class="st0" d="M206.3,344.5l-91.5-163.7 M114.8,180.8l91.5-163.7"/>
	<path class="st1" d="M138.9-67.3l67.4,84.5l183,40.9v245.5l-183,40.9L138.9,429L-41,376.1l-1.8-161.2l157.6-34l-157.6-34L-41-14.4
		L138.9-67.3z"/>
</g>
<g>
	<path class="st1" d="M946,1225.6l-183,40.9l-91.5-163.7L763,939.1L946,980V1225.6z"/>
</g>
</svg>
